<svg xmlns="http://www.w3.org/2000/svg" viewBox="0 0 695 695"><defs><style>.cls-1{fill:#fd9e9e;}</style></defs><g id="レイヤー_2" data-name="レイヤー 2"><g id="レイヤー_1-2" data-name="レイヤー 1"><rect class="cls-1" width="695" height="695"/><path d="M264,296.21c-1.83,1.92-10.37,11.49-12.4,13.61-2.7,2.84-5.34,2.36-6.51,1.25-2-1.89-.62-5.43,1.07-7.21.29-.3,2.2-1.19,2.54-1.44,3.9-2.47,12.7-11.6,16.46-15.55.15-.15,1.45-1.72,1.74-2-14.09-1.15-22.69-6.74-25.33-9.25-.4-.39-1.37-1.4-1.08-1.71s.44-.16,2.45.69c13.6,5.61,32.69,4.76,36.22,3.09,2.4-1.09,4.06-1.93,6.14.05,1.57,1.5,2.13,4.16.92,5.43a7.56,7.56,0,0,1-4.11,1.88c-2.23.3-3,.32-10.59.35.5,2.32.72,3.2,0,4-.29.31-1.91,1-2.2,1.29Z"/><path d="M333.85,345.19c4.84-.51,5.38-.57,5.78-.19s.27.54,0,.79c-.62.66-1.11.87-3.13,1.56A63.74,63.74,0,0,1,314,351.06c-19.9.18-26-5.27-26.73-5.95-2-1.88-1.1-6.56.11-7.82.1-.1,1.26-1.22,2.22-.3.2.19,1,1.56,1.28,1.8C294.1,341.83,312.21,347.49,333.85,345.19Zm-23.33-14.6c-1.06-1-1-1.46-1-5.67a18.15,18.15,0,0,0-1.51-7.63c-.64-1.58-.85-2.07-.65-2.27.48-.5,2.44.69,4.21,2.38,1.12,1.06,8.93,8.8,4.44,13.51C314.67,332.33,312,332,310.52,330.59Z"/><path d="M368.29,415c-1.35,1.42-3.8,2.47-5.88.49-1.88-1.79-1.47-3.43-.51-6.58.37-1.29,2.52-8.52.58-15.41a46.33,46.33,0,0,1-28.17-3.93,34.13,34.13,0,0,1-7.39-4.63c-.41-.38-1-1-.53-1.47.24-.25.49-.11,1.09.07,1.15.52,3.1,1.32,4.3,1.78,21.64,8.25,41.41-1.43,43.15-3.26.24-.25.52-.85-.29-1.63-.15-.14-8.27-6.43-10.78-7.76-.8-.47-5.24-1.9-6-2.63-1.12-1.06-.85-2.35.21-3.47,2.71-2.84,5.24-.42,5.9.21,0,0,2.18,2.27,2.59,2.66,4.46,4.25,9.46,8.44,10.87,9.59,1.19-.13,3.7-.43,5.33,1.11,1.21,1.16,2.67,4.2.84,6.12a5.53,5.53,0,0,1-3.14,1.46,10.45,10.45,0,0,0-2.11.7c-5.15,2.15-8.82,3.77-13.85,4.59C371.13,403.17,371.38,411.73,368.29,415Z"/><path d="M422.67,426.19c.71.68,3.29,2.65,9.09,5a9.93,9.93,0,0,1,3.26,1.95c1.37,1.3,2.61,3.55,1,5.27a4,4,0,0,1-3.24,1.27,44,44,0,0,0-6,1.53A114.74,114.74,0,0,1,414.63,444c.61,2.71,1.75,8.73-.43,11-.77.81-2.73,1.85-4.3.35-1.16-1.11-1.13-2-1-4.73a54.12,54.12,0,0,0-.21-6.48c-16.07.63-29-6.49-33-10.31-.31-.29-1.73-1.64-1.1-2.3.24-.25.59-.11,3.8,1.5,7.42,3.58,16.93,6.08,29.39,5.38a35.34,35.34,0,0,0-1.72-8c-.27-.84-.37-1-.18-1.24.39-.4,1.1.27,1.25.42a25.49,25.49,0,0,1,5.3,8.54c7-1.51,13.75-3,15.29-4.58.29-.3.34-.45,0-.79a11.15,11.15,0,0,0-2.31-1.63c-3.72-2.09-4.17-2.33-5-3.1-.2-.19-1.32-1.25-1.05-2.35-10.64,2.14-20.91-.79-24.31-4-.2-.2-1-1-.62-1.38.09-.1.19-.1.34-.05,15.33,3.1,26.38-.58,28.92-2.23,1.85-1.23,2.48-1.59,3.85-.29s2.18,4.3.69,5.88a4.59,4.59,0,0,1-3.1,1.11,5.49,5.49,0,0,0-2.31.5C422.36,425.51,422.22,425.76,422.67,426.19Z"/></g></g></svg>