<svg xmlns="http://www.w3.org/2000/svg" width="149.379" height="80" viewBox="0 0 149.379 80">
  <g id="レイヤー_2" data-name="レイヤー 2" transform="translate(-0.022)">
    <g id="レイヤー_3_画像" data-name="レイヤー 3 画像" transform="translate(0.022)">
      <path id="パス_672" data-name="パス 672" d="M311.367,120.123v.759c-.743,3.779-3.779,5.266-5.693,7.875a29.233,29.233,0,0,1,2.182,2.372c.6.759,1.842,1.933.285,2.767-1.309-1.186-1.977-3.02-3.605-3.89-1.285,1.348-2.886,2.372-3.985,3.985-.874,1.281-1.067,3.42-2.941,3.8-.087-2.162,1.1-3.5,2.277-4.744.474-.5,1.024-1.142,1.708-1.9.5-.546,1.739-1.269,1.613-2.087-.091-.589-1.087-.988-1.518-1.328-.656-.522-.992-1.135-1.708-1.139a4.189,4.189,0,0,0-1.518.759c-.988.6-1.933,1.245-3.226.474-2.57-1.538-1.5-7.385.095-9.3.625-.751,1.542-1.024,2.372-1.8,1.763-1.656,3.23-4.179,5.139-5.313,1.222,1.518,1.581,3.36,2.277,5.313a7.028,7.028,0,0,1,6.262,2.372v1.044Zm-3.985,5.313c1.506-1.739,3.495-3.906,2.182-6.547a4.044,4.044,0,0,0-4.554-.474c-.217,2.155-1.455,3.289-1.977,5.139a5.2,5.2,0,0,0-2.087,2.087,8.812,8.812,0,0,0,1.708,1.233c.486.293,1.4,1.008,1.977.949S307.006,125.875,307.382,125.436Z" transform="translate(-162.004 -59.015)"/>
      <path id="パス_673" data-name="パス 673" d="M271.754,90.729c1-.04-.174,1.218-.19,1.233-1.075,1.016-2.767,1.977-3.8,2.846-1.874,1.581-3.254,2.716-4.934,3.985-.984.743-1.925,1.854-2.941,2.767s-2.206,1.68-3.131,2.562-1.779,1.894-2.767,2.767-2,1.613-2.941,2.467c-1.581,1.431-2.589,3.495-4.459,4.554a21.2,21.2,0,0,1-3.036-3.416c5.574.083,8.235-3.064,11.29-5.882.759-.7,1.581-1.186,2.372-1.8.581-.47,1-1.186,1.613-1.708,2.961-2.554,5.586-4.708,8.729-7.4C268.746,92.67,270.4,90.784,271.754,90.729Z" transform="translate(-131.689 -48.68)"/>
      <path id="パス_674" data-name="パス 674" d="M295.374,83.29c.348,0,.364.332.569.474-.862,1.479-.672,4.009-1.977,5.029C293.67,86.939,294.829,84.942,295.374,83.29Z" transform="translate(-162.14 -46.206)"/>
      <path id="パス_675" data-name="パス 675" d="M289.442,84a.518.518,0,0,0,.4.095c-.34,1.815-.945,4.179-2.277,5.313C287.7,87.5,288.793,85.732,289.442,84Z" transform="translate(-158.295 -46.606)"/>
      <path id="パス_676" data-name="パス 676" d="M252.92,97c1.352.921,2.281,1.917,1.9,3.985-.293,1.581-1.186,2.53-3.416,2.182-3.285-.514-5.112-4.965-5.882-7.306A9.991,9.991,0,0,1,252.92,97Z" transform="translate(-136.303 -52.881)"/>
      <path id="パス_677" data-name="パス 677" d="M211.141,33.721c.814,2.878-3.609,4.3-6.167,4.649-.98.134-1.977.024-3.036.19-4.309.692-8.665,1.581-12.714,2.657-2.372.625-3.953,1.9-5.977.664.4-1.131,1.909-1.309,3.131-1.613s2.577-.633,3.89-.854c3.123-.53,6.214-1.067,9.393-1.328,3.463-.285,7.689-.565,9.962-1.9.557-.328,2.1-1.909.664-2.277-.921-.237-2.344.672-3.226,1.233-1.265.791-2.506,1.878-3.416.19a6.592,6.592,0,0,1-2.846.569c-1.352-.261-1.451-1.787-2.182-2.657-1.732.921-4.7,2.348-6.72.759-.087-.53-.561-.965-.664-1.708s.538-1.807-.4-2.087c-.751.439-1.783,1.261-2.941,2.087-.984.7-2.119,1.716-3.131,1.8a2.363,2.363,0,0,1-2.182-1.233c-.162-.478.213-1.206-.285-1.708a2.036,2.036,0,0,0-1.139.664c.115-.739,1.4-1.131,2.087-1.613,1.012-1.044,1-3.115,2.467-3.7,1.273,2.249-1.55,3.7-1.423,6.072.138.336.549.4.759.664,1.846-.285,3.127-1.482,4.649-2.562a16.382,16.382,0,0,0,4.934-5.693c-.261-1-1.977-.542-2.657-1.139,1.016-.15,2.419.063,3.226-.285,1.534-.66,2.06-3.657,3.226-4.839,2.052.933.569,3.317-.285,4.459.162.992,1.273.648,2.087.664l4.934.095c-.743.953-2.89.51-4.554.474-1.514-.032-3.392-.312-4.08.854-.617,1.826-2.4,3.5-3.321,5.218a2.615,2.615,0,0,0,.569,3.51,8.571,8.571,0,0,0,4.744-1.139c.818-.609.925-1.621,1.518-2.467s1.328-1.012,1.977-1.613c.735.19,1.558-.249,2.372-.19.565.04,1.131.557,1.708.664.791.146,1.617-.2,1.9.569-.119,1.336-3.878,4.349-1.9,5.5C207.844,34.887,208.769,33.175,211.141,33.721Zm-6.72-.474c.534-1.186,1.874-2.151,1.8-3.226-.13-1.953-4.4.158-5.218,1.328-1.581,2.241-.237,4.574,2.657,3.605C204.093,34.507,204.1,33.942,204.421,33.246Z" transform="translate(-98.784 -11.326)" fill="#231815"/>
      <path id="パス_678" data-name="パス 678" d="M239.76,119.268c1.534-1.028,4.566.5,3.985,2.657C242.045,122.965,239.8,121.367,239.76,119.268Z" transform="translate(-133.593 -66.174)"/>
      <path id="パス_679" data-name="パス 679" d="M194.628,94.559c.712,2.914-1.344,4.163-2.657,5.788-2.554,3.163-5.044,6.381-7.306,9.488-1.629,2.234-3,4.495-4.459,6.641a93.606,93.606,0,0,1-6.452,9.013h-.474c-.265-.067-.111-.111-.19-.285-.874-1.977.47-2.8,1.613-4.175,2.17-2.605,4.052-5.206,5.882-7.78,1.328-1.87,2.767-3.514,3.89-5.218.941-1.423,1.866-2.767,2.846-3.985.3-.4.834-.862.664-1.423-1.328-.055-1.558.838-2.467,1.044a7.337,7.337,0,0,1-3.8-.4c-1.439-.609-2.02-1.751-3.131-3.036-1.874-2.162-2.518-5.368-4.08-7.59-.324-.463-1.048-.858-.759-1.518,2.226.7,4.744,1.637,7.021.854.352-.123.68-.427,1.044-.569.629-.245,1.38-.253,2.087-.474,1.953-.609,4.056-1.376,6.072-1.9.941.538,1.225,1.55,1.977,2.372C192.964,92.479,194.257,93.025,194.628,94.559Z" transform="translate(-94.977 -45.489)"/>
      <path id="パス_680" data-name="パス 680" d="M131.42,9.09c.261.253.941.553.759,1.044a23.553,23.553,0,0,1-6.641-4.554c-1.146-1.016-2.708-2.593-4.349-2.467-1.293.1-1.688,1.024-2.767,1.518-.719-1.261-1.763-2.846-3.321-2.767s-2,2.119-3.131,2.467c-1.091-.546-1.664-1.49-3.131-1.49-2.558,0-5.021,2.87-6.547,4.175-1.016.87-1.977,1.66-2.846,2.467s-2.309,1.415-2.562,2.767a15.944,15.944,0,0,0,11.2.285c-2.57,2.609-9.551,2.372-13.188.854-2.621,1.791-5.614,4.558-10.057,4.269-.818-.051-1.751-.534-2.767-.569A5.275,5.275,0,0,1,80.36,15a4.458,4.458,0,0,1,2.767-3.51,12.168,12.168,0,0,1,7.306-.759c1.032.2,2.253,1.1,3.416.854.5-.107,1.214-1.036,1.8-1.518.688-.565,1.269-.953,1.8-1.423,2.285-2.02,3.74-4.171,6.167-5.977,1.494-1.111,3.163-2.372,5.408-1.977.842.138,1.7,1.186,2.562,1.139,1.348-.075,2.1-1.613,3.451-1.708h.534c.474.3,1.684.368,2.182.664.621.368.6,1.071,1.328,1.423,1.85-1,3.325-2.083,5.5-.8,1.514.889,2.174,2.949,3.51,4.459C129.167,7.074,130.3,8.011,131.42,9.09Zm-42.3,6.547a6.856,6.856,0,0,0,2.941-2.562c-1.289-1.558-5.93-1.625-8.444-.569-1.463.617-2.985,2.218-1.613,3.8a10.31,10.31,0,0,0,7.1-.664Z" transform="translate(-42.556 -0.073)" fill="#231815"/>
      <path id="パス_681" data-name="パス 681" d="M196.729,30.784c0,.858-.217.965-.759,1.328a.889.889,0,1,1,.474-1.708,1.7,1.7,0,0,0,.285.38Z" transform="translate(-108.972 -18.351)" fill="#231815"/>
      <path id="パス_682" data-name="パス 682" d="M184.49,30.79a2.091,2.091,0,0,1-.4,1.708c-.478.067-.652-.17-.949-.285C182.755,31.158,183.415,30.312,184.49,30.79Z" transform="translate(-102.155 -18.535)" fill="#231815"/>
      <path id="パス_683" data-name="パス 683" d="M153.217,37.394c.755.253.731.874.949,1.518-1.641,2.451-3.253,5.823-5.882,8.065-.49.419-1.059.791-1.613,1.328-1.289,1.261-5.262,4.084-7.211,1.9a2.958,2.958,0,0,1,.285-1.8,1.4,1.4,0,0,1,1.233.285c.166.312-.2,1.162.285,1.518,3.3-.348,5.029-2.119,6.641-4.269a6.9,6.9,0,0,0,1.613-2.767c-.542-.854-1.257.166-1.9.19-.972.036-1.617-.838-2.277-1.423-1.506.127-2.206,1.826-4.459,1.518a10.35,10.35,0,0,0-1.107-1.5c-.984.4-1.882,1.4-3.416.949a6.558,6.558,0,0,0,4.349-2.372A6.678,6.678,0,0,1,143.08,37.2c1.645,1.977-1.348,3.388-1.8,4.839a2.1,2.1,0,0,0,.569.854c4.056-.119,4.036-4.313,6.357-6.167,1.044.842.743,1.447,0,2.767-.53.937-1.032,1.826-1.518,2.657.154.4.589.486.854.759C151.216,42.842,151.92,39.814,153.217,37.394Z" transform="translate(-75.216 -20.096)" fill="#231815"/>
      <path id="パス_684" data-name="パス 684" d="M168.72,0Z" transform="translate(-94.256)"/>
      <path id="パス_685" data-name="パス 685" d="M139.731,136.172c.526,2.91-2.19,3.111-1.9,6.072-1.328,1.4-2.854,3.087-5.139,3.226a6.1,6.1,0,0,1,1.708-1.8c.727-.644,2.261-1.348,2.467-2.372.079-.4-.225-.791-.19-1.139.115-1.119,1.415-1.977,1.9-2.941a5.859,5.859,0,0,0-.664-1.044,9.012,9.012,0,0,0-2.182,2.087c-.957,1.052-1.684,2.965-3.416,1.8C130.682,135.33,137.885,132.116,139.731,136.172Zm-6.167,2.657c.755-.723,2.811-2.056,1.708-3.131-.893.6-2.981,1.826-1.708,3.119Z" transform="translate(-73.414 -72.87)"/>
      <path id="パス_686" data-name="パス 686" d="M95.664,41.787c.265.6-.68.862-1.044,1.233-1.111,1.131-1.874,3.044-3.036,3.7-.055-.281.2-.613.095-1.044-.15-.621-2.526-1.51-3.51-1.328-.621.115-1.388,1.415-2.087,2.087-.636.613-1.581,1.471-2.182,1.977a16.234,16.234,0,0,1-5.139,3.226,10.08,10.08,0,0,1-4.554.19c-1.214-.372-3.471-2.044-3.89-3.226-.348-.98,0-2.858.854-3.226,1.135-.123,1.763.261,1.977,1.044-.1.949-.913,1.186-1.708,1.423A2.259,2.259,0,0,0,72.767,50.4c1.854,1.028,4.4.34,6.167-.664A14.928,14.928,0,0,0,83.678,45c-1.222-1-3.036.585-5.028,0a23.219,23.219,0,0,1,4.08-1.518,20.343,20.343,0,0,0,3.131-.569c1.008-.376,1.755-1.384,2.767-1.977a17.858,17.858,0,0,1,5.139-1.8c.241,0,.115.071.095.19A9.745,9.745,0,0,0,89.212,43.3c.6.874,2.321,1,3.416.664C93.916,43.577,94.656,41.557,95.664,41.787Z" transform="translate(-38.451 -21.463)" fill="#231815"/>
      <path id="パス_687" data-name="パス 687" d="M111.817,101.688c.095,1.925-.9,7.622-3.036,5.313-1.807.522-5.329,2.625-7.021.949a13.984,13.984,0,0,1,1.044-5.408,5.8,5.8,0,0,0,3.131-1.139c-.206-.364-.723-.4-1.328-.4a13.547,13.547,0,0,1,.19-5.139c2.2.055,3.914-1.131,6.357-1.139a5.973,5.973,0,0,1-.19,4.175c-.613,1.233-1.977,1.052-3.036,1.708.166,1.131,2.226.4,2.941.285C111.2,101.162,111.509,101.427,111.817,101.688Zm-4.823,4.269c1.83-.328,3.558-1.225,3.416-3.226-.648-.636-2-.059-2.846,0A4.645,4.645,0,0,0,106.994,105.957Zm-.949-6.357c2.016-.4,4.38-.925,3.985-3.416a6.179,6.179,0,0,0-3.8.949c-.38.557-.98,1.909-.206,2.467Zm-.759,6.926a11.4,11.4,0,0,1,.474-2.767c-1.6-1.091-2.617,1.079-2.657,2.767.3.083.277.482.569.569a2.815,2.815,0,0,0,1.6-.569Z" transform="translate(-56.471 -51.869)"/>
      <path id="パス_688" data-name="パス 688" d="M72.413,101.5c.7,2.174-3.977,1.123-3.8,3.321.04.466.289.561.664.854a3.064,3.064,0,0,1,1.9-.285c.447,1.34-1.72,1.518-2.657,2.087-.2.526-.372,1.083-.569,1.613.087.166.348.158.4.4,1.036-.146,2.487-1.277,3.226-.285-.51,1.8-3.016,2.585-4.934,1.708-.17-.791.079-1.977-.285-2.562-3.23.376-2.372,4.827-4.744,6.072-.751-.771.079-1.846.4-2.657.66-1.791,1.407-3.684,2.087-5.408a4.219,4.219,0,0,1-1.044-2.182c-.957-.4-1.929.059-1.9.854.028.664,1.431,1.214,1.044,2.182q-.308-.024-.285.285a4.533,4.533,0,0,0-1.518.095c-.791,1.55-.953,3.728-1.708,5.313H57.9c-.688-.929.53-2.585-.19-3.226-1.384.4-1.451,2.091-2.941,2.372-.032-.4-.249-.636-.285-1.044a4.293,4.293,0,0,0,1.044-1.233,28.011,28.011,0,0,0,2.767-4.08c-.063-.285-.431-.265-.569-.474-1.186.237-2.3,1.32-3.605.854-.735-2.186,2.562-1.482,3.321-2.767-.245-1.107-.992-2.372-.474-3.416,1.225.546,1.443,2.1,2.087,3.226,2.23-.557,1.186-5.851,2.562-7.59.154-.028.162.091.285.095a9.4,9.4,0,0,1,.095,3.036c-.051.791-.518,1.716.095,1.977.941-.613,1.443-2.158,2.372-2.467.482,1.581-.593,2.289-.854,3.416.142.3.593.293,1.044.285.356.435.427,1.154.854,1.518.874-.328,1.921-.482,2.372-1.233a20.556,20.556,0,0,1,.664-3.416,12.42,12.42,0,0,1,.949-2.941.518.518,0,0,0,.4.095c1.04,1.411-.937,4.246.19,5.693C70.875,101.457,71.618,100.951,72.413,101.5Zm-6.547,5.313c1.293,0,1.807-.791,1.708-2.182a2.857,2.857,0,0,0-1.9.664C65.8,105.739,65.7,106.415,65.867,106.814Z" transform="translate(-29.782 -51.78)"/>
      <path id="パス_689" data-name="パス 689" d="M38.98,95.974c.221,1.008-.542,2.075-1.139,2.941-.546.791-1.079,1.7-1.708,2.467-1.866,2.261-3.661,3.6-4.459,6.641-.4,1.506-.518,3.412,1.044,3.7,2.747.51,3.23-4.139,4.554-5.029.593,1.977-.526,4.772-1.708,6.072a4.739,4.739,0,0,1-1.518,1.139c-2.5.569-4.606-1.925-4.839-4.175-.838,0-1.72.075-2.087-.4.7-2.522,2.989-3.265,4.175-5.6.814-1.605,1.241-4.167,1.977-6.262.344-.961.692-1.953,1.044-2.941.494-1.388.791-2.795,1.708-3.605.079,0,.091.036.095.095.138,2.3-.945,4.934-1.708,6.926-.293.759-.636,1.538-.095,2.087C35.936,99.125,36.794,96.638,38.98,95.974Z" transform="translate(-16.408 -48.805)"/>
      <path id="パス_690" data-name="パス 690" d="M13.581,101.161a2.422,2.422,0,0,1,2.277-1.328,41.326,41.326,0,0,1-3.7,7.59c-1.372,2.34-2.85,4.6-4.349,6.831-.889,3-.9,6.883-1.518,10.152-.419.15-.625.514-1.139.569-1.732-1.048.47-4.562-.569-5.977-1.364.882-2.218,2.273-3.51,3.226a2.85,2.85,0,0,1-.949-.474,2.313,2.313,0,0,1,.19-1.8c.68-1.336,2.629-2.712,3.7-4.349,2.064-3.163,4.471-6.325,6.452-9.583A57.129,57.129,0,0,1,13.581,101.161Z" transform="translate(-0.022 -52.008)"/>
    </g>
  </g>
</svg>
