<svg id="Mobile" xmlns="http://www.w3.org/2000/svg" width="40" height="40" viewBox="0 0 40 40">
  <rect id="長方形_975" data-name="長方形 975" width="40" height="40" fill="none"/>
  <path id="パス_259" data-name="パス 259" d="M27,0a3,3,0,0,1,2.1.75A2.113,2.113,0,0,1,30,2.5v35a2.113,2.113,0,0,1-.9,1.75A3,3,0,0,1,27,40H3a3,3,0,0,1-2.1-.75A2.113,2.113,0,0,1,0,37.5V2.5A2.113,2.113,0,0,1,.9.75,3,3,0,0,1,3,0ZM24.9,30V6.75H5.1V30Zm-12,6.75a3,3,0,0,0,2.1.75,3,3,0,0,0,2.1-.75,2.151,2.151,0,0,0,0-3.5A3,3,0,0,0,15,32.5a3,3,0,0,0-2.1.75,2.151,2.151,0,0,0,0,3.5Z" transform="translate(4.876 0)" fill="#fd9e9e"/>
</svg>
