<svg xmlns="http://www.w3.org/2000/svg" width="409.747" height="45.538" viewBox="0 0 409.747 45.538">
  <g id="グループ_989" data-name="グループ 989" transform="translate(-418.368 -2885.536)">
    <g id="グループ_976" data-name="グループ 976" transform="translate(418.368 2886.356)">
      <circle id="楕円形_387" data-name="楕円形 387" cx="22" cy="22" r="22" transform="translate(0 -0.285)" fill="#fd9e9e"/>
      <g id="グループ_975" data-name="グループ 975" transform="translate(8.336 8.736)">
        <path id="パス_902" data-name="パス 902" d="M457.012,2910.094a2.016,2.016,0,0,1,1.752-1.263,1.87,1.87,0,0,1,1.9,1.637,7.479,7.479,0,0,1-.373,1.034,4.779,4.779,0,0,0-.144,1.809c0,2.24.2,13.3.2,15.8,0,1.436,0,4.394-3.418,4.394a5.611,5.611,0,0,1-4.164-2.212c0-.115.172-.115.2-.115.258,0,1.551.229,1.838.229,1.982,0,2.556-.517,2.556-2.613l.029-5.543h-9.621c-.2,2.211-.718,7.524-6.864,9.707a9.647,9.647,0,0,1-1.838.517c-.144,0-.374,0-.374-.229,0-.115,2.269-1.637,2.642-1.981,3.849-3.3,3.849-8.071,3.849-12.781,0-.977,0-4.308-.086-5.83-.029-.575-.057-.6-.144-.718-.4-.431-.517-.546-.517-.862a2.918,2.918,0,0,1,2.212-2.039,1.3,1.3,0,0,1,1.378,1.063Zm.4,11.775-.057-4.653h-9.477c0,.4-.058,3.418-.058,4.653Zm-.057-5.945v-4.395h-9.047c-.316,0-.459.259-.459.546-.029.545.029,3.245.029,3.849Z" transform="translate(-438.688 -2908.831)" fill="#fff"/>
      </g>
    </g>
    <g id="グループ_978" data-name="グループ 978" transform="translate(479.207 2886.356)">
      <circle id="楕円形_388" data-name="楕円形 388" cx="21.948" cy="21.948" r="21.948" transform="translate(0)" fill="#fd9e9e"/>
      <g id="グループ_977" data-name="グループ 977" transform="translate(9.801 9.081)">
        <path id="パス_903" data-name="パス 903" d="M599.086,2930.148a14.59,14.59,0,0,1-7.985,2.9c-.2,0-.546-.058-.546-.316,0-.2.172-.316.89-.489a12.633,12.633,0,0,0,7.381-5.571c2.068-3.246,2.384-6.778,2.384-11.488,0-2.786-.057-2.814-.373-3.1a.522.522,0,0,1-.287-.459c0-.919,1.465-1.953,2.5-1.953a1.138,1.138,0,0,1,1.264,1.177c0,.259-.172,1.407-.172,1.637-.2,5.227-.229,5.8-.229,6a13.155,13.155,0,0,0,.832,3.36c1.982,5.572,6.979,8.587,10.512,9.765.488.172.546.2.546.316,0,.143-.057.172-.689.431-2.729,1.091-2.987,1.206-3.619,1.206a3.707,3.707,0,0,1-2.413-1.235c-3.446-2.987-4.71-6.088-5.542-10.626A13.172,13.172,0,0,1,599.086,2930.148Zm-5.716-9.363c-.546,0-1.637-.344-1.637-1.35,0-1.264,1.091-1.293,2.47-1.321a10.345,10.345,0,0,0,3.332-.632,11.555,11.555,0,0,1,1.379-.632c.144,0,.287.086.287.143C599.2,2918.172,595.84,2920.786,593.371,2920.786Zm19.012-2.958a19.8,19.8,0,0,1-6.347,2.068c-.029,0-.488-.029-.488-.316,0-.115.057-.172,1.177-.976.8-.575,3.217-2.556,3.389-2.729.574-.632.861-.948,1.55-.948a1.657,1.657,0,0,1,1.723,1.551.978.978,0,0,1-.029.287C613.3,2916.966,613.188,2917.368,612.383,2917.828Z" transform="translate(-590.556 -2909.671)" fill="#fff"/>
      </g>
    </g>
    <g id="グループ_980" data-name="グループ 980" transform="translate(540.045 2886.356)">
      <circle id="楕円形_389" data-name="楕円形 389" cx="21.948" cy="21.948" r="21.948" transform="translate(0)" fill="#fd9e9e"/>
      <g id="グループ_979" data-name="グループ 979" transform="translate(8.566 8.592)">
        <path id="パス_904" data-name="パス 904" d="M744.029,2916.953a1.936,1.936,0,0,1,1.637-1.091,1.581,1.581,0,0,1,1.637,1.522c0,.862-2.355,5.887-5.773,9.1-2.729,2.614-4.94,2.757-5.227,2.757s-.459-.057-.459-.2.287-.287.316-.316a16.193,16.193,0,0,0,2.326-1.953,19.783,19.783,0,0,0,5.083-8.444h-4.423c-.258,0-1.551.431-1.838.431-.2,0-.833-.086-.833-.689a1.339,1.339,0,0,1,1.235-1.321c.144,0,.89.2,1.063.2Zm17.031,9.334a15.42,15.42,0,0,1,2.47,1.177,10.206,10.206,0,0,1-3.676,2.01c-1.177,0-4.566-2.413-6.836-6.29a23.813,23.813,0,0,1-2.815-7.5c.029.546.258,11.488.258,13.211,0,2.182,0,4.71-3.159,4.71-1.723,0-3.935-1.809-3.935-2.3a.105.105,0,0,1,.115-.115,2.261,2.261,0,0,0,.345.115,18.038,18.038,0,0,0,1.867.172c1.9,0,1.9-1.235,1.9-3.274,0-1.378.086-8.271.086-9.822,0-1.321-.086-5.485-.173-7.094a.866.866,0,0,1-.516-.718c0-.919,1.436-2.1,2.413-2.1,1.234,0,1.234,1.12,1.234,1.666,0,.345-.143,2.068-.172,2.47.029.029.029.115.029.144C751.209,2918.734,755.575,2923.587,761.06,2926.287Zm-7.927-7.525c-.2,0-.4-.028-.4-.2,0-.287.344-.517.546-.661a29.139,29.139,0,0,0,3.935-3.647c.775-.948,1.062-1.264,1.752-1.264a1.989,1.989,0,0,1,1.809,1.723C760.773,2916.264,755.115,2918.762,753.133,2918.762Z" transform="translate(-735.844 -2908.48)" fill="#fff"/>
      </g>
    </g>
    <g id="グループ_982" data-name="グループ 982" transform="translate(600.883 2886.356)">
      <circle id="楕円形_390" data-name="楕円形 390" cx="21.948" cy="21.948" r="21.948" transform="translate(0)" fill="#fd9e9e"/>
      <g id="グループ_981" data-name="グループ 981" transform="translate(8.566 7.645)">
        <path id="パス_905" data-name="パス 905" d="M893.849,2920.674c-4.365,6.261-8.415,7.151-9.219,7.151-.143,0-.488,0-.488-.172,0-.115.2-.287.66-.632a22.923,22.923,0,0,0,7.669-9.449c.488-1.12.718-1.608,1.751-1.608a1.417,1.417,0,0,1,1.522,1.235C895.745,2917.975,894.883,2919.21,893.849,2920.674Zm5.2-5.514c.2.517,2.642,5.945,10.311,9.592.373.173,2.182.862,2.355,1.034-.115.489-3.245,1.838-3.849,1.838-1.292,0-7.525-3.935-9.449-11.747.029,1.206.172,7.036.23,8.358l.172,4.423c0,.316.115,1.781.115,2.1a2.048,2.048,0,0,1-1.982,2.039c-1.293,0-1.293-.862-1.293-1.292,0-.6.288-6.089.317-7.238.057-1.436.143-3.791.143-9.1h-5.256a10.568,10.568,0,0,0-2.154.144c-.23.029-1.264.517-1.522.517-.66,0-.919-.316-.919-.833a1.416,1.416,0,0,1,1.264-1.464c.143,0,.919.143,1.091.143h7.438c0-.517-.058-3.13-.058-3.705,0-.833-.115-1-.316-1.206-.4-.431-.459-.489-.459-.689a2.445,2.445,0,0,1,2.24-1.9,1.213,1.213,0,0,1,1.379,1.264c0,.229-.029.488-.029.545-.086,1.551-.23,4.279-.258,5.687h6.72a1.932,1.932,0,0,1,1.666-1.12c.775,0,2.01.833,2.01,1.752,0,.862-1.235.862-1.407.862Z" transform="translate(-884.142 -2906.171)" fill="#fff"/>
      </g>
    </g>
    <g id="グループ_984" data-name="グループ 984" transform="translate(661.722 2886.356)">
      <circle id="楕円形_391" data-name="楕円形 391" cx="21.948" cy="21.948" r="21.948" fill="#fd9e9e"/>
      <g id="グループ_983" data-name="グループ 983" transform="translate(8.336 7.759)">
        <path id="パス_906" data-name="パス 906" d="M1057.383,2916.272c.373.144,2.47.775,2.47.861a8.262,8.262,0,0,1-3.3,1.695c-1.924,0-8.07-4.078-11.143-9.622-2.1,3.217-6.347,7.123-9.363,8.53a11.22,11.22,0,0,1-3.849,1.149c-.114,0-.315,0-.315-.144a16.137,16.137,0,0,1,2.326-1.58c3.963-2.843,8.731-7.984,8.76-9.65.029-.8,1.063-1.063,1.666-1.063.747,0,1.953.4,1.953,1.207a1.4,1.4,0,0,1-.287.632C1048.308,2911.448,1053.362,2914.693,1057.383,2916.272Zm-4.222,13.3a2.022,2.022,0,0,1,1.781-1.235c.833,0,2.1.689,2.1,1.695,0,.775-.8.919-1.465.919h-17.864a8.14,8.14,0,0,0-2.068.23,3.9,3.9,0,0,1-.948.172.754.754,0,0,1-.833-.775,1.267,1.267,0,0,1,1.206-1.177c.115,0,.8.114.977.143a7.53,7.53,0,0,0,1.12.058h6.548c.057-1.608.144-4.078.144-7.152l-4.71.029c-.258,0-1.407.43-1.666.43-.172,0-.948,0-.948-.747a1.385,1.385,0,0,1,1.264-1.292c.2,0,1.206.259,1.436.259l4.624.028c0-.488-.029-2.958-.029-3.5l-2.757.028c-.316,0-1.781.517-2.125.517a.767.767,0,0,1-.775-.747,1.227,1.227,0,0,1,1.12-1.149c.086,0,.574.086.69.086h8.329a1.4,1.4,0,0,1,1.264-.861c.661,0,1.723.747,1.723,1.436,0,.661-.919.661-1.35.661h-3.36l-.086,3.532,4.251-.028a1.913,1.913,0,0,1,1.493-1.034c.6,0,1.81.66,1.81,1.494,0,.861-1.034.861-1.637.861h-5.945l.029,7.152Zm-13.3-2.183c-.546,0-3.044,0-3.044-1.321a1.189,1.189,0,0,1,1.321-1.034,3.616,3.616,0,0,1,1.35.459,14.209,14.209,0,0,0,2.5.747c.8.172.948.2.948.344C1042.937,2927.014,1041.185,2927.387,1039.864,2927.387Zm7.611.459c-.2,0-.718,0-.718-.258,0-.144.2-.288.632-.575a12.523,12.523,0,0,0,2.729-2.413c.747-.89.8-.977,1.35-.977.833,0,1.866.546,1.866,1.321C1053.333,2925.98,1049.026,2927.847,1047.475,2927.847Z" transform="translate(-1031.88 -2906.45)" fill="#fff"/>
      </g>
    </g>
    <g id="グループ_986" data-name="グループ 986" transform="translate(722.56 2886.356)">
      <circle id="楕円形_392" data-name="楕円形 392" cx="21.948" cy="21.948" r="21.948" fill="#fd9e9e"/>
      <g id="グループ_985" data-name="グループ 985" transform="translate(9.284 8.65)">
        <path id="パス_907" data-name="パス 907" d="M1204.143,2930.19a2.311,2.311,0,0,1,1.838-1.35c.89,0,2.326,1.034,2.326,1.982,0,.976-1.034.976-4.021.976-1.407,0-8.415-.086-9.995-.086-2.125,0-7.41,0-9.162.173-.258.028-1.493.374-1.781.374a.786.786,0,0,1-.861-.862,1.592,1.592,0,0,1,1.436-1.436c.229,0,1.292.23,1.551.23h8.128c.028-1.465.028-3.848.028-5.17v-5.2h-2.958a15.573,15.573,0,0,0-2.9.172,14.375,14.375,0,0,1-1.58.46c-.546,0-.8-.575-.8-1.005a1.555,1.555,0,0,1,1.321-1.437c.258,0,1.436.259,1.723.259h5.2c0-1.293,0-2.671-.115-6.951a1.237,1.237,0,0,1-.575-.89c0-.919,1.867-1.809,2.786-1.809.862,0,1.091.4,1.091.861,0,.287-.2,1.724-.2,2.039-.029.69-.144,4.883-.144,6.75h5.055a1.911,1.911,0,0,1,1.609-1.264c.747,0,2.182.862,2.182,1.867,0,.919-1.264.919-2.1.919-.976,0-5.687.029-6.749.029v10.368Z" transform="translate(-1182.488 -2908.621)" fill="#fff"/>
      </g>
    </g>
    <g id="グループ_988" data-name="グループ 988" transform="translate(782.578 2885.536)">
      <path id="パス_908" data-name="パス 908" d="M1328.923,2931.073a22.769,22.769,0,1,1,22.769-22.769A22.795,22.795,0,0,1,1328.923,2931.073Zm0-43.9a21.128,21.128,0,1,0,21.128,21.128A21.152,21.152,0,0,0,1328.923,2887.177Z" transform="translate(-1306.154 -2885.536)" fill="#f1999a"/>
      <g id="グループ_987" data-name="グループ 987" transform="translate(14.212 11.682)">
        <path id="パス_909" data-name="パス 909" d="M1353.836,2915.189a2.868,2.868,0,0,1,1.982-1.177,1.622,1.622,0,0,1,1.695,1.493,5.275,5.275,0,0,1-.2,1.092,3.78,3.78,0,0,0-.087,1.178c0,2.24.288,13.154.288,15.624,0,.919,0,1.35-.718,1.752a3.284,3.284,0,0,1-1.494.373c-1.12,0-1.091-.488-1.062-1.867H1344.3a2.155,2.155,0,0,1-2.01,2.355.963.963,0,0,1-.977-1c0-.2.114-3.5.114-3.906.172-5.658.172-10.713.172-12.321a5.694,5.694,0,0,0-.086-1.235,7.9,7.9,0,0,1-.718-1.264,3.007,3.007,0,0,1,2.268-2.125,1.509,1.509,0,0,1,1.321,1.034Zm.459,8.271v-2.5c0-.775-.029-3.791-.057-4.365h-9.45a.619.619,0,0,0-.516.6c0,.115-.029,5.715-.029,6.261Zm0,8.817v-7.323h-10.052v7.323Z" transform="translate(-1340.797 -2914.012)" fill="#fd9e9e"/>
      </g>
    </g>
  </g>
</svg>
