<svg xmlns="http://www.w3.org/2000/svg" xmlns:xlink="http://www.w3.org/1999/xlink" width="40" height="40" viewBox="0 0 40 40">
  <defs>
    <clipPath id="clip-path">
      <rect width="40" height="40" fill="none"/>
    </clipPath>
  </defs>
  <g id="Phone" clip-path="url(#clip-path)">
    <rect id="長方形_320" data-name="長方形 320" width="40" height="40" fill="none"/>
    <path id="パス_110" data-name="パス 110" d="M23.214,28.571,27.5,24.643a1.312,1.312,0,0,1,1.071-.357l.714.357,10,4.643C40,29.643,40,30,40,30.714c-.357,2.857-1.071,5-2.857,6.429A10.231,10.231,0,0,1,29.643,40a21.761,21.761,0,0,1-10-2.5,46.818,46.818,0,0,1-10-7.143c-1.786-2.5-3.929-5-5.357-7.857A49.366,49.366,0,0,1,.714,14.643,21.978,21.978,0,0,1,0,7.857,9.385,9.385,0,0,1,2.5,2.5C3.929,1.071,6.071.357,9.286,0a1.855,1.855,0,0,1,1.429.714l5.357,10a1.247,1.247,0,0,0,.357.714,1.312,1.312,0,0,1-.357,1.071l-4.643,4.286a1.594,1.594,0,0,0,0,1.786c1.071,2.143,2.857,3.929,4.286,5.714a36.06,36.06,0,0,0,5.714,4.643C22.143,29.286,22.857,29.286,23.214,28.571Z" fill="#fff"/>
  </g>
</svg>
