<svg xmlns="http://www.w3.org/2000/svg" width="27.347" height="40" viewBox="0 0 27.347 40">
  <g id="グループ_991" data-name="グループ 991" transform="translate(-28.866 -394.216)">
    <path id="パス_911" data-name="パス 911" d="M50.539,481.089a3.157,3.157,0,0,1-1.562-1.633c-.425-.893-1.018-1.727-1.367-2.641-1.248-3.27-3.992-5.529-6.511-8.072-.185.308-.336.564-.491.818-2.11,3.449-4.211,6.9-6.336,10.342a2.017,2.017,0,0,1-2.658.826,1.6,1.6,0,0,1-.842-2.342c.549-1.262,1.057-2.542,1.687-3.771a42.985,42.985,0,0,0,3.291-9.893c.677-2.851,1.415-5.69,2.122-8.536.06-.24.089-.485.154-.851-1.276.359-2.436.663-3.573,1.026-.215.069-.382.354-.5.572-.68,1.294-1.289,2.62-2.031,3.884a2.246,2.246,0,0,1-1.254,1,1.353,1.353,0,0,1-1.69-1.8c.854-1.976,1.8-3.924,2.823-5.834a3.122,3.122,0,0,1,1.443-1.124c1.9-.856,3.839-1.649,5.782-2.424a4.094,4.094,0,0,1,1.554-.317c3.79.089,6.953.891,8.457,4.283a8.277,8.277,0,0,0,5.226,4.831,6.473,6.473,0,0,1,1.268.623,1.238,1.238,0,0,1,.525,1.686,1.51,1.51,0,0,1-1.8.641c-1.849-.714-3.726-1.394-5.486-2.262a7.8,7.8,0,0,1-1.832-1.779c-.27-.277-.511-.576-.9-1.013-.411,1.9-.658,3.626-1.182,5.28a3.209,3.209,0,0,0,.967,3.6,23.929,23.929,0,0,1,2.624,3.114,19.111,19.111,0,0,1,1.948,3.3c.8,1.8,1.434,3.665,2.135,5.5.629,1.648.46,2.079-1.145,2.963Z" transform="translate(0 -46.873)" fill="#fd9e9e"/>
    <path id="パス_912" data-name="パス 912" d="M101.637,394.255a3.879,3.879,0,0,1,2.1,1.194,4.045,4.045,0,0,1,.731,4.509,3.853,3.853,0,0,1-7.243-1.291,3.977,3.977,0,0,1,.76-2.859,4.145,4.145,0,0,1,1.609-1.227,3.712,3.712,0,0,1,1.139-.345A3.648,3.648,0,0,1,101.637,394.255Z" transform="translate(-56.54 0)" fill="#fd9e9e"/>
  </g>
</svg>
