<svg xmlns="http://www.w3.org/2000/svg" viewBox="0 0 153.04 72.56"><defs><style>.cls-1{fill:#221714;}</style></defs><g id="レイヤー_2" data-name="レイヤー 2"><g id="レイヤー_1-2" data-name="レイヤー 1"><path class="cls-1" d="M63.92,36.16a5.88,5.88,0,0,1,5.12-4c2.72,0,6.08,3,6.08,5.92,0,2.32-1.84,2.56-4.16,2.56-4.32,0-25.68-.32-30.56-.32.08,3.36.72,19.76.72,23.52,0,3.12,0,4.8-1.6,6.72a5.25,5.25,0,0,1-3.92,2c-1.68,0-3.92-1-3.92-4.56,0-.24,1-23.28,1.12-27.68-3.36.08-21.6.24-24.08.48-.8.16-4.64,1.52-5.6,1.52C1.28,42.32,0,41.2,0,39.76a5,5,0,0,1,4.4-4.48c.72,0,4.24.88,5,.88H32.88c.08-7.6.08-22,.08-22.88a8.87,8.87,0,0,0-.64-3.44c-1.84,0-10.8.08-12.8.08a15.19,15.19,0,0,0-3,.24,36.86,36.86,0,0,1-4.24,1.2c-1.76,0-2.88-.88-2.88-2.4C9.36,7,11,4.88,13,4.88c.56,0,2.88.72,3.44.72,30,0,33.28,0,40.08-.08a5.29,5.29,0,0,1,4.08-2.8c2,0,5.28,2.16,5.28,4.8,0,2.4-2.72,2.48-4.4,2.48-3,0-17.44-.16-20.72-.16a7.71,7.71,0,0,0-.4,2.56l-.08,23.76Zm-48.4-8.08c-2.56,0-4.88-1.12-4.88-3.36a3.77,3.77,0,0,1,3.76-3.6c.88,0,5,.72,5.92.72,1.12,0,6.48-.48,7.68-.48.48,0,1,.08,1,.56C29,23.44,21.36,28.08,15.52,28.08ZM57.76,22.8c-4.64,4-12.88,9-14.8,9-.24,0-.88-.08-.88-.48,0-1,3.84-5.6,4.56-6.64,5.92-8.88,6-9,8.16-9s4.56,2.16,4.56,4.16A4,4,0,0,1,57.76,22.8Z"/><path class="cls-1" d="M121.92,20.32c.4,7.52,1.44,14.32,5.36,25.36a61.7,61.7,0,0,0,5.44-15.36,3,3,0,0,1-.4-1.44c0-2.32,3.6-3.52,5.68-3.52,1.28,0,3.12.88,3.12,2.72,0,1.36-2.64,11.76-10.16,23,3.36,5.84,9.84,11.52,14.08,11.52a7.78,7.78,0,0,0,4.8-1.84,24.73,24.73,0,0,1,2.48-2c.4,0,.72.48.72,1.12a30.29,30.29,0,0,1-1.6,7.52c-1.2,3.44-3.52,4.8-5.92,4.8-3.76,0-12.16-4.08-19.2-16.24a33.82,33.82,0,0,1-21.84,11c-.72,0-2.56-.08-2.56-.8,0-.32.32-.48.56-.56,4.48-1.76,13.84-5.28,20.32-15-1.28-3.52-3.6-9.6-4.16-11.52A98.14,98.14,0,0,1,115,20.24c-3,0-17.2.08-20.48.08,0,1.68.08,10.08.08,12h9.92a3.75,3.75,0,0,1,3.44-2.4c2,0,4.24,1.36,4.24,3,0,.4-.72,2-.8,2.4-1,13.36-1.92,25-10.8,25a8.65,8.65,0,0,1-7.84-5.68A.21.21,0,0,1,93,54.4a9.67,9.67,0,0,1,1.44.4,13.66,13.66,0,0,0,3.2.4c6.24,0,6.64-11.2,7-19.44H94.48c-.08,8-.24,23.92-13.2,31.52a6.49,6.49,0,0,1-2.64,1.12c-.16,0-1,0-1-.64,0-.48,2.64-3.28,3.12-3.92,6.32-8.16,6.8-18.08,6.8-26.64,0-5-.08-13.2-.56-17.76a1.83,1.83,0,0,1-1.2-1.52c0-1.6,3.2-4.64,5.2-4.64a3.63,3.63,0,0,1,3.36,3.12h20l-.8-8.64c-.48-.32-1.68-1-1.68-2.16,0-2.4,3.68-5.6,6.32-5.6,3.44,0,3.44,2.4,3.44,3.36,0,.4-.16,7.92-.16,9.44,0,.8.08,2.16.16,3.6h17.28a5.46,5.46,0,0,1,4.4-3.44c2,0,5.76,2.56,5.76,5.2,0,2.08-2.72,2.16-4.72,2.16ZM138.64,7c-2.24,2-8.08,6.4-9.92,6.4-.56,0-1.28-.16-1.28-1s3.84-9,4.16-9.52A4.48,4.48,0,0,1,135.52.32c2,0,4.48,1.52,4.48,3.68A4.33,4.33,0,0,1,138.64,7Z"/></g></g></svg>