<svg xmlns="http://www.w3.org/2000/svg" viewBox="0 0 150.96 73.52"><defs><style>.cls-1{fill:#221714;}</style></defs><g id="レイヤー_2" data-name="レイヤー 2"><g id="レイヤー_1-2" data-name="レイヤー 1"><path class="cls-1" d="M75.36,27.28c1.28.32,3.44.88,3.44,1.28S71.12,34.32,69,34.32c-3.12,0-20.16-7.68-30.64-26.64-12.56,18.8-31.84,27.2-37,27.2-.48,0-1.36-.16-1.36-.72,0-.4.16-.48,2.4-1.84C14.56,25.28,29.28,10.8,31,4c.48-1.76,1-4,5.6-4,1.6,0,5,.64,5,3A4.05,4.05,0,0,1,40.88,5C48.72,16.48,64.24,24.48,75.36,27.28ZM53.6,37.52A4.74,4.74,0,0,1,57.52,35c1.84,0,5,1.28,5,3.52a3.66,3.66,0,0,1-.64,1.92v1.84c0,1.92.24,11.28.24,13.44,0,2.88,0,9.2-8.24,9.2-3.92,0-7.6-2.88-9.28-5,0-.24,0-.48.72-.48s3.68.4,4.4.4c3.92,0,4.72-2.24,4.72-5.12V42.32c0-.56-.08-1.28-.8-1.28H39.84a36.53,36.53,0,0,0-.16,4.64c0,4.08-.08,9,.08,13,0,1.28.24,7.68.24,9.2a5.75,5.75,0,0,1-5,5.68,4.14,4.14,0,0,1-3.68-4.16c0-1.36.48-8,.56-9.52.16-3,.32-8.16.32-15.52a16.14,16.14,0,0,0-.16-3.2H16.4c-.8,0-4.64,1.76-5.52,1.76-.72,0-2.56-.32-2.56-1.76S9.76,37.2,11.6,37.2c.24,0,1.6.32,1.92.32ZM43.68,24.88A4.16,4.16,0,0,1,47,22.64c1.68,0,4.48,1.84,4.48,3.92,0,1.76-1.68,1.84-3.52,1.84H30.08c-.8,0-4.4,1.36-5.28,1.36-1.12,0-2.64-.56-2.64-1.84a3.58,3.58,0,0,1,3.2-3.28c.32,0,1.68.24,2,.24Z"/><path class="cls-1" d="M91,36.16c.72-2.16,1.28-3.84,4.08-3.84,2.24,0,4.24,1.44,4.24,3,0,5.52-14.72,22.88-20.8,22.88-.48,0-.8-.16-.8-.64s.08-.56,1.12-1.68a55.11,55.11,0,0,0,4.56-5.44A58.66,58.66,0,0,0,91,36.16Zm9.28-12.8c0-4.08-.24-7.84-.4-9.52-2.4.24-15.36.08-15.36-2.24,0-.72,1.84-1,3.76-1.12C99.44,9.36,107.6,6.8,112.8,4.32a4.52,4.52,0,0,1,3.84-2.08c1.92,0,4.88,1.36,4.88,4,0,3.44-3.28,4.16-13.68,6.64a95.12,95.12,0,0,0-.4,10.48h4.4c.4-.8,1.44-2.64,3.52-2.64A4.63,4.63,0,0,1,119.6,25c0,1.68-1.44,2.08-3.36,2.08h-8.8v8.24c1.76,2.64,3.92,4.16,10.64,8.72,1.84,1.2,2,1.36,2,1.92,0,1.84-3.36,4.08-4.8,4.08s-2-.8-7.68-7.68c.32,7.92.48,15.76.48,23.68,0,6.24-5.44,6.24-5.52,6.24-3.36,0-3.36-2.08-3.36-2.8,0-.32.16-2.8.16-3.52.48-9,.8-21.44.88-30.4l.08-8.48c-3,.08-5.76.08-9,.08a4.7,4.7,0,0,0-2.4.4c-2.4.88-2.64,1-3.36,1a2,2,0,0,1-2.24-1.84c0-1.52,1.36-3.84,3.36-3.84.4,0,2.4.48,2.88.48Zm41.76-1.12A5,5,0,0,1,146.4,19c2.16,0,4.56,1.52,4.56,4,0,.4-1,2.48-1,3v3.28c0,3.52.48,20.72.48,24.64a3.8,3.8,0,0,1-1.12,3.28A6.51,6.51,0,0,1,145,59c-2.8,0-2.8-1.76-2.8-4.72h-12.8v4.32c0,2-3,3.84-5,3.84-2.56,0-2.56-2.24-2.56-4,0-4.24.48-25.2.48-29.92,0-2.08,0-2.32-.4-3-.8-1.12-.88-1.28-.88-1.76,0-1.6,3.28-4.4,5-4.4.56,0,3.36.64,3.52,2.8Zm.24,28.64c0-10.64.08-14.72.08-25.2H130.88a1.55,1.55,0,0,0-1.36.56c-.4.72-.16,20.72-.24,24.64Z"/></g></g></svg>