<svg xmlns="http://www.w3.org/2000/svg" viewBox="0 0 146.4 70"><defs><style>.cls-1{fill:#221714;}</style></defs><g id="レイヤー_2" data-name="レイヤー 2"><g id="レイヤー_1-2" data-name="レイヤー 1"><path class="cls-1" d="M17.52,10.64c1.84-1.92,3.36-2.08,3.92-2.08,1.52,0,3.68,1.28,3.68,3a3.52,3.52,0,0,1-.56,1.76c-.08,1.2-.24,8.08.08,20.08.08,3.28.4,15.36.4,17.92,0,2.88-3.76,4.08-5.12,4.08-2.24,0-2.24-1.2-2.24-3.6H7.84v4.08c-.16,1.76-2.8,3-4.32,3C.64,58.88.64,57.2.64,56c0-.8.24-4.48.32-5.28.16-3.84.48-19.44.48-25.92V23.12c0-1.2-.16-7.28-.16-8.64A2.14,2.14,0,0,1,0,12.72C0,10.88,3.68,8.4,5.36,8.4a2.92,2.92,0,0,1,2.88,2.24Zm.16,18.56V14H8.88c-1,0-1,.88-1,2.48,0,1.12-.08,10.72-.08,12.72Zm0,19.28V32.32H7.84V48.48ZM60.24,6.56a5.29,5.29,0,0,1,4-2.4A4.67,4.67,0,0,1,69,8.64c0,.56-.08.64-.64,1.76a4.14,4.14,0,0,0-.4,1.68C67,21,65.68,34.8,56.48,34.8c-5,0-9.2-4.88-9.2-5.84,0-.32.4-.32.8-.32.16,0,1.36.32,1.68.4a19.43,19.43,0,0,0,3.36.32c6.4,0,7.92-13.76,7.92-18a6.18,6.18,0,0,0-.16-1.2c-1.36,0-8.08.08-9.6.08C50.4,17.36,40.8,32.32,26.56,32.32c-.32,0-1-.08-1-.56s.56-.64,1.44-1.12a27.38,27.38,0,0,0,5.2-2.88c9.28-6.48,12.08-15.76,12.08-17,0-.48-.24-.48-.56-.48-2.48,0-5.92.08-8.32.24-.64.08-3.52,1.2-4.24,1.2s-2.56-.32-2.56-1.84S30,6.16,31.92,6.16c.32,0,1.92.32,2.24.32,1.12.08,11.12.08,12.56.08ZM56.32,41a4.34,4.34,0,0,1,4-2.56c1.84,0,4.56,1.6,4.56,3.36a3.83,3.83,0,0,1-.72,1.92l.4,14.48c0,1,.24,6.24.24,7.36,0,3-4.08,3.6-5.36,3.6-2.64,0-2.64-1.12-2.64-4.88H38.56c-.08,1.28-.24,5.12-4.4,5.12-1.6,0-2.88-.72-2.88-2.4,0-3.28.4-19.28.4-22.88-.48-.24-1.28-.64-1.28-1.28,0-1.76,3.28-4.24,5.44-4.24,1.92,0,2.48,1.6,2.8,2.4ZM56.8,60.8V44.24H39.36c-.56,0-.8.24-.8.8V60.8Z"/><path class="cls-1" d="M86.48,33.92c.72-2.16,1.28-3.84,4.08-3.84,2.24,0,4.24,1.44,4.24,3C94.8,38.64,80.08,56,74,56c-.48,0-.8-.16-.8-.64s.08-.56,1.12-1.68a55.11,55.11,0,0,0,4.56-5.44A58.66,58.66,0,0,0,86.48,33.92Zm9.28-12.8c0-4.08-.24-7.84-.4-9.52C93,11.84,80,11.68,80,9.36c0-.72,1.84-1,3.76-1.12C94.88,7.12,103,4.56,108.24,2.08A4.52,4.52,0,0,1,112.08,0C114,0,117,1.36,117,4c0,3.44-3.28,4.16-13.68,6.64a95.12,95.12,0,0,0-.4,10.48h4.4c.4-.8,1.44-2.64,3.52-2.64A4.63,4.63,0,0,1,115,22.72c0,1.68-1.44,2.08-3.36,2.08h-8.8V33c1.76,2.64,3.92,4.16,10.64,8.72,1.84,1.2,2,1.36,2,1.92,0,1.84-3.36,4.08-4.8,4.08s-2-.8-7.68-7.68c.32,7.92.48,15.76.48,23.68C103.52,70,98.08,70,98,70c-3.36,0-3.36-2.08-3.36-2.8,0-.32.16-2.8.16-3.52.48-9,.8-21.44.88-30.4l.08-8.48c-3,.08-5.76.08-9,.08a4.7,4.7,0,0,0-2.4.4c-2.4.88-2.64,1-3.36,1a2,2,0,0,1-2.24-1.84c0-1.52,1.36-3.84,3.36-3.84.4,0,2.4.48,2.88.48ZM137.52,20a5,5,0,0,1,4.32-3.2c2.16,0,4.56,1.52,4.56,4,0,.4-1,2.48-1,3V27c0,3.52.48,20.72.48,24.64A3.8,3.8,0,0,1,144.8,55a6.51,6.51,0,0,1-4.4,1.84c-2.8,0-2.8-1.76-2.8-4.72H124.8V56.4c0,2-3,3.84-5,3.84-2.56,0-2.56-2.24-2.56-4,0-4.24.48-25.2.48-29.92,0-2.08,0-2.32-.4-3-.8-1.12-.88-1.28-.88-1.76,0-1.6,3.28-4.4,5-4.4.56,0,3.36.64,3.52,2.8Zm.24,28.64c0-10.64.08-14.72.08-25.2H126.32A1.55,1.55,0,0,0,125,24c-.4.72-.16,20.72-.24,24.64Z"/></g></g></svg>