<svg xmlns="http://www.w3.org/2000/svg" viewBox="0 0 148 70"><defs><style>.cls-1{fill:#221714;}</style></defs><g id="レイヤー_2" data-name="レイヤー 2"><g id="レイヤー_1-2" data-name="レイヤー 1"><path class="cls-1" d="M56.48,22.72c1.36-3,3.6-4.32,5.12-4.32,2.64,0,6.16,3.12,6.16,6a2.28,2.28,0,0,1-1.92,2.32C64.4,27,42.16,27,37.76,27,42.08,44.24,54,56.88,69.52,64c1.6.72,1.76.8,1.76,1.2C68.4,66.88,61.52,70,59.12,70,54.88,70,49,62.24,47.84,60.72A56.87,56.87,0,0,1,36.16,28.08L36,28C35.68,55.76,13.84,68.32,1.6,68.32c-.56,0-1.6,0-1.6-.8C0,67,.32,67,2.16,66.24c1.12-.48,3.44-1.36,4.16-1.76C26.16,54.24,28.08,35,28.8,27.12H10.88c-1,0-6,1.68-7.2,1.68a2.4,2.4,0,0,1-2.16-2.64,3.82,3.82,0,0,1,4-4.16c.88,0,4.8.72,5.68.72H29.12V10.24a3.92,3.92,0,0,0-.72-2.32c-.72-1.12-1.2-1.76-1.2-2.24C27.2,3.6,31.76,0,34.32,0c3.36,0,3.52,2.16,3.52,4,0,.48-.16,2.56-.24,3-.08,2.24-.32,13.2-.48,15.68Z"/><path class="cls-1" d="M136.24,61c1.12-2.48,3.76-4,5.2-4,2.24,0,6.56,2.8,6.56,5.6,0,2.4-2.32,2.56-3.52,2.56H85c-.8,0-4.4,1.12-5.28,1.12a2.46,2.46,0,0,1-2.56-2.16,3.9,3.9,0,0,1,3.76-3.6c.64,0,3.52.48,4.16.48h8.24c0-4.16-.24-25-.24-26.24-.08-.72-.16-2.16-.48-2.4-1-.64-1-.64-1-1.2,0-1.84,4.32-4.88,6.48-4.88.08,0,3.28.08,3.28,2.56,0,.32-.24,2-.32,2.4-.24,1.76-.24,2.4-.24,7.68,0,.88-.24,21.44-.24,22.08a85.19,85.19,0,0,0,9,0c.16-12.16.24-16.16.24-32.72,0-7.28-.24-11.92-.32-14-2.32,0-13.68.08-16.24.08-2.72,0-3,0-3.68.24a35.59,35.59,0,0,1-3.6,1,2.38,2.38,0,0,1-2.48-2.24A3.62,3.62,0,0,1,87,9.76c.64,0,3.76.48,4.48.48h39.84c1-2,3.68-3.84,5.36-3.84,2.4,0,6.08,2.72,6.08,5.52,0,1.76-1.92,2.4-3.84,2.4H117.44c-.24,5.12-.32,7.76-.32,19.36,2.8,0,4.24-.08,9.44,0,.8-2.16,2.8-3.68,4.32-3.68,2.24,0,5.84,2.08,5.84,4.8,0,1.6-1.6,2.64-3.12,2.64H117.12c0,3.36.08,19.84.08,23.6Z"/></g></g></svg>