<svg xmlns="http://www.w3.org/2000/svg" viewBox="0 0 542.32 65.6"><g id="レイヤー_2" data-name="レイヤー 2"><g id="レイヤー_1-2" data-name="レイヤー 1"><path d="M35.12,40.16c0,3.2.24,17.52.24,20.4,0,1.12,0,5-2.64,5s-4.16-4-4.16-5.92a51.6,51.6,0,0,1,1.28-5c.8-4.56,1.28-16.64,1.28-24.32,0-3.68-.56-4.56-.88-5.12C25.6,29.28,18.08,36,4.32,39.28a26.29,26.29,0,0,1-3.76.64c-.32,0-.56-.08-.56-.32s1.12-.64,1.28-.72c.56-.32,3-1.36,3.52-1.6C22.4,29.52,33.84,14.64,35,10.8c.72-2.4,1.36-4.56,4.24-4.56A3.44,3.44,0,0,1,43,9.44c0,4-6.8,10.48-11.68,15,2.48.4,4.56,1.68,4.56,3.12,0,.4-.72,2.24-.72,2.64Z"/><path d="M103.12,28.88c-1.52,0-1.68-.24-3.6-2.72-2.32-3-5.12-4.4-10-6.8C89,19.12,89,19,89,18.88c0-.4,2.56-.48,3-.48,4.4,0,14.8,1.44,14.8,7.44C106.72,28.8,103.52,28.88,103.12,28.88ZM112,51.36c-4.64,3.2-13.12,8.4-17.36,8.4-2,0-4.88-2.16-4.88-4.56,0-1.44,1-1.44,1.6-1.44,3.76,0,6.8,0,16.4-6.16,12.24-7.92,24.8-19.92,28.88-25.68.56-.8,2.08-3,2.48-3s.64.08.64.8C139.76,22.08,130.56,38.64,112,51.36Z"/><path d="M181.12,17.2c2.08,0,11.12-.48,13-.56,4.64-.08,5-.4,6-1,2.64-1.76,3-2.08,4.48-2.08A3.88,3.88,0,0,1,208.4,17c0,.8-.72,2-1.92,4.08-.16.24-3.92,8.64-4.72,10.24a38.24,38.24,0,0,1-4.4,7.2c11.36,2.08,21,10.24,21,16.08,0,.56,0,4.48-2.72,4.48-1.92,0-2.56-1.28-4.72-5.2A36.26,36.26,0,0,0,196.64,39.6c-4,5-10.72,13.36-26.72,19.68a42.79,42.79,0,0,1-9,2.64c-.48,0-1-.16-1-.56a.66.66,0,0,1,.56-.64,112.29,112.29,0,0,0,14.24-7c21.52-14,25.84-32.48,25.84-33.84,0-.88-.64-1-1.52-1-2.8,0-17.28,1.44-19.36,2.32-3.44,1.52-3.84,1.6-4.72,1.6a1.75,1.75,0,0,1-1.92-2c0-2.8,1.44-3.6,3.92-3.6Z"/><path d="M275.2,20.16c.72,0,4.16.08,13.12-3.36a11.83,11.83,0,0,1,3.76-1c1.52,0,3.68.64,3.68,3,0,1-.32,1.52-1.84,3.68-.16.24-3,5.2-3.52,6.08a125.59,125.59,0,0,1-9.28,13c2,1.36,7.44,5,7.44,9a2.28,2.28,0,0,1-2.4,2.48c-1.44,0-1.84-.56-3.6-2.88A33.09,33.09,0,0,0,278,45,59.24,59.24,0,0,1,256,60.4c-2.8,1.12-9.84,3.76-14.72,3.76-.32,0-1.6,0-1.6-.48s.48-.48,3.92-1.44a60.94,60.94,0,0,0,13.12-5.92,70.3,70.3,0,0,0,17.12-14.24,32.5,32.5,0,0,0-6.24-4.16,7.4,7.4,0,0,1-2.4-1.68c0-.24.24-.48.72-.48,1.44,0,6.08,1.2,10.56,3.2C280.4,34.24,287,24.72,287,21.6c0-.88-.88-1-1.52-1-1.68,0-9,1.84-10.56,1.84a4.89,4.89,0,0,1-3.2-1.28C259.52,36.64,249,37.84,248.4,37.84c-.16,0-.8-.08-.8-.32s5.28-3.76,6.24-4.48C263,25.6,269.2,16.8,270.4,12.4c.8-2.72,1-3.44,2.48-3.44,1.92,0,3.84,1.76,3.84,3.36s-.4,2-3.68,6.48A2.17,2.17,0,0,0,275.2,20.16Z"/><path d="M333.76,37.28a15.4,15.4,0,0,1-4.4,1c-.32,0-.56-.08-.56-.32a32.43,32.43,0,0,1,3.84-2.48c15.28-10.8,19.52-22.24,19.68-24.16.08-1.36,1-1.84,2.4-1.84,1.6,0,3.52,1.44,3.52,3.2s-2.48,5.36-3.52,6.8a2,2,0,0,0,2.08,1c2.64,0,6.16-1,10.4-2.32,1-.32,5.28-2.16,6.16-2.16a3.5,3.5,0,0,1,3.76,3.52c0,1,0,1.12-2,4-.8,1-3.68,6.16-4.24,7.12-4.24,6.88-17.2,26.72-40.88,32.72a34.83,34.83,0,0,1-8,1.2c-.24,0-.8,0-.8-.4s.32-.48,3.12-1.2c7.6-2,17-7.6,23.84-13.44,11-9.36,20.32-23.92,20.32-27.44,0-.8-.4-1-1.2-1a17,17,0,0,0-3.6.48c-5.12,1.28-5.92,1.44-7.36,1.44a4.51,4.51,0,0,1-3-1.36C348.08,28.4,341.84,34.56,333.76,37.28ZM372.4,5.12c2.8,0,10.16,2.64,10.16,6.88,0,1.6-.88,2.24-2,2.24-.88,0-1.12-.32-3.44-3.28a23.94,23.94,0,0,0-4.72-4.72c-.16-.08-1.12-.64-1.12-.88S371.52,5.12,372.4,5.12ZM388.48,9.2c-1,0-1.28-.32-3-2.8A20.63,20.63,0,0,0,379.76,1c-.24-.16-.64-.4-.64-.72s.72-.24.8-.24c3.6,0,10.72,2.56,10.72,6.72A2.19,2.19,0,0,1,388.48,9.2Z"/><path d="M454.8,22.24a3.75,3.75,0,0,1,4,3.68,4.69,4.69,0,0,1-1.92,3.28c-4.88,15.2-13,25.6-26.24,32-2.48,1.2-11,4.4-15.6,4.4-.32,0-.72-.08-.72-.4s.16-.32,2-.88c7.76-2.24,15-7.84,16.16-8.72C447.76,43.84,451,29.36,451,28c0-.8-.8-1.12-2.4-1.12-3.92,0-21,1.2-27,3.12a25.84,25.84,0,0,1-3.92,1.44c-1.52,0-1.84-1-1.84-2,0-1.44.72-3.52,2.64-3.52.48,0,2.88.16,3.36.16,4.32,0,21.44-1.2,27.76-1.92C451.36,23.2,453.28,22.24,454.8,22.24ZM448.72,8.8c1.68,0,4.4,1,4.4,3.36,0,1.36-.4,1.28-7,1.6-4.24.16-16.16,1.12-19.44,2.24-.48.16-3,1-3.2,1-1,0-1.36-.56-1.36-1.44,0-3.36,1.92-3.52,4.48-3.52a140.85,140.85,0,0,0,18.8-1.52A5.66,5.66,0,0,1,448.72,8.8Z"/><path d="M503.36,56.32c-.8.16-4.88,1.2-5.44,1.2A4.71,4.71,0,0,1,493.36,53a1.54,1.54,0,0,1,1.52-1.68c.32,0,4.88-.4,7.28-.56,5-8.56,12.24-25.76,12.48-29.36.24-2.72.56-5.92,4.24-5.92a2.94,2.94,0,0,1,3.2,2.88c0,1.6-.8,3.28-2.48,6.48-4.48,8.64-9.12,17.28-14.4,25.52a240.24,240.24,0,0,0,28.16-4.64,53.45,53.45,0,0,0-5.68-9.44,2.47,2.47,0,0,1-.56-1.12c0-.32.4-.32.48-.32,2.8,0,14.72,9.44,14.72,18.24,0,1.92-.72,4.64-3.12,4.64-1.12,0-2-.56-2.56-2.64a50.36,50.36,0,0,0-2.72-7.84C525.36,50.56,519.76,52.24,503.36,56.32Z"/></g></g></svg>