<svg xmlns="http://www.w3.org/2000/svg" viewBox="0 0 519.12 67.92"><defs><style>.cls-1{fill:#221714;}</style></defs><g id="レイヤー_2" data-name="レイヤー 2"><g id="レイヤー_1-2" data-name="レイヤー 1"><path class="cls-1" d="M43,12.32a3.68,3.68,0,0,1,3.84,3.52c0,.72-.24,1.28-1.28,3.12-.32.56-2.32,7.2-2.8,8.48A54.45,54.45,0,0,1,.64,62.32c-.24,0-.64-.08-.64-.24s.56-.48,3.6-1.76C31.2,49,38.8,23.2,38.8,19.6c0-1.36-1.2-1.36-2.4-1.36-10.56,0-26.8,2.4-27.28,2.56C8.08,21,3.52,23,2.48,23S1,22.08,1,21c0-4,3.12-4.08,4.4-4.08.56,0,3.12.16,3.68.16,2.64,0,18.8-.64,28.4-1.68C39.2,13.68,40.64,12.32,43,12.32Z"/><path class="cls-1" d="M78.16,26.4c4.56,0,16.56,1.2,16.56,6.64,0,2.24-2.16,2.8-3.28,2.8-1,0-1.28-.24-3.76-2.4a35,35,0,0,0-8.56-5.2c-.4-.16-2.32-.88-2.32-1.28S77.44,26.4,78.16,26.4ZM109,46.8C97,57,87.68,60.8,84.32,60.8a4.67,4.67,0,0,1-4.4-4.4c0-1.68,1.2-1.68,2.48-1.68,3.52,0,5.76,0,15-6.08,6.08-3.92,21.52-15.36,30.88-27.28.64-.88,1.68-2.16,2-2.16.56,0,.56.64.56.8C130.88,22.08,122.56,35.36,109,46.8Zm-13.28-25c-1,0-1.28-.24-4.24-2.8a39.64,39.64,0,0,0-6.08-4c-.72-.32-4.4-1.84-4.4-2.16,0-.56.88-.56,1.2-.56C87.6,12.32,99,13.52,99,19,99,21.52,96.4,21.84,95.76,21.84ZM116,5.2c3.28,0,10.48,2.72,10.48,6.88,0,1.36-.64,2.16-2,2.16-1.12,0-1.44-.48-3-2.56a23.55,23.55,0,0,0-4-4.32c-.4-.32-2.24-1.68-2.32-1.84C115.12,5.2,115.84,5.2,116,5.2ZM124,0c2.4,0,10.4,2.24,10.4,6.72a2.19,2.19,0,0,1-2.16,2.48c-1,0-1.2-.24-2.88-2.72a22.79,22.79,0,0,0-5-4.88C123,.48,122.8.4,122.8.32,122.72,0,123.84,0,124,0Z"/><path class="cls-1" d="M182.16,18.56c.72,0,4.16.08,13.12-3.36a11.83,11.83,0,0,1,3.76-1c1.52,0,3.68.64,3.68,3,0,1-.32,1.52-1.84,3.68-.16.24-3,5.2-3.52,6.08a125.59,125.59,0,0,1-9.28,13c2,1.36,7.44,5,7.44,9a2.28,2.28,0,0,1-2.4,2.48c-1.44,0-1.84-.56-3.6-2.88a33.09,33.09,0,0,0-4.56-5.2A59.24,59.24,0,0,1,163,58.8c-2.8,1.12-9.84,3.76-14.72,3.76-.32,0-1.6,0-1.6-.48s.48-.48,3.92-1.44a60.94,60.94,0,0,0,13.12-5.92A70.3,70.3,0,0,0,180.8,40.48a32.5,32.5,0,0,0-6.24-4.16,7.4,7.4,0,0,1-2.4-1.68c0-.24.24-.48.72-.48,1.44,0,6.08,1.2,10.56,3.2,3.92-4.72,10.48-14.24,10.48-17.36,0-.88-.88-1-1.52-1-1.68,0-9,1.84-10.56,1.84a4.89,4.89,0,0,1-3.2-1.28C166.48,35,155.92,36.24,155.36,36.24c-.16,0-.8-.08-.8-.32s5.28-3.76,6.24-4.48C169.92,24,176.16,15.2,177.36,10.8c.8-2.72,1-3.44,2.48-3.44,1.92,0,3.84,1.76,3.84,3.36s-.4,2-3.68,6.48A2.17,2.17,0,0,0,182.16,18.56Z"/><path class="cls-1" d="M257.68,18.4c0-.48.32-.48.56-.48,2.08,0,3.12,3,3.12,6,0,11-16.8,31-24.56,31-2,0-2.88-2-3.12-2.56s-1.12-3-1.44-3.44c-2-4.16-2.24-4.64-2.24-6.64,0-13.44,13.36-30.8,33.92-30.8,13.52,0,24.48,9,24.48,23.76,0,20.8-19.12,27.44-27,27.44-.24,0-.56-.08-.56-.32s1.92-1,2.72-1.28c7.6-2.72,19-10.88,19-26.4,0-12.64-7.84-21-20.56-21-14.8,0-27.28,15.36-27.28,29,0,.8,0,6.4,2.72,6.4,5.44,0,20.56-18.24,20.56-27.36C258.08,21.28,257.68,18.48,257.68,18.4Z"/><path class="cls-1" d="M343.36,27.28c12.72,0,19.36,7,19.36,16.08,0,5.28-2.56,14.8-14,20.48a43.18,43.18,0,0,1-13.52,4.08c-.72,0-1.12-.16-1.12-.64s1.6-.88,2.8-1.28C351,61.68,356.8,50.64,356.8,42.32c0-6.56-4.8-13.52-17.52-13-.4,3.2-1.12,9.84-10,21.68a6.53,6.53,0,0,0,.88,2.24c1,1.76,1.12,1.92,1.12,2.4,0,1-.48,4-2.08,4-1.44,0-2.64-3.12-3-5.76-7,8.32-12.48,8.32-13.28,8.32a6.29,6.29,0,0,1-5.76-6.64c0-4.72,2.24-13.36,17.68-22.88.08-1.92.16-4.16.8-12.16a26.39,26.39,0,0,1-5.84.8c-2.64,0-5.84-.32-5.84-4.16,0-.24.08-.32.16-.32a17,17,0,0,1,2.16.64,11.32,11.32,0,0,0,2.32.16,28.72,28.72,0,0,0,7.28-.8c.08-1.6.8-13.6.88-13.84.16-.8.4-1,1.12-1,2.48,0,4.64,1.68,4.64,3.92,0,.48-1,3.6-1.2,4.48a45.61,45.61,0,0,0-1.52,6c1.76-.48,5.52-2,6.4-2.8,2.32-2.08,2.64-2.32,3.84-2.32,3.92,0,4.4,1.84,4.4,2.56,0,2.72-10.8,5.2-15,6.08a111.66,111.66,0,0,0-1.28,11.44,41.91,41.91,0,0,1,8.88-3.2,5.12,5.12,0,0,0-.08-1.76c0-.08-.24-.72-.24-.88a.62.62,0,0,1,.64-.56c.72,0,2,.56,2.08,2.72A14,14,0,0,1,343.36,27.28Zm-18.72,8.08c-8.16,5.76-13.12,13.12-13.12,18.08,0,1.68.48,3.92,2.72,3.92,3,0,7.28-3,10.88-7.6A107.89,107.89,0,0,1,324.64,35.36Zm3.44-1.84c-.32,3.28-.32,6.64-.32,7a46.63,46.63,0,0,0,.48,6.4c5.68-7.76,7.44-12.48,8.4-17A31.79,31.79,0,0,0,328.08,33.52Z"/><path class="cls-1" d="M439.28,32a18,18,0,0,1-7.92,14.88c-5.36,3.68-9.36,3.6-13.2,3.6C415.12,62.32,408.24,67,406,67c-.16,0-.48,0-.48-.24,0-.08,2.32-2.72,2.8-3.28a37.72,37.72,0,0,0,5.92-14c-7-2.56-7-9.84-7-10.88,0-.32,0-1,.32-1s.32.24,1.12,2.64c1,3.2,2.8,5.6,6,6.16.64-3.2,1.36-7.44,1.36-19,0-2.56,0-4.64-.24-7.2C399.68,24,390.4,43.68,390.4,50.64c0,1.76,0,3-1.68,3-.64,0-6.4-1.28-6.4-18.4,0-1.84.56-9.84.56-11.44a2.64,2.64,0,0,0-.32-1.68,4.4,4.4,0,0,1-.56-.72c0-1.2,3.44-2.08,4.4-2.08.4,0,2.08,0,2.08,1.68,0,.48-.72,3-.8,3.36a59.77,59.77,0,0,0-1.84,13.92c0,2.8.48,5.92,1.44,5.92.72,0,1-.4,3.28-4.24,9-14.88,14.56-19.12,25-22.08-.24-4.56-.72-11.28-4.32-11.76C409,5.84,409,5.84,409,5.52c0-1,2.24-1.84,4.16-1.84,6.88,0,7.12,7.52,7.36,13.44C430,16.24,439.28,20.56,439.28,32Zm-5.52-.8c0-5.12-2.08-10.64-9.84-11.52a16.54,16.54,0,0,0-3.36-.08c.16,2.88.16,3.6.16,5.68A106.14,106.14,0,0,1,419,46.8C432.4,45.28,433.76,34.64,433.76,31.2Z"/><path class="cls-1" d="M513.84,46.08a6.11,6.11,0,0,1,5.28,6.32c0,1.84-2.16,1.84-2.24,1.84a2.43,2.43,0,0,1-1.36-.48c-4.56-2.8-11.36-7-13.6-8.4C499.28,51.68,494.8,61.2,481,65.6a14.87,14.87,0,0,1-5.52,1c-.08,0-2,0-2-.64,0-.24.16-.32,1.92-.88,4.16-1.44,16.16-5.6,21.92-21.52-4.16-1.6-11.76-4.4-20.48-4.4a20.23,20.23,0,0,0-2.24.08C468.4,51.68,466,54.32,460.72,54.32c-3.76,0-7.12-1.92-7.12-5.84,0-3.68,5-10.08,18.8-11.6,3.28-6.16,11.44-21.52,11.44-25.2,0-.32-.16-1.2-1-1.2-1.36,0-4.56,1.44-5.44,1.84-5,2.4-5.44,2.64-6.64,2.64a5,5,0,0,1-4.88-4.56c0-.4.08-.72.56-.72.16,0,2.8.32,3.28.32,3,0,11.6-1.52,15-3.28,1.92-1,2.32-1.2,3.44-1.2a3.47,3.47,0,0,1,3.52,3.36c0,1.12-.32,1.6-3.2,6-4.32,6.64-8.56,14.4-12.64,21.76,4.64-.08,10-.24,22.32,3.44a18.92,18.92,0,0,0,1-5.36,3.25,3.25,0,0,0-.8-2.16,20.48,20.48,0,0,1-1.28-2c0-1,1.6-1,1.92-1,2.88,0,5.36,1.36,5.36,5A25,25,0,0,1,503,41.92C511.76,45.68,512.16,45.76,513.84,46.08Zm-55.44,2.4a2.12,2.12,0,0,0,2.24,2.32c4.56,0,8.32-6.88,11-11.68C463.6,40.32,458.4,44.16,458.4,48.48Z"/></g></g></svg>