<svg xmlns="http://www.w3.org/2000/svg" viewBox="0 0 597.68 68.64"><defs><style>.cls-1{fill:#221714;}</style></defs><g id="レイヤー_2" data-name="レイヤー 2"><g id="レイヤー_1-2" data-name="レイヤー 1"><path class="cls-1" d="M43.76,13a5,5,0,0,1,5,4.64,4,4,0,0,1-1,2.48,8.48,8.48,0,0,0-1.2,2.32c-2,6.24-2.32,7.44-4.24,11.28-13,26.56-39.92,28.88-41,28.88-.48,0-1.36,0-1.36-.8,0-.48.32-.64,3-1.68C33,47.92,38,23.36,38,21c0-.64-.16-1-.8-1-.08,0-22.24,1.36-26.88,2.64-.72.16-4.24,2-5,2s-2.64,0-2.64-2.56c0-.88,0-4.72,4.72-4.72.8,0,5,.24,5.92.24,3.68,0,14.08-.08,25-1.12C40.4,14,41.36,13,43.76,13Z"/><path class="cls-1" d="M90.88,36.88c-1.52,0-2-.4-4.4-2.48a33.11,33.11,0,0,0-7.92-4.88c-2.56-1.2-2.88-1.36-2.88-1.68,0-.88,2.4-1,2.8-1,4.48,0,16.8,1.2,16.8,6.88C95.28,36.16,92.4,36.88,90.88,36.88ZM109.2,47.6c-7.92,7-19.84,14.48-25,14.48-4.64,0-6.24-5-6.24-6.64,0-.32,0-2,1.68-2,.4,0,2.64.48,3.12.48,7.12,0,27.68-14.48,41.12-29.44,3.6-4.08,4-4.56,4.64-4.56a1.13,1.13,0,0,1,1.2,1.2C129.76,23.28,121.36,36.8,109.2,47.6ZM95,23.6c-1.76,0-2.72-.88-3.84-1.92a33.51,33.51,0,0,0-8.8-5.92c-1.92-.72-2.64-1-2.64-1.44,0-1,3.76-1.36,5.84-1.36,3.84,0,13.76,1.36,13.76,7.28C99.36,22.56,96.88,23.6,95,23.6Zm27.76-6.88c-1.52,0-1.6-.08-4.16-3.6-2.88-3.84-5-5.28-5.28-5.44-.64-.24-1.36-.56-1.36-1S113.12,6,113.92,6c4.4,0,11.92,2.48,11.92,7.36C125.84,14.8,125.12,16.72,122.8,16.72Zm9-5.2c-1.84,0-2.64-1.12-3.36-2.24a27.54,27.54,0,0,0-6.56-6.72c-1.2-.88-1.28-.88-1.28-1,0-.4.64-.8,1.76-.8,3.52,0,12.48,2.4,12.48,7.44C134.88,9.12,134.64,11.52,131.84,11.52Z"/><path class="cls-1" d="M177.36,18.8c1.12,0,4.8-.4,11.44-3a11.43,11.43,0,0,1,4.24-1c2.16,0,5,.88,5,3.6a4.57,4.57,0,0,1-1.68,3.6,51,51,0,0,0-3.76,6,132.09,132.09,0,0,1-7.84,11.84c2.64,1.76,8.32,5.84,8.32,9.44,0,1.28-.8,3.68-3.28,3.68-1.84,0-2.48-.72-4.56-3.12a60.65,60.65,0,0,0-5.28-5.2c-12.8,13.2-29.12,17.52-35.44,17.52-.48,0-2.72,0-2.72-1,0-.4.4-.56,4.32-1.76,9-2.88,18.8-8.32,28.56-18.72a40.44,40.44,0,0,0-7.76-5.28c-.88-.48-1.12-.56-1.12-.88,0-.64,1.12-.64,1.36-.64a29.22,29.22,0,0,1,11.12,2.88c4.64-6.8,9-13.28,9-15.84,0-.48-.08-.64-.64-.64a12.81,12.81,0,0,0-3.2.48c-4.72,1.2-5.28,1.36-6.56,1.36-.32,0-2.08,0-2.72-1.12C167,31.12,156.24,36.8,150.88,36.8c-.32,0-1.6,0-1.6-.64,0-.16.08-.24.24-.32,15.12-9.52,21.36-21.28,22.16-24.64.56-2.48.8-3.28,3-3.28s5.2,1.84,5.2,4.32c0,1.28-.72,2.24-1.68,3.36a6.17,6.17,0,0,0-1.52,2.24C176.56,18.48,176.64,18.8,177.36,18.8Z"/><path class="cls-1" d="M221.52,42.48c0-13,13-30.24,34-30.24,13,0,25.36,7.6,25.36,23,0,23.28-23.68,27.92-28.56,27.92-1.2,0-1.28-.4-1.28-.72,0-.64,1-.88,1.44-1.12a48,48,0,0,0,6.8-3.36c6.32-4,13.28-11,13.28-22.72s-6.72-19.84-18.64-19.84c-4.16,0-8,.8-13,4.64-6.48,5-12.24,13.6-12.24,22.88,0,1.2.24,5.52,1.68,5.52,4.32,0,18.4-16.48,18.4-25.76,0-.48-.4-2.8-.4-3.36s.56-1,1.6-1c2.88,0,4.4,3.36,4.4,7,0,10.64-16.24,30.08-25,30.08a4.28,4.28,0,0,1-4.4-3.6,6.73,6.73,0,0,0-1.44-3.84A9.91,9.91,0,0,1,221.52,42.48Z"/><path class="cls-1" d="M313.6,37c0-3.12,0-5.28-.08-8.08A30.27,30.27,0,0,1,305,30.32c-5,0-7.36-2.88-7.36-3.6a1.11,1.11,0,0,1,1.12-1.2c.48,0,2.56.64,3.12.64a35,35,0,0,0,11.36-2c-.08-2.32-.16-8.08-.24-10.24-.08-.88-.4-4.88-.4-5.84a2.26,2.26,0,0,1,2.24-2.32c2.16,0,6.08,1.6,6.08,4.16a3.53,3.53,0,0,1-.4,1.44c-.56,1.44-1,7.92-1.2,11.12A21.86,21.86,0,0,0,323,20c1.92-1.44,2.56-1.84,3.44-1.84,1.84,0,4.4,1.12,4.4,3.44,0,1.28,0,2.56-11.76,6.56-.08,3.92-.08,7-.08,10.16a29.52,29.52,0,0,1,15.2-4.48c8.24,0,13.84,4.4,13.84,11.36,0,8.48-7.28,13.92-14.64,13.92-5.36,0-12.56-7.12-12.56-8.32,0-.4.32-.64,1-.64a3.66,3.66,0,0,1,1,.64c4.48,2.24,7,3,9.2,3,4.64,0,8.24-2.8,8.24-8.88,0-5.36-3.2-7.52-7.52-7.52-3.44,0-7.84.88-13.52,4.48,0,1.52.32,8.8.32,10.48,0,2.56,0,9.12-5.92,9.12-1.6,0-1.84-.32-3.2-2s-2.72-2.64-6.08-4.72c-.88,1.6-2.24,3.92-4.88,3.92a5.43,5.43,0,0,1-5-5.12c0-1.28,1.28-1.68,2.08-1.68a6.66,6.66,0,0,1,1.76.24c9.28-7.36,10.32-8.16,15.28-11.52Zm-1.52,18.24c1.52,0,1.52-1.6,1.52-3.12,0-1,.16-6.4.16-7.6a54.48,54.48,0,0,0-7.92,8.16C308,53.76,311.12,55.28,312.08,55.28ZM358.64,37.6c-3.92,0-8.16-2-8.16-2.72,0-.4.24-.4,2.4-.8,1-.16,1.68-.48,1.68-1.6,0-2-1.76-7.36-10.88-9.52-3.2-.72-3.52-.88-3.52-1.44,0-1.36,2.64-1.44,3.84-1.44,8.64,0,19.36,3.76,19.36,13A4.32,4.32,0,0,1,358.64,37.6Z"/><path class="cls-1" d="M408,38.72c12.08-.08,16.64-.16,21.68-.24a6.56,6.56,0,0,1,5.12-3.76c2.24,0,5.6,2.88,5.6,5.28,0,2.08-2.24,2.48-3.84,2.48H408.08c0,2,.16,11.52.16,13.68,0,4.32-.72,12.48-9.44,12.48-6,0-10.56-5.2-11.2-6,0-.32.32-.32.48-.32,1,0,5.36.64,6.4.64,5.68,0,6.24-3.76,6.24-9V42.48H380.88a26.53,26.53,0,0,0-3.68.16c-.8.16-4.8,1.2-5.76,1.2-1.36,0-2.32-.64-2.32-2s1.2-3.76,3.36-3.76c.48,0,2.8.32,3.36.4,1,.08,5.92.08,7.2.08,2.56,0,15,.16,17.76.16l.08-12.16H387.52a26.11,26.11,0,0,0-4.48.24c-.72.08-4.24,1-5,1-1.2,0-2.32-.56-2.32-1.84,0-1.52,1.12-3.84,3.12-3.84.56,0,3.28.48,3.92.56,2.32.16,3.12.16,10.16.16h7.92c0-4.08-.08-6-.32-10.24a85.58,85.58,0,0,1-9.36.4c-2.24,0-15.68,0-15.68-2.48,0-.8,1.44-.8,2-.8,1.92,0,6.4-.4,8.72-.56,17.44-1.52,25.36-4.48,30.4-6.48A4.7,4.7,0,0,1,420.72,0c2.08,0,5.44,1.68,5.44,4.32,0,2.24-2.16,3.28-3.76,3.92-4.24,1.68-8.72,2.56-14.24,3.68-.16,5.76-.16,7.36-.24,10.88,1.84,0,11.12-.08,13.2-.08a6.32,6.32,0,0,1,5-3.6c2.24,0,5.36,2.48,5.36,5,0,2.24-3.12,2.32-3.92,2.32H407.92Z"/><path class="cls-1" d="M482.4,9.28c-8.08.8-14.08,1.52-16,2.08a20.92,20.92,0,0,1-2.64.72c-1.28,0-2.08-.64-2.08-1.92s1-3.68,2.88-3.68c.48,0,2.64.48,3.12.48,1.92,0,9.92-.72,12.4-.88C481.44,4.56,483.92,3,485.44,3c1.36,0,3.36,1.12,3.36,2.88a3.1,3.1,0,0,1-.4,1.44c-1.2,2.08-1.28,2.32-1.28,3.84,0,10.64,8.72,35,29.36,48.08,1,.64,6.48,3.68,6.48,4,0,1-8.8,4.8-10.72,4.8-2.16,0-8.8-4.24-15.92-14.8-7.52-11-9.68-21.52-11.68-30.72-2.16,11-10,22-11.44,24-10.08,13.84-23.28,19.2-24.8,19.2-.4,0-1.12-.16-1.12-.64,0-.64,4.08-3.44,4.88-4.08,16.24-13.68,23.44-34.4,23.44-37.68,0-.24-.32-1.44-.32-1.68,0-2.72,4.16-4.16,5.92-4.16a3.6,3.6,0,0,1,2.48.88C483.52,17.68,482.56,11.92,482.4,9.28Z"/><path class="cls-1" d="M577.84,47.84c0,4.88,2.08,6.24,5.2,6.24a20.91,20.91,0,0,0,10.08-2.88C593.44,51,597,49,597,49a.77.77,0,0,1,.64.72c0,.8-6.08,9.84-16.16,9.84-6.64,0-10.8-4.32-10.8-11.28,0-4,.24-5.36,2.72-17a46.39,46.39,0,0,0,1.28-9c0-2.48-.48-4.32-3.44-4.32-4.4,0-13.28,5.28-19.2,14.32-.08.8-.08,7.92-.08,9.76A68.74,68.74,0,0,0,553,56a51.66,51.66,0,0,1,.8,5.36c0,1.84-1.52,3.76-3.28,3.76-2.08,0-3.68-2.32-4.24-4.24-.32-1-.24-1.28-.24-3.92,0-3-.32-4.16-3-14.32-2.8,5-4.56,8.88-4.64,9-1,2.16-1.76,3.92-4,3.92s-2.72-2.08-2.72-4.56c0-1.84.32-2.08,2.64-4.4a68.93,68.93,0,0,0,6.72-8.4A42.3,42.3,0,0,0,535.28,29a3.11,3.11,0,0,1-2.08-2.56c0-2.72,5.28-5.68,10.72-5.68a11.79,11.79,0,0,1,3.52.32c-.08-2.16-.4-12.88-.4-15.28C547,5,547,3,549.84,3c2.16,0,4.88,2.24,4.88,4.4,0,.4-.4,2.64-.48,3.2-.16,1-.8,7.6-1.12,12.8.08.16,1,1.36.8,2,6.32-7.52,14.32-11.52,19.6-11.52,5,0,9,3.12,9,8.48a26.57,26.57,0,0,1-.88,6.08c-.24.88-1.52,5.6-1.76,6.64C578.8,40.08,577.84,44,577.84,47.84ZM547.76,27c0-1.68-3-2.24-4.32-2.24-1.68,0-4,.88-4,2.24,0,.56.4,1.36,3.76,8.8C547.28,30.24,547.76,28.32,547.76,27Zm.48,7.52c-.4.8-2.8,4.64-3.2,5.52,1.28,4.08,2.08,7.28,3,10.88C548.24,42.72,548.24,41.84,548.24,34.48Z"/></g></g></svg>