<svg xmlns="http://www.w3.org/2000/svg" viewBox="0 0 290.8 58.4"><g id="レイヤー_2" data-name="レイヤー 2"><g id="レイヤー_1-2" data-name="レイヤー 1"><path d="M8.64,55.28A29,29,0,0,1,1.28,58.4a.43.43,0,0,1-.4-.4,21.64,21.64,0,0,1,2.64-1.84C19,46.08,22.08,24.48,22.24,19.68c.16-4.24.24-6.32,3.2-6.32,3.28,0,3.28,2.48,3.28,3.28a13.85,13.85,0,0,1-.4,3.28C39.28,13.2,41.6,9.2,41.6,8c0-1.36-2.24-1.36-3.2-1.36-7.6,0-27.44,2.8-29,3-1.2.24-6.32,2.16-7.44,2.16A1.71,1.71,0,0,1,0,10,3.67,3.67,0,0,1,3.68,6.24c1.52,0,5.28,0,5.84-.08C12,6,41.36,3.76,42.72,3.44,43.6,3.28,47.36,2,48.16,2a4.39,4.39,0,0,1,4.4,4.4c0,2.48-.72,2.88-6.8,6.64-9.36,5.68-13.12,7.12-17.84,8.56C25.76,36.24,19.68,48.32,8.64,55.28Z"/><path d="M108.48,11c2.4,0,10-2,12.8-3.2a19.15,19.15,0,0,1,3.92-1.36A3.48,3.48,0,0,1,128.88,10c0,1.12-.08,1.28-1.92,3.84-1,1.44-5,8.4-5.84,9.76-8.24,12.64-19.6,23.28-33.68,28.48a42.26,42.26,0,0,1-13.68,3c-.16,0-.72,0-.72-.4s.64-.56,3.68-1.52C89,49.52,100.48,41,109.2,30.64c7.68-9,11.12-16.4,11.12-18.08,0-.88-.64-1-1.36-1-1.68,0-9.12,1.92-10.72,1.92a4.6,4.6,0,0,1-3.2-1.36C94,26.48,83.6,28.72,81.2,28.72c-.16,0-.56,0-.56-.24s4.56-3.2,5.36-3.76c13.52-10,17.84-20.48,18.08-22.88.16-1,.16-1.84,2.32-1.84,1.68,0,3.6,1.36,3.6,3.12,0,2.08-2.64,5.6-3.52,6.8A1.91,1.91,0,0,0,108.48,11Z"/><path d="M177.52,39c0-1.92.16-10.32.16-12.08V24.32c-3.2,1.2-13,5-14.4,6.16-2.88,2.4-3.36,2.8-4.48,2.8-1.44,0-1.52-2.48-1.52-2.88A2.84,2.84,0,0,1,159,27.52c1.12-.48,15.68-4.64,18.64-5.52,0-6.72-.32-13.76-.32-13.84-.08-.8-.48-4.48-.48-5.2,0-.56.08-1.68,1.84-1.68,1.6,0,4.56,1.28,4.56,3.36,0,.64-.56,3.36-.56,3.84-.24,2.8-.56,8.88-.72,12.24,8-2.64,17.2-6.08,18.08-6.56,3.52-1.76,3.6-1.84,4.48-1.84,1.36,0,3.84,1,3.84,3.44,0,1.12-.08,1.2-2.72,4.08-.88,1-4.8,5.52-5.6,6.32-1.92,1.92-9,8.8-10.88,8.8-.16,0-1-.08-1-.72,0-.32,1.12-1.52,1.52-2,4.56-4.8,9.36-10,9.36-13,0-.56-.24-.72-.8-.72-2.16,0-7.52,1.68-16.4,4.72,0,1.6-.24,13.44-.24,14.16,0,4.16,0,9.44,6.64,9.44,5.12,0,11.92-1.36,14.08-2.4,2-1,2.48-1.28,3.28-1.28,1.36,0,5.12,1,5.12,3.2,0,2-1.84,2.56-3.84,3a77.1,77.1,0,0,1-17.6,2.08c-2.8,0-11.84,0-11.84-9.84Z"/><path d="M253.52,8.48c2.08,0,11.12-.48,13-.56,4.64-.08,5-.4,6-1,2.64-1.76,3-2.08,4.48-2.08a3.88,3.88,0,0,1,3.76,3.52c0,.8-.72,2-1.92,4.08-.16.24-3.92,8.64-4.72,10.24a38.24,38.24,0,0,1-4.4,7.2c11.36,2.08,21,10.24,21,16.08,0,.56,0,4.48-2.72,4.48-1.92,0-2.56-1.28-4.72-5.2A36.26,36.26,0,0,0,269,30.88c-4,5-10.72,13.36-26.72,19.68a42.79,42.79,0,0,1-9,2.64c-.48,0-1-.16-1-.56A.66.66,0,0,1,233,52a112.29,112.29,0,0,0,14.24-7C268.72,31,273,12.56,273,11.2c0-.88-.64-1-1.52-1-2.8,0-17.28,1.44-19.36,2.32-3.44,1.52-3.84,1.6-4.72,1.6a1.75,1.75,0,0,1-1.92-2c0-2.8,1.44-3.6,3.92-3.6Z"/></g></g></svg>