<svg xmlns="http://www.w3.org/2000/svg" viewBox="0 0 291.84 57.76"><g id="レイヤー_2" data-name="レイヤー 2"><g id="レイヤー_1-2" data-name="レイヤー 1"><path d="M47.36,2c2.72,0,5.84,2.4,5.84,5.44,0,2.4-1.12,3-4.4,4.56-.56.32-3.28,2.16-3.92,2.56-8.16,4.72-12,6.24-15.52,7.44C24.88,51,5.28,57.76,2,57.76c-.4,0-1-.08-1-.64,0-.32.4-.64,4.24-3.52C10,49.92,19.36,40,21.2,22.48c.08-1,.32-5.6.48-6.64a3.92,3.92,0,0,1,4-3.28,4.19,4.19,0,0,1,4.4,4.24,14.09,14.09,0,0,1-.32,2.72c4.4-3.36,10.4-8.56,10.4-10.64,0-1.2-2.16-1.2-3.12-1.2-4.32,0-24.4,2.48-27.6,3.36-1,.32-5.76,2.48-7,2.48-1,0-2.48-.32-2.48-2.24S1.28,5.84,4.24,5.84c.56,0,3.6.32,4.24.32C16.72,6.16,35.76,4.48,43,3.6A8.06,8.06,0,0,1,47.36,2Z"/><path d="M108.8,11.52a48.94,48.94,0,0,0,11.44-2.8c3.12-1.28,3.52-1.44,4.48-1.44,2.48,0,4.88,1.44,4.88,3.92a3.54,3.54,0,0,1-1.44,3c-.72.64-.8.88-1.76,2.56-10.88,20.16-22,27.12-28.16,30.64-7.6,4.32-16.88,7.6-23,7.6-.72,0-1.76,0-1.76-.88,0-.64.48-.8,5.12-2.32C104.8,43,118.88,16.64,118.88,13.68c0-.4-.56-.56-1-.56-1.36,0-8,1.68-9.52,1.68-.32,0-2.08,0-2.72-1.12-6.08,8.56-17.44,16-23.84,16-.32,0-1-.08-1-.64a27.46,27.46,0,0,1,2.48-1.92C91.36,21.6,98.4,14.56,102.56,5.68A4.66,4.66,0,0,1,107,0a4.61,4.61,0,0,1,4.56,4.56c0,1.28-.32,2.08-1.6,3.44a11.21,11.21,0,0,0-1.76,2.56C108.08,11,108.08,11.52,108.8,11.52Z"/><path d="M188.32,45.2c4.24,0,9.76-.8,12.4-2.24,2.4-1.28,2.48-1.28,3.6-1.28,2,0,6.56,1.28,6.56,3.52,0,2.48-2.56,3.12-4.16,3.44a88.91,88.91,0,0,1-19.36,1.84c-8.32,0-10.48-5.68-10.8-8.56-.16-1.76,0-14.16,0-16.8-.8.4-5,2.24-5.92,2.64a53.72,53.72,0,0,0-7,3.6c-2.4,1.76-3.12,2.24-4.72,2.24-1.36,0-2.08-.8-2.08-2.72,0-3,2.64-3.92,3.84-4.24a124.91,124.91,0,0,0,16-4.56c-.08-1.6-.16-9.52-.24-11.28,0-1-.56-6-.56-7.12,0-1.76,1.6-2.16,3-2.16,1.92,0,5.6,1.44,5.6,3.68,0,.4-.56,2.56-.64,3-.32,2.48-.56,9.2-.64,11.92,3.92-1.44,15-5.52,16.64-6.56,2.16-1.44,2.56-1.68,3.76-1.68,2.32,0,5,2.16,5,4.72a3.91,3.91,0,0,1-2.4,3.44c-6.8,7.92-15.84,14.56-18.08,14.56-.4,0-1.2-.08-1.2-.88,0-.64,10.88-11.2,10.88-14,0-.64-.64-.64-1-.64-1.84,0-9.36,2.32-13.76,4.24,0,1.92-.16,16.72-.08,17.36C183.52,45.2,186.72,45.2,188.32,45.2Z"/><path d="M291.84,45c0,2.24-1.2,5-4.48,5-3,0-3.92-1.68-5.6-5-.72-1.36-4.64-9-11.68-13.2a53,53,0,0,1-26.4,19,39.25,39.25,0,0,1-9.76,2c-.64,0-1.6,0-1.6-.8,0-.4.32-.48,1-.8,1.36-.48,3.6-1.36,5-1.92,24.4-10.24,33.12-33.84,33.12-36.72,0-.4-.24-1.12-1.52-1.12-.24,0-11.92,1.2-15,2.08-1,.24-5.84,2.56-7,2.56-1.76,0-2.56-1.28-2.56-3,0-4.48,4-4.48,5-4.48.08,0,3.6.16,4.24.16,7,0,14.48-.48,16.56-.64.88-1,2.72-3.28,5.28-3.28,1.92,0,5.52,1.36,5.52,4.4,0,1.52-.64,2.4-1.44,3.68A12.07,12.07,0,0,0,279.2,15c-2.56,5.84-4.32,10.08-7.84,14.72C284.88,33,291.84,39.84,291.84,45Z"/></g></g></svg>