<svg xmlns="http://www.w3.org/2000/svg" viewBox="0 0 521.44 67.12"><defs><style>.cls-1{fill:#221714;}</style></defs><g id="レイヤー_2" data-name="レイヤー 2"><g id="レイヤー_1-2" data-name="レイヤー 1"><path class="cls-1" d="M43.76,12.24a5,5,0,0,1,5,4.64,4,4,0,0,1-1,2.48,8.48,8.48,0,0,0-1.2,2.32c-2,6.24-2.32,7.44-4.24,11.28-13,26.56-39.92,28.88-41,28.88-.48,0-1.36,0-1.36-.8,0-.48.32-.64,3-1.68C33,47.2,38,22.64,38,20.32c0-.64-.16-1-.8-1-.08,0-22.24,1.36-26.88,2.64-.72.16-4.24,2-5,2s-2.64,0-2.64-2.56c0-.88,0-4.72,4.72-4.72.8,0,5,.24,5.92.24,3.68,0,14.08-.08,25-1.12C40.4,13.28,41.36,12.24,43.76,12.24Z"/><path class="cls-1" d="M94.08,36.16c-1.52,0-2-.4-4.4-2.48a33.11,33.11,0,0,0-7.92-4.88c-2.56-1.2-2.88-1.36-2.88-1.68,0-.88,2.4-1,2.8-1,4.48,0,16.8,1.2,16.8,6.88C98.48,35.44,95.6,36.16,94.08,36.16ZM112.4,46.88c-7.92,7-19.84,14.48-25,14.48-4.64,0-6.24-5-6.24-6.64,0-.32,0-2,1.68-2,.4,0,2.64.48,3.12.48,7.12,0,27.68-14.48,41.12-29.44,3.6-4.08,4-4.56,4.64-4.56a1.13,1.13,0,0,1,1.2,1.2C133,22.56,124.56,36.08,112.4,46.88Zm-14.16-24c-1.76,0-2.72-.88-3.84-1.92A33.51,33.51,0,0,0,85.6,15c-1.92-.72-2.64-1-2.64-1.44,0-1,3.76-1.36,5.84-1.36,3.84,0,13.76,1.36,13.76,7.28C102.56,21.84,100.08,22.88,98.24,22.88ZM126,16c-1.52,0-1.6-.08-4.16-3.6-2.88-3.84-5-5.28-5.28-5.44-.64-.24-1.36-.56-1.36-1s1.12-.72,1.92-.72c4.4,0,11.92,2.48,11.92,7.36C129,14.08,128.32,16,126,16Zm9-5.2c-1.84,0-2.64-1.12-3.36-2.24a27.54,27.54,0,0,0-6.56-6.72c-1.2-.88-1.28-.88-1.28-1,0-.4.64-.8,1.76-.8,3.52,0,12.48,2.4,12.48,7.44C138.08,8.4,137.84,10.8,135,10.8Z"/><path class="cls-1" d="M183.76,18.08c1.12,0,4.8-.4,11.44-3a11.43,11.43,0,0,1,4.24-1c2.16,0,5,.88,5,3.6a4.57,4.57,0,0,1-1.68,3.6,51,51,0,0,0-3.76,6,132.09,132.09,0,0,1-7.84,11.84c2.64,1.76,8.32,5.84,8.32,9.44,0,1.28-.8,3.68-3.28,3.68-1.84,0-2.48-.72-4.56-3.12a60.65,60.65,0,0,0-5.28-5.2c-12.8,13.2-29.12,17.52-35.44,17.52-.48,0-2.72,0-2.72-1,0-.4.4-.56,4.32-1.76,9-2.88,18.8-8.32,28.56-18.72a40.44,40.44,0,0,0-7.76-5.28c-.88-.48-1.12-.56-1.12-.88,0-.64,1.12-.64,1.36-.64A29.22,29.22,0,0,1,184.64,36c4.64-6.8,9-13.28,9-15.84,0-.48-.08-.64-.64-.64a12.81,12.81,0,0,0-3.2.48c-4.72,1.2-5.28,1.36-6.56,1.36-.32,0-2.08,0-2.72-1.12-7.12,10.16-17.92,15.84-23.28,15.84-.32,0-1.6,0-1.6-.64,0-.16.08-.24.24-.32C171,25.6,177.28,13.84,178.08,10.48c.56-2.48.8-3.28,3-3.28s5.2,1.84,5.2,4.32c0,1.28-.72,2.24-1.68,3.36A6.17,6.17,0,0,0,183,17.12C183,17.76,183,18.08,183.76,18.08Z"/><path class="cls-1" d="M231.12,41.76c0-13,13-30.24,34-30.24,13,0,25.36,7.6,25.36,23,0,23.28-23.68,27.92-28.56,27.92-1.2,0-1.28-.4-1.28-.72,0-.64,1-.88,1.44-1.12a48,48,0,0,0,6.8-3.36c6.32-4,13.28-11,13.28-22.72s-6.72-19.84-18.64-19.84c-4.16,0-8,.8-13,4.64-6.48,5-12.24,13.6-12.24,22.88,0,1.2.24,5.52,1.68,5.52,4.32,0,18.4-16.48,18.4-25.76,0-.48-.4-2.8-.4-3.36s.56-1,1.6-1c2.88,0,4.4,3.36,4.4,7,0,10.64-16.24,30.08-25,30.08a4.28,4.28,0,0,1-4.4-3.6A6.73,6.73,0,0,0,233,47.12,9.91,9.91,0,0,1,231.12,41.76Z"/><path class="cls-1" d="M337.44,26.64c0-.16-.32-1.12-.32-1.36,0-.72.56-.88,1-.88a4.86,4.86,0,0,1,4.16,2.72A19,19,0,0,1,345.6,27C354.48,27,365,31.52,365,43.12c0,6.56-3.76,14.88-13.84,20-3.84,2-10.16,4-13.84,4-.72,0-1.84-.08-1.84-.88,0-.56.4-.64,4.08-2.08,6.08-2.32,17.12-9,17.12-22,0-8.16-5.52-12.32-14.56-12.32,0,7.6-6.4,16.4-9.52,20.72a13,13,0,0,0,2,4.4c-.08,3.12-1.92,4.32-3.36,4.32-1.92,0-3-2.16-3.68-4.56-4.08,5.2-9.2,7-12.24,7a6.78,6.78,0,0,1-6.56-7.12c0-10.48,11.92-18.64,17-22.16.16-3.68.24-5.12.64-11a18.32,18.32,0,0,1-5,.72c-3.6,0-6.4-1.76-6.4-4.4,0-.32,0-.88.8-.88.24,0,1.68.4,2,.4a13.32,13.32,0,0,0,3.12.32A20.46,20.46,0,0,0,326.8,17c0-.48.24-4,.32-4.8l.64-8.64c.24-.48.48-1,2.08-1,2.56,0,5.84,1.52,5.84,4.32,0,1.28-2,7.44-2.24,8.88a15.2,15.2,0,0,0,4.08-2c2.56-2.08,3-2.4,4.24-2.4,2.48,0,5.36.88,5.36,3.12,0,2.88-11.12,5.36-14.64,6.16a68.59,68.59,0,0,0-1,9.68,36.35,36.35,0,0,1,6-2.32Zm-11.92,9.44c-9.36,9.44-10.24,14.72-10.24,17.12,0,1.52.4,2.88,1.76,2.88s4.56-.88,9.12-6.8A69.86,69.86,0,0,1,325.52,36.08Zm5.76-2.4c-.08,1.44-.24,3.68-.24,6.56,0,.64.16,3.6.16,4.32A42.56,42.56,0,0,0,337,30.48,36.89,36.89,0,0,0,331.28,33.68Z"/><path class="cls-1" d="M406.32,65.76c3.84-3.52,7-7.76,8.56-16.32-4.56-1.92-6.72-6.16-6.72-11.12,0-1.52.32-2,1.2-2.08.32.24.64.64,1.2,2.72.72,2.8,2.24,5.76,5,6.4.8-4.32.88-6.08.88-19.6a39.21,39.21,0,0,0-.16-4.8c-13.36,4.4-21.76,19.28-22.24,29.2-.08,1.84-.16,3.12-2.64,3.12-7.52,0-7.52-14.56-7.52-18.32,0-1.52.48-8.72.48-10.4a2.2,2.2,0,0,0-.16-1,5.39,5.39,0,0,1-.8-1.52c0-2.32,5.36-3.36,5.76-3.36.88,0,3,0,3,2.72a43.79,43.79,0,0,1-1,4.4,48.65,48.65,0,0,0-1.6,13.44c0,.64,0,3.2.64,3.2.4,0,.56-.4,2-3.28,2.16-4.4,9.52-17.12,23.92-21.36-.08-1.2-.72-6.72-.88-7.52-.64-2.08-2-3.76-3.6-3.76-.48,0-2,0-2-.56,0-1.76,3.36-3.44,5.92-3.44,7.28,0,7.6,8.8,7.84,14.48,3-.72,18.16,1.2,18.16,15,0,11.12-10.56,19.36-20.8,18.56-.88,3-2.64,8.64-7.28,12.88-1.92,1.76-4.64,3.12-5.92,3.12-.32,0-1.2-.08-1.2-.64ZM433.6,31.2c0-10.4-7.28-10.8-10.08-11,0,11-.16,17.12-1.76,25.52C433.6,43.2,433.6,32.72,433.6,31.2Z"/><path class="cls-1" d="M515.68,44.88c3.92.56,5.76,5.28,5.76,6.8s-2.16,2.24-3.28,2.24c-1.28,0-2.24-.32-6-3-1.68-1.2-4.16-2.64-8.16-5-1.6,4.24-5.6,14.48-20.88,19a22.47,22.47,0,0,1-6.32,1c-1.2,0-2.08-.4-2.08-1,0-.32,1.68-1,2.32-1.2,9.28-3.28,17.12-9.36,20.48-20.4-4.16-1.6-11.6-4.56-19-4-7.44,13-9.12,14.48-15.2,14.48-4.16,0-7.76-1.84-7.76-5.84,0-3.84,4.8-10,18.72-11.84,4.16-7.68,10.64-21,10.64-24,0-.32-.08-.56-.56-.56-1.92,0-9.36,4.4-11.2,4.4-2.72,0-5.76-2.32-5.76-5.12,0-.88.48-1.12,1.12-1.12s3.36.4,3.92.4c2.56,0,9.84-1.2,13.6-3.12,3-1.52,3.12-1.6,4.32-1.6,2.48,0,4.72,1.76,4.72,4,0,1-.16,1.2-1.68,3.44-7.36,11.2-11.44,19-13.6,23A63.52,63.52,0,0,1,499.12,39c0-.32.56-4.56.56-4.64a2.73,2.73,0,0,0-.32-1.28,15.24,15.24,0,0,1-1.68-2.8c0-1,1.68-1.44,3.2-1.44,3.12,0,6.32,1.76,6.32,5.76,0,1.52-.08,2-1.12,6.56C506.32,41.36,512.4,44.4,515.68,44.88ZM462,47.36C462,49,464,49,464.24,49c4,0,7.2-6.88,8.64-9.84C465.52,41,462,44.56,462,47.36Z"/></g></g></svg>