<svg xmlns="http://www.w3.org/2000/svg" viewBox="0 0 721.65 71.68"><defs><style>.cls-1{fill:#221714;}</style></defs><g id="レイヤー_2" data-name="レイヤー 2"><g id="レイヤー_1-2" data-name="レイヤー 1"><path class="cls-1" d="M2,26.24c-.56,0-2,0-2-.48,0-.32.16-.4,1.6-1.12C11.2,19.6,19,11.84,21.84,8c2.48-3.28,2.8-3.76,5-3.76,2.56,0,4.32,1.6,4.32,3.28,0,2.08-.88,2.8-9.12,9.92C22,21.52,21.92,31.76,22,37.92c.08,4.24.72,25.68.72,26.72,0,2-.08,3.52-2.48,5.36A7.82,7.82,0,0,1,16,71.68,2.44,2.44,0,0,1,13.52,69c0-2.24.88-13,1-15.44.64-12.24.64-22.8.64-31.84C8.32,25.68,3.68,26.24,2,26.24Zm40.32,27.6c.48,3.12,2,5,13.76,5,4.16,0,11.76-.08,17.2-4.24,3-2.24,3.36-2.48,3.84-2.48s.56.32.56.8c0,2-2.16,7.52-3.76,10.08C71.6,66.8,67.2,67.2,62.8,67.2c-8.48,0-16.08-2-19.92-3.76-7-3.2-7-8-7-15.44,0-1.44.08-28.08,0-32.24-1.92-1.76-2-1.84-2-2.64,0-2.32,3.92-6.16,7-6.16,2.64,0,2.8,2.24,2.8,3.76,0,.4-.08,1-.16,1.76-.64,5.92-.88,14.88-1,24.4A101.57,101.57,0,0,0,57.6,24c.32-1.12,1-4,4.24-4,2.48,0,5.84,2,5.84,5,0,3.2-4.4,5.36-10.72,8.48C49,37.36,47,38.4,42.24,40.4,42.16,42.72,42,52,42.32,53.84Z"/><path class="cls-1" d="M104.32,25.92a4.07,4.07,0,0,1,3-2.16c1.68,0,3.76,1.92,3.76,3.6s-1.84,1.76-2.88,1.76h-7.6V33a43,43,0,0,0,8.56,6.88c.32.24,1.36.72,1.36,1.36,0,1.28-3.28,3-4.72,3s-3.28-2.32-5.12-4.72c0,3.12.32,18.4.32,21.84,0,5.12,0,5.68-1,6.88a6,6,0,0,1-4.64,2.32,2.46,2.46,0,0,1-2.64-2.72c0-.64.24-3.92.32-4.64.16-3,.72-16.48.88-20.72C85.92,55.12,80.72,56.4,80.08,56.4c-.32,0-.8,0-.8-.48s.16-.8,1.28-2a56.34,56.34,0,0,0,8.56-15.84c1.6-4.88,1.84-5.52,4.4-5.52a1.19,1.19,0,0,1,.72.16v-3.6c-.48,0-3-.08-3.6-.08a34.11,34.11,0,0,0-3.6.16,25,25,0,0,1-3.52.8,1.61,1.61,0,0,1-1.84-1.6,2.77,2.77,0,0,1,2.88-2.88c.32,0,1.92.4,2.24.4h7.52c0-8.32-.08-13.36-.32-18.16,0-.4-.08-1.76-.32-1.92-.88-.64-1-.72-1-1.2C92.72,2.72,96.72,0,99,0c.88,0,2.64.4,2.64,2.24,0,.32-.24,2.08-.32,2.48-.4,3.6-.64,16.08-.72,21.2Zm-16.4-11a8.87,8.87,0,0,0,4.16-1,5.1,5.1,0,0,1,.72-.16c.4,0,.48.24.48.4,0,2.72-4.88,6.32-8.16,6.32-1.44,0-3.92-.72-3.92-3,0-1.44,1-3,3.76-3A9.5,9.5,0,0,0,87.92,14.88Zm21-7.52c2,0,3.92,1.44,3.92,3.12,0,2.48-8.56,9.12-10.48,9.12-.08,0-.72-.08-.72-.64,0-.16.08-.24.16-.4,1.12-2,1.44-2.72,4.08-9A3.33,3.33,0,0,1,108.88,7.36Zm36.4,7.6c1.44-2.8,3.6-3.36,4.56-3.36,2.24,0,5.28,2.56,5.28,4.72,0,1.92-2.32,2.08-4.24,2.08H120.16c0,6.48-.24,21.2-2.16,27.92-3.92,13.68-13.92,18.8-15.12,18.8-.4,0-.56-.16-.56-.48s.88-1.36,1.36-1.92c9.2-9.84,9.76-21.2,9.76-40.56a13,13,0,0,0-.24-3.2,8.19,8.19,0,0,1-1.12-1.76c0-1.84,2.72-4.8,5.2-4.8,2.64,0,2.8,1.6,2.88,2.56h9.12a55.66,55.66,0,0,0-.4-7.68c-.4-.32-1.6-1.28-1.6-2.24,0-2.4,4.24-5,6.64-5,1.2,0,3.28.48,3.28,3.52a3.59,3.59,0,0,1-.08,1c-.32,1.44-.72,8.4-.8,10.4Zm2.48,47.28c1-1.84,2.88-3.12,4.32-3.12,2.16,0,5.12,2.4,5.12,4.64,0,1.92-2.48,2.16-3.68,2.16h-25c-2.24,0-8.24-.08-10.16.24-.56,0-3.6.72-4.32.72A2.1,2.1,0,0,1,111.68,65a3.29,3.29,0,0,1,3.12-3.28c.56,0,3.52.4,4.16.48H130.8c0-1.84.16-10.8.16-12.88V43.12c-.56,0-3.36.16-4,.16s-3.52.72-4.16.72A1.71,1.71,0,0,1,121,42.24c0-1.2.88-3,2.64-3,.4,0,1.92.4,2.32.4h4.88c0-1.36-.24-8-.32-9.52a1,1,0,0,0-.32-.88c-.72-.64-1-.88-1-1.36,0-1.92,4.08-4.48,6.08-4.48.64,0,3,.24,3,2.4,0,.16-.32,2.24-.32,2.4-.32,2.4-.4,6.88-.48,11.44h6.24c1.44-2.72,3.52-2.72,4-2.72,2.08,0,4.8,1.6,4.8,4.08,0,1.92-2.16,2.16-3.44,2.16H137.52V62.24Z"/><path class="cls-1" d="M186.4,39.68a5.1,5.1,0,0,1,3.92-2.16c2,0,4.08,1.6,4.08,3.52,0,.08-.16,1-.16,1.12a10.28,10.28,0,0,0-.24,3.2c0,2.56.24,15,.24,17.84,0,2,0,2.56-1.2,3.44a6.4,6.4,0,0,1-3.84,1.2c-2.8,0-2.8-1.36-2.88-3h-13v2.08c0,2.08-2.72,3.28-5.28,3.28-2.32,0-2.32-1.12-2.32-4.24,0-2.8.32-16.56.32-19.68,0-1,.08-2.32-.4-2.72-.56-.56-.8-.8-.8-1.2,0-1.92,3.6-4.8,5.76-4.8a2.84,2.84,0,0,1,2.88,2.16Zm0,21.36V43.36H173.68a.65.65,0,0,0-.56.72c-.08,2.4.08,14.24.08,17ZM209.6,6.56a5.37,5.37,0,0,1,4.56-3.12c1.84,0,4.72,1.68,4.72,3.6a2,2,0,0,1-.24,1,6,6,0,0,0-.48,2.4c0,2.56.48,15.2.48,18,0,1.2,0,2.08-2.08,3.12a9.12,9.12,0,0,1-3.44.88c-.4,0-3,0-3-2.4,0-.24.08-1.2.08-1.44h-23.6c-.24,4.4-4.56,4.4-4.8,4.4-3.12,0-3.12-2.4-3.12-4,0-2.4.4-14.32.4-17,0-.72,0-2-.32-2.32-.88-.88-1-1-1-1.6,0-2.08,4-4.16,5.84-4.16a3.08,3.08,0,0,1,3,2.64ZM210.16,25V10.16H187.28c-.56,0-.8.24-.8.8V25ZM223,39.68a5.58,5.58,0,0,1,4-2.32c1.76,0,4.56,1.68,4.56,3.84a4.76,4.76,0,0,1-.4,1.76,8.28,8.28,0,0,0-.16,2.56c0,2.48.32,14.72.32,17.52,0,2.16,0,2.72-1.28,3.68a6.88,6.88,0,0,1-4.24,1.36c-2.8,0-2.88-1-2.88-3.28h-13.2v1.76c0,2.4-2.72,3.92-4.56,3.92-3.12,0-3.12-2.24-3.12-3,0-3.28.64-19.6.32-23.28-.72-1-1-1.44-1-1.84,0-1.92,3.2-4.56,5.36-4.56a3.28,3.28,0,0,1,3.2,1.92ZM223,61V43.36H210.4c-.4,0-.8.56-.8.88-.08,2.4.08,14.16.08,16.8Z"/><path class="cls-1" d="M253,45.28c0-13,13-30.24,34-30.24,13,0,25.36,7.6,25.36,23,0,23.28-23.68,27.92-28.56,27.92-1.2,0-1.28-.4-1.28-.72,0-.64,1-.88,1.44-1.12a48,48,0,0,0,6.8-3.36C297,56.72,304,49.76,304,38s-6.72-19.84-18.64-19.84c-4.16,0-8,.8-13,4.64-6.48,5-12.24,13.6-12.24,22.88,0,1.2.24,5.52,1.68,5.52,4.32,0,18.4-16.48,18.4-25.76,0-.48-.4-2.8-.4-3.36s.56-1,1.6-1c2.88,0,4.4,3.36,4.4,7,0,10.64-16.24,30.08-25,30.08a4.28,4.28,0,0,1-4.4-3.6,6.73,6.73,0,0,0-1.44-3.84A9.91,9.91,0,0,1,253,45.28Z"/><path class="cls-1" d="M380.8,15.76a5,5,0,0,1,5,4.64,4,4,0,0,1-1,2.48,8.48,8.48,0,0,0-1.2,2.32c-2,6.24-2.32,7.44-4.24,11.28-13,26.56-39.92,28.88-41,28.88-.48,0-1.36,0-1.36-.8,0-.48.32-.64,3-1.68,30.08-12.16,35-36.72,35-39,0-.64-.16-1-.8-1-.08,0-22.24,1.36-26.88,2.64-.72.16-4.24,2-5,2s-2.64,0-2.64-2.56c0-.88,0-4.72,4.72-4.72.8,0,5,.24,5.92.24,3.68,0,14.08-.08,25-1.12C377.44,16.8,378.4,15.76,380.8,15.76Z"/><path class="cls-1" d="M424.72,39.68c-1.52,0-2-.4-4.4-2.48a33.11,33.11,0,0,0-7.92-4.88c-2.56-1.2-2.88-1.36-2.88-1.68,0-.88,2.4-1,2.8-1,4.48,0,16.8,1.2,16.8,6.88C429.12,39,426.24,39.68,424.72,39.68ZM443,50.4c-7.92,7-19.84,14.48-25,14.48-4.64,0-6.24-5-6.24-6.64,0-.32,0-2,1.68-2,.4,0,2.64.48,3.12.48,7.12,0,27.68-14.48,41.12-29.44,3.6-4.08,4-4.56,4.64-4.56a1.13,1.13,0,0,1,1.2,1.2C463.6,26.08,455.2,39.6,443,50.4Zm-14.16-24c-1.76,0-2.72-.88-3.84-1.92a33.51,33.51,0,0,0-8.8-5.92c-1.92-.72-2.64-1-2.64-1.44,0-1,3.76-1.36,5.84-1.36,3.84,0,13.76,1.36,13.76,7.28C433.2,25.36,430.72,26.4,428.88,26.4Zm27.76-6.88c-1.52,0-1.6-.08-4.16-3.6-2.88-3.84-5-5.28-5.28-5.44-.64-.24-1.36-.56-1.36-1s1.12-.72,1.92-.72c4.4,0,11.92,2.48,11.92,7.36C459.68,17.6,459,19.52,456.64,19.52Zm9-5.2c-1.84,0-2.64-1.12-3.36-2.24a27.54,27.54,0,0,0-6.56-6.72c-1.2-.88-1.28-.88-1.28-1,0-.4.64-.8,1.76-.8,3.52,0,12.48,2.4,12.48,7.44C468.72,11.92,468.48,14.32,465.68,14.32Z"/><path class="cls-1" d="M508,21.6c1.12,0,4.8-.4,11.44-3a11.43,11.43,0,0,1,4.24-1c2.16,0,5,.88,5,3.6A4.57,4.57,0,0,1,527,24.8a51,51,0,0,0-3.76,6,132.09,132.09,0,0,1-7.84,11.84c2.64,1.76,8.32,5.84,8.32,9.44,0,1.28-.8,3.68-3.28,3.68-1.84,0-2.48-.72-4.56-3.12a60.65,60.65,0,0,0-5.28-5.2C497.76,60.64,481.44,65,475.12,65c-.48,0-2.72,0-2.72-1,0-.4.4-.56,4.32-1.76,9-2.88,18.8-8.32,28.56-18.72a40.44,40.44,0,0,0-7.76-5.28c-.88-.48-1.12-.56-1.12-.88,0-.64,1.12-.64,1.36-.64a29.22,29.22,0,0,1,11.12,2.88c4.64-6.8,9-13.28,9-15.84,0-.48-.08-.64-.64-.64a12.81,12.81,0,0,0-3.2.48c-4.72,1.2-5.28,1.36-6.56,1.36-.32,0-2.08,0-2.72-1.12-7.12,10.16-17.92,15.84-23.28,15.84-.32,0-1.6,0-1.6-.64,0-.16.08-.24.24-.32,15.12-9.52,21.36-21.28,22.16-24.64.56-2.48.8-3.28,3-3.28s5.2,1.84,5.2,4.32c0,1.28-.72,2.24-1.68,3.36a6.17,6.17,0,0,0-1.52,2.24C507.2,21.28,507.28,21.6,508,21.6Z"/><path class="cls-1" d="M551.3,51.86c0,.7.05,5,.75,5s1.15-1.2,1.45-1.85,1-2.05,1.7-2.05c.3,0,.55.35.55.85,0,.2-.3,1.2-.35,1.45a19.75,19.75,0,0,0-.8,6c0,2.25-1.1,2.95-1.9,2.95-3.85,0-4.6-8.6-4.6-12.6a87.88,87.88,0,0,1,1.9-16.1,23.78,23.78,0,0,0,.55-3.95c0-.35-.5-2-.5-2.4a1.1,1.1,0,0,1,1.05-1.1c1.65,0,4.4,2.55,4.4,4.55a9.91,9.91,0,0,1-1,3.55A49.1,49.1,0,0,0,551.3,51.86Zm8.85-15c0-.55.45-.65.8-.65s2.85.45,3.4.45a37.34,37.34,0,0,0,7.15-1,18.71,18.71,0,0,1,3.1-.9c.6,0,4.45.6,4.45,2.45,0,1.3-.65,1.35-3.2,1.75-3.85.55-10.9,4.3-10.9,9.7,0,5,6,5.55,8.85,5.55a32.91,32.91,0,0,0,3.4-.25,11.7,11.7,0,0,1,2.25-.3c1.3,0,4.1,1.55,4.1,2.9,0,2.15-3.85,2.15-5.95,2.15-5.15,0-15.2-.7-15.2-9.1,0-3.3,2.15-7.4,5.15-10.25C563.75,39.26,560.15,37.76,560.15,36.81Z"/><path class="cls-1" d="M594.1,49.61c-1.65,0-5.25-2-5.25-3.75a1.08,1.08,0,0,1,1.15-1s1.85.1,2.2.1c2.1,0,4.4-1.25,7.8-3.45,5.1-3.3,11.65-6.7,17.2-6.7,5.9,0,13.55,3.6,13.55,11.6,0,12.4-14.75,16.4-20,16.4-1.4,0-1.45-.5-1.45-.65s.55-.45,2.45-1.2c12.75-4.9,13.55-11.15,13.55-14.2,0-4.25-2.3-8.75-8.2-8.75-3,0-8.1.55-17.35,8.15a39.16,39.16,0,0,1-3.05,2.55A4.42,4.42,0,0,1,594.1,49.61Z"/><path class="cls-1" d="M657,45.91a.86.86,0,0,1,.8.8c0,.65-.75,3.8-.85,4.5a53.46,53.46,0,0,0-.35,7.5c0,1.6-1.9,2.25-3.55,2.25-2.65,0-11.5-2.5-13-17.45-.1-1.1-.15-7-.2-7.5,0-.25-.65-1.55-.65-1.85,0-.95.85-1,1.35-1,1.6,0,4.4,1.75,4.4,3.65a8.91,8.91,0,0,1-.2,2,33.93,33.93,0,0,0-.45,5.1c0,10.6,6,12.35,7,12.35,1.35,0,1.75-1.15,2.6-3.55.35-1,2-5.85,2.2-6.2A1,1,0,0,1,657,45.91Zm18.8,5.8a1.84,1.84,0,0,1-1.55-.8,9.22,9.22,0,0,1-.75-1.75c-3.2-7.6-8.15-8.15-10-8.35-2.6-.3-2.7-.3-2.7-.75,0-.65,2.7-1.2,4.65-1.2,8,0,13.15,6.4,13.15,10.1A2.93,2.93,0,0,1,675.75,51.71Z"/><path class="cls-1" d="M690.5,41.21a4,4,0,0,1-4-3.6c0-1,1-1.25,1.45-1.25s2.45.65,2.9.65c4.45,0,11.1-1.7,19.9-4a5.84,5.84,0,0,0,2.55-.95c2.3-1.5,2.6-1.7,3.55-1.7,2,0,4.8.85,4.8,3,0,1.5-2.45,1.75-3.7,1.85-8.6.85-13.5,8.65-13.5,14.6,0,5.1,4.5,8.25,9.6,9.6,4,1.1,4,3.65,4,4.3,0,.4,0,1.75-3.45,1.75a18.9,18.9,0,0,1-8.2-3.6c-1.5-1.2-5.85-5.25-5.85-11.6,0-6.6,4.5-11.2,7.05-13.75a.51.51,0,0,0,.2-.35q0-.15-.3-.15a5.67,5.67,0,0,0-1.65.35C703.65,37.11,693.05,41.21,690.5,41.21Z"/></g></g></svg>