<svg xmlns="http://www.w3.org/2000/svg" viewBox="0 0 595.2 67.6"><defs><style>.cls-1{fill:#221714;}</style></defs><g id="レイヤー_2" data-name="レイヤー 2"><g id="レイヤー_1-2" data-name="レイヤー 1"><path class="cls-1" d="M43,12.32a3.68,3.68,0,0,1,3.84,3.52c0,.72-.24,1.28-1.28,3.12-.32.56-2.32,7.2-2.8,8.48A54.45,54.45,0,0,1,.64,62.32c-.24,0-.64-.08-.64-.24s.56-.48,3.6-1.76C31.2,49,38.8,23.2,38.8,19.6c0-1.36-1.2-1.36-2.4-1.36-10.56,0-26.8,2.4-27.28,2.56C8.08,21,3.52,23,2.48,23S1,22.08,1,21c0-4,3.12-4.08,4.4-4.08.56,0,3.12.16,3.68.16,2.64,0,18.8-.64,28.4-1.68C39.2,13.68,40.64,12.32,43,12.32Z"/><path class="cls-1" d="M75,26.4c4.56,0,16.56,1.2,16.56,6.64,0,2.24-2.16,2.8-3.28,2.8-1,0-1.28-.24-3.76-2.4a35,35,0,0,0-8.56-5.2c-.4-.16-2.32-.88-2.32-1.28S74.24,26.4,75,26.4Zm30.88,20.4C93.76,57,84.48,60.8,81.12,60.8a4.67,4.67,0,0,1-4.4-4.4c0-1.68,1.2-1.68,2.48-1.68,3.52,0,5.76,0,15-6.08,6.08-3.92,21.52-15.36,30.88-27.28.64-.88,1.68-2.16,2-2.16.56,0,.56.64.56.8C127.68,22.08,119.36,35.36,105.84,46.8Zm-13.28-25c-1,0-1.28-.24-4.24-2.8a39.64,39.64,0,0,0-6.08-4c-.72-.32-4.4-1.84-4.4-2.16,0-.56.88-.56,1.2-.56,5.36,0,16.72,1.2,16.72,6.64C95.76,21.52,93.2,21.84,92.56,21.84ZM112.8,5.2c3.28,0,10.48,2.72,10.48,6.88,0,1.36-.64,2.16-2,2.16-1.12,0-1.44-.48-3-2.56a23.55,23.55,0,0,0-4-4.32c-.4-.32-2.24-1.68-2.32-1.84C111.92,5.2,112.64,5.2,112.8,5.2Zm8-5.2c2.4,0,10.4,2.24,10.4,6.72A2.19,2.19,0,0,1,129,9.2c-1,0-1.2-.24-2.88-2.72a22.79,22.79,0,0,0-5-4.88C119.76.48,119.6.4,119.6.32,119.52,0,120.64,0,120.8,0Z"/><path class="cls-1" d="M175.76,18.56c.72,0,4.16.08,13.12-3.36a11.83,11.83,0,0,1,3.76-1c1.52,0,3.68.64,3.68,3,0,1-.32,1.52-1.84,3.68-.16.24-3,5.2-3.52,6.08a125.59,125.59,0,0,1-9.28,13c2,1.36,7.44,5,7.44,9a2.28,2.28,0,0,1-2.4,2.48c-1.44,0-1.84-.56-3.6-2.88a33.09,33.09,0,0,0-4.56-5.2,59.24,59.24,0,0,1-22,15.36c-2.8,1.12-9.84,3.76-14.72,3.76-.32,0-1.6,0-1.6-.48s.48-.48,3.92-1.44a60.94,60.94,0,0,0,13.12-5.92A70.3,70.3,0,0,0,174.4,40.48a32.5,32.5,0,0,0-6.24-4.16,7.4,7.4,0,0,1-2.4-1.68c0-.24.24-.48.72-.48,1.44,0,6.08,1.2,10.56,3.2C181,32.64,187.52,23.12,187.52,20c0-.88-.88-1-1.52-1-1.68,0-9,1.84-10.56,1.84a4.89,4.89,0,0,1-3.2-1.28C160.08,35,149.52,36.24,149,36.24c-.16,0-.8-.08-.8-.32s5.28-3.76,6.24-4.48C163.52,24,169.76,15.2,171,10.8c.8-2.72,1-3.44,2.48-3.44,1.92,0,3.84,1.76,3.84,3.36s-.4,2-3.68,6.48A2.17,2.17,0,0,0,175.76,18.56Z"/><path class="cls-1" d="M248.08,18.4c0-.48.32-.48.56-.48,2.08,0,3.12,3,3.12,6,0,11-16.8,31-24.56,31-2,0-2.88-2-3.12-2.56s-1.12-3-1.44-3.44c-2-4.16-2.24-4.64-2.24-6.64,0-13.44,13.36-30.8,33.92-30.8,13.52,0,24.48,9,24.48,23.76,0,20.8-19.12,27.44-27,27.44-.24,0-.56-.08-.56-.32s1.92-1,2.72-1.28c7.6-2.72,19-10.88,19-26.4,0-12.64-7.84-21-20.56-21-14.8,0-27.28,15.36-27.28,29,0,.8,0,6.4,2.72,6.4,5.44,0,20.56-18.24,20.56-27.36C248.48,21.28,248.08,18.48,248.08,18.4Z"/><path class="cls-1" d="M312.32,27.6a37.2,37.2,0,0,1-10,1.6c-3.44,0-6.4-1.28-6.4-3.28,0-.32.08-.4.4-.4s2.32.4,2.64.4a44.89,44.89,0,0,0,13-2.08c0-2.72-.48-14.56-.48-17a1.23,1.23,0,0,1,1.36-1.44c1.76,0,4.4,1,4.4,3.36a13.45,13.45,0,0,1-.56,1.92,60.45,60.45,0,0,0-1,12.16,21,21,0,0,0,6.48-3.28c1.44-1,1.6-1.12,2.4-1.12,1.44,0,3.12.88,3.12,2.4,0,2.56-8.48,5.2-12.32,6.16,0,1.52-.08,11.28,0,12.08,3.44-1.76,10-5.2,17-5.2,7.28,0,13,4.24,13,11.44A13.33,13.33,0,0,1,331.84,59c-7,0-11.92-6.48-11.92-7.84,0-.24.16-.24.24-.24a32.35,32.35,0,0,1,2.88,2A12.82,12.82,0,0,0,330.16,55c6.4,0,10-4,10-9.84s-4.08-8.32-9.36-8.32c-6.72,0-12.8,3.44-15.12,4.8,0,1.76.32,9.6.32,11.2,0,2.56,0,8.56-5.12,8.56-1.2,0-1.36-.24-2.24-1.76-1-1.76-5-3.92-7.44-5.28-2.48,3.28-3,4.08-4.72,4.08-2.48,0-3.28-2.8-3.28-4.56,0-.56.16-1.28.8-1.28.24,0,1.44.32,1.68.32.88,0,2.48-1.36,3.52-2.24a107.64,107.64,0,0,1,13.12-9.84Zm.16,15.84a53.61,53.61,0,0,0-10.4,9.84c5.52,2.4,6.56,2.8,7.92,2.8,2.08,0,2.48-.8,2.48-10.8Zm39.6-8.72c1.2-.08,2.64-.24,2.64-2,0-4.24-4.72-8.4-8.08-9.44-2.16-.72-6.4-2.08-6.56-2.16a.32.32,0,0,1-.16-.32c0-1,2.08-1,3-1C355,19.76,361,28,361,33.44c0,2.4-.88,4-3.6,4-3,0-6.88-2.32-6.88-2.4C350.64,34.8,351.6,34.72,352.08,34.72Z"/><path class="cls-1" d="M405,41.44c0,2.16.16,11.52.16,13.44,0,6.88-1.12,12.72-7.36,12.72s-10.32-4.8-10.32-4.88a.26.26,0,0,1,.24-.24c.48,0,2.48.56,2.88.64a18.34,18.34,0,0,0,3.44.32c5.28,0,6.08-4.16,6.08-9.2V41.44H379.36a45,45,0,0,0-6.56.4c-.56.08-3,.8-3.44.8-.72,0-1-.88-1-1.52,0-1,.72-3,2.4-3,1,0,5.6.24,6.56.24,1.68.08,19.6.24,22.88.24l.08-13.12H385.68a28.7,28.7,0,0,0-7,.64c-.48.08-2.56.56-3,.56-.88,0-1-1-1-1.52,0-.8.48-3,2.48-3,.4,0,2.72.08,3.6.16,5.44.24,10.64.32,18.08.32h1.44c-.08-9.28-.08-9.44-.48-11.36-3.92.24-7.36.32-13.76.32-1.76,0-11.2,0-11.2-1.84,0-.64,2.72-.72,3.76-.72,19.92-.48,30.08-3.76,37.44-6.48A3.91,3.91,0,0,1,419.44.32c1.76,0,4.16.88,4.16,3.2,0,2.56-3.12,3.68-5.12,4.32a113.59,113.59,0,0,1-13.52,3c-.24,7-.24,8.88-.32,11.92,4.08,0,14.4-.16,15.52-.16a5.34,5.34,0,0,1,4.24-3.28c1.92,0,4.64,2.16,4.64,4.4,0,1.68-2.08,1.76-3.12,1.76H404.64l.24,13.2c13.12-.08,18.08-.16,23.68-.24,2-3.36,3.84-3.36,4.24-3.36,1.92,0,4.72,2.24,4.72,4.32,0,1.68-1.36,2.08-2.8,2.08Z"/><path class="cls-1" d="M466.16,9.76c-.72.08-3.68,1.12-4.32,1.12-1.12,0-1.2-1.36-1.2-1.52,0-.8.48-3,1.92-3a12.28,12.28,0,0,1,2.16.4,11.48,11.48,0,0,0,2.16.08c2.48,0,6.16-.32,11.92-.88.72-.72,2.88-3,4.64-3A2.12,2.12,0,0,1,485.6,5.2a3.22,3.22,0,0,1-.48,1.68c-1,2.08-1.2,2.32-1.2,3.44,0,1.76,2.8,28.08,25.44,44.48A78.23,78.23,0,0,0,519.52,61c.4.16.48.24.48.4s-1.44.8-2.64,1.28c-.8.24-4.32,1.68-5,1.92a4.92,4.92,0,0,1-1.44.24c-.88,0-5.68-2.4-11.36-8.64-12.16-13.28-15-26.64-17-36.64-.16,1.28-.32,1.52-1.52,3.6-.08.16-1,3.28-1.2,3.76-2.32,6.64-10.08,22.56-23.44,32.48-4.88,3.6-9.12,5.44-9.92,5.44-.24,0-.72-.16-.72-.48a18.37,18.37,0,0,1,2.24-1.84c16.24-11.92,27-37.36,27-40.8a8.91,8.91,0,0,1,.16-2.48,4.8,4.8,0,0,1,4.32-2.72,4.61,4.61,0,0,1,2.72,1.36c-.32-2.08-1.44-8.24-1.76-9.6Z"/><path class="cls-1" d="M548.72,35.52c0,3.6.16,13.44,1,19.12.16,1,1.12,5.6,1.12,6.56,0,1.44-1.28,3-2.56,3-1.44,0-3.44-2.16-3.68-5.6a56.7,56.7,0,0,0-3.28-16.88c-4.08,6.56-5,8.32-6.16,10.64-.56,1-1.12,1.6-2.16,1.6-2.24,0-2.24-3-2.24-3.52,0-1.92.4-2.32,3-5A88.45,88.45,0,0,0,540,38.16c-1.52-3.44-5-9.6-6.32-10.72s-1.36-1.12-1.36-1.6c0-3.2,4.88-5.76,9.28-5.76a12.52,12.52,0,0,1,4.56.8c-.24-5.6-.4-12.64-.4-15.52,0-1.44,0-2.8,1.76-2.8,1.6,0,4,1.44,4,3.44,0,.8-.64,4.56-.72,5.28-.4,3.68-.72,7.28-1,11.6A4.05,4.05,0,0,1,551,25.76c3.44-3.36,12.64-12.32,20.64-12.32,5,0,8.48,3.2,8.48,8.32,0,2.56-.24,3.52-2.48,12.08-2.08,8.24-2.32,11.84-2.32,13.92,0,4.08,1.84,7,6.64,7A18.85,18.85,0,0,0,593.2,51c1.36-1.12,1.52-1.28,1.68-1.28a.29.29,0,0,1,.32.32c0,1.36-4.64,9-14.8,9-6.72,0-10-4.32-10-11a42.28,42.28,0,0,1,1-8.32c2.48-12.16,2.8-13.52,2.8-16.56,0-1.6,0-6.72-4.4-6.72-5.84,0-15.52,6.88-21,15A37.68,37.68,0,0,0,548.72,35.52ZM546.56,26A6.6,6.6,0,0,0,541,23.44c-.56,0-4.32,0-4.56,3.44,2.24,4.48,3.36,6.64,4.8,9.92,2.32-3.28,5.28-7.52,5.28-9.52Zm-.08,15.76c0-1.2-.08-6.48-.08-7.52-.64,1-3.52,5.12-4.08,6,2.4,7.52,3,9.36,4.16,14.16Z"/></g></g></svg>