<svg xmlns="http://www.w3.org/2000/svg" viewBox="0 0 470.24 73.2"><g id="レイヤー_2" data-name="レイヤー 2"><g id="レイヤー_1-2" data-name="レイヤー 1"><path d="M57.44,18a5.39,5.39,0,0,1,4.24-3.12c1.84,0,5,2.16,5,4.24a4.57,4.57,0,0,1-1.2,2.4,75.63,75.63,0,0,1-7.68,22.8c4.24,5.76,9.12,9,15,12.72.48.32,3.2,1.68,3.6,2.24-.4,1-7.76,3.68-9,3.68-2.56,0-9.84-6.56-14-13.44A29.59,29.59,0,0,1,34.48,61.2c0,.88.08,5.2.08,5.44-.08,3-3.28,5.2-5.36,5.2a3.09,3.09,0,0,1-3-3.2c0-.88.24-5.28.24-5.44l.4-12.8C20.24,53.28,6.72,57.68,3.6,57.68A3.79,3.79,0,0,1,0,53.84c0-2,2.56-2.88,3.68-3.12.72-.08,4.64-.24,5.52-.48,0-6.08.4-36.48.16-38.64h-2c-.72,0-4.24,1-5.12,1A1.72,1.72,0,0,1,.4,11a3,3,0,0,1,3.2-3.2c.4,0,2.32.4,2.8.4H38.24a5.18,5.18,0,0,1,4.08-2.88c1.68,0,4.88,2,4.88,4.32,0,2-2.32,2-3,2H34.72c-.16,3.36-.48,10.4-.48,19.76V48.8c0,4.8.08,7.52.24,10.8A41.3,41.3,0,0,0,49.92,44.32a63.17,63.17,0,0,1-5-23,14.2,14.2,0,0,0-3.68.64c-.32.08-2.16.8-2.4.8A1.78,1.78,0,0,1,37,21c0-1.12.88-3.28,3-3.28.32,0,2.16.24,2.56.24Zm-41,20.08c0,1.6-.08,9.6-.08,11.44,2-.24,7-1.28,10.56-2,0-1.36.16-7.92.16-9.44ZM27.2,34.64c0-1.44.08-8.32.08-9.92H16.56c-.08,3-.08,5.76-.08,8.64v1.28Zm.08-13.28V14.48A12.69,12.69,0,0,0,27,11.6H16.8l-.24,9.76Zm21.6-.24a58.32,58.32,0,0,0,4.4,18.24,77,77,0,0,0,4.24-18.24Z"/><path d="M109.2,26.4c.56-1.2,2.08-4.4,3.2-4.4a1,1,0,0,1,1,.88c0,1.28-3,8.64-3.6,10.32-.16.32-1.76,5.28-1.76,7.36,0,.56,1.2,3.12,1.2,3.76,0,1.28-1.92,1.92-2.88,1.92-3.76,0-7.76-5.68-7.76-14.56A56,56,0,0,1,100,19.6c1.12-5.2,1.44-6.56,1.44-8.56a5,5,0,0,0-.24-1.68,10.68,10.68,0,0,1-.56-1.44c0-.88,1.92-1.6,3.36-1.6,1.92,0,5.36,1.12,5.36,4.88,0,1.84-.16,2.4-2.16,7.92a47,47,0,0,0-3,14.56c0,.4,0,2.16.64,2.16.32,0,.48-.4.56-.64C106.08,34,108.56,27.76,109.2,26.4Zm11.68,38.8c-6.64,6.48-10.4,7.12-11.68,7.12-.4,0-1.52,0-1.52-1,0-.48.48-.88.8-1.12,2.32-1.84,2.64-2.08,2.8-2.24,13.44-12.16,13.44-33.2,13.44-37.44,0-4.64-.24-14.72-3.84-16.16-1.76-.72-1.92-.8-1.92-1.44,0-1,1.84-1.76,3.6-1.76,2.08,0,6.88,1.36,8.4,6.08.8,2.4,1.52,7.52,1.52,14C132.48,38.32,131.6,54.8,120.88,65.2Z"/><path d="M180.48,24l.08,10.64c1.28-.32,7.28-2.56,7.84-2.56s.48.48.48.56c0,1.52-7.2,6-8.32,6.64.08,2.8.32,15,.32,17.44,0,4.48,0,13.6-9,13.6-5,0-9.92-5-9.92-5.92,0-.16.24-.16.32-.16.4,0,1.44.32,1.6.32a22.09,22.09,0,0,0,3.52.24c5.92,0,5.92-3.52,6.08-9.68L173.76,43c-3.2,1.6-7,3.52-9.52,3.52-2.08,0-3.52-2-3.52-4,0-2.8,2.32-3.36,4.64-3.92,1.12-.24,8.08-1.92,8.32-2L173.52,24H168.8c-.8,0-4.24,1.12-4.88,1.12a1.66,1.66,0,0,1-1.76-1.6c0-1.36.88-3.44,3-3.44.48,0,2.56.56,3,.56h5.36c0-1.36,0-7.28-.16-8.48-.08-.8-.16-1-.72-1.36-1.2-1-1.36-1-1.36-1.68,0-2.4,3.6-5.68,6.8-5.68,2.08,0,3,1,3,2.8,0,1.2-.4,6.4-.4,7.52-.08,1.6-.08,3.84-.08,5.92v1h2.72c.72-1.36,1.76-2.56,2.88-2.56,1.92,0,3.84,2.16,3.84,4.08,0,1.52-1.28,1.84-2.88,1.84Zm33.44-12.72a7,7,0,0,1,4.8-2.88,4.88,4.88,0,0,1,4.56,4.8c0,.88-.24,1.12-2.24,3-1.52,1.92-5.36,8.08-7.92,12.24l4.72-.08a4.55,4.55,0,0,1,3.68-2.16,5.12,5.12,0,0,1,4.64,4.56,3,3,0,0,1-1.2,2.08,55.79,55.79,0,0,1-9.28,16.88A49.16,49.16,0,0,0,234.24,63c.64.24,2.32,1,2.32,1.28,0,1-8.08,4.32-10.08,4.32s-9.76-5.12-15.84-14.32C203.92,60.88,195.28,65,186.24,65c-1,0-1.52-.4-1.52-.8,0-.24.48-.48,5-2.08.16-.08,10.8-4.32,17.28-12.72a47.68,47.68,0,0,1-5-15.92c-3.12,9.36-8.24,18.56-17.68,22.8a8.54,8.54,0,0,1-2.48.64.54.54,0,0,1-.56-.56c0-.32.16-.48,1.76-1.84,9.68-8.72,14.24-24.64,14.48-39.6a23.77,23.77,0,0,0-5,.72,22.38,22.38,0,0,1-2.24.48,1.78,1.78,0,0,1-1.84-2,3.11,3.11,0,0,1,3-3.28c.48,0,2.48.56,2.88.56Zm-9.12,3.6A94.21,94.21,0,0,1,203.36,27c1.6,7.2,3.44,11.28,7.76,18.24,2.32-3.6,5.76-10.4,5.76-12.8,0-.64-.4-.64-.72-.64-1.28,0-6.64.4-7.76.4-1.6,0-2.72-.72-2.72-1.92,0-.8.16-1,1.36-3.12,1.68-3,4.24-9,5.76-12.4Z"/><path d="M275,36.48a1.37,1.37,0,0,1,1.28,1.28c0,1-1.2,6.08-1.36,7.2a85.53,85.53,0,0,0-.56,12c0,2.56-3,3.6-5.68,3.6-4.24,0-18.4-4-20.8-27.92-.16-1.76-.24-11.2-.32-12-.08-.4-1-2.48-1-3,0-1.52,1.36-1.68,2.16-1.68,2.56,0,7,2.8,7,5.84a14.25,14.25,0,0,1-.32,3.12,54.29,54.29,0,0,0-.72,8.16c0,17,9.52,19.76,11.2,19.76,2.16,0,2.8-1.84,4.16-5.68.56-1.52,3.2-9.36,3.52-9.92A1.64,1.64,0,0,1,275,36.48Zm30.08,9.28a3,3,0,0,1-2.48-1.28,14.76,14.76,0,0,1-1.2-2.8c-5.12-12.16-13-13-15.92-13.36-4.16-.48-4.32-.48-4.32-1.2,0-1,4.32-1.92,7.44-1.92,12.88,0,21,10.24,21,16.16A4.69,4.69,0,0,1,305.12,45.76Z"/><path d="M335.44,15.52a65.16,65.16,0,0,0-6.72.24c-.72.08-3.68,1-4.32,1a2.49,2.49,0,0,1-2.64-2.24,3.44,3.44,0,0,1,3.44-3.28c.72,0,3.84.48,4.48.48h23.6c-.08-2.4-.24-4-.32-5-1.44-1-1.68-1.44-1.68-2,0-2.48,3.92-4.64,6.24-4.64a3.44,3.44,0,0,1,3.6,3.52c0,.24-.08.56-.08.88a65.36,65.36,0,0,0-.8,7.28c6.64-.08,17.12-.08,23.36-.08a6.55,6.55,0,0,1,4.64-3.12c2.16,0,5.52,2.32,5.52,4.88,0,1.68-2,2.16-3.12,2.16Zm17.68,14.72a2.11,2.11,0,0,1,.56,1.28,21.37,21.37,0,0,1-8,12.24c-2.32,1.6-6.16,3.36-8.48,3.36h-.64c0,3.12.16,16.72.16,19.52,0,2.4-.08,3.2-1.76,4.4a6.7,6.7,0,0,1-3.68,1.44,2.7,2.7,0,0,1-2.8-2.64c0-1.68.56-9.28.64-10.8.4-6.64.64-10.88.64-24.8,0-2.32,0-3-.72-3.92-.4-.56-.64-.88-.64-1.2,0-1.84,3.2-4.32,5.12-4.32a3,3,0,0,1,2.8,1.92h11.44c-2.64-1.92-5.44-5.68-5.44-7.44,0-1.6,1.84-3,3.68-3,4.48,0,4.72,7.52,4.72,8.56,0,.8,0,1.44-.64,1.84h11.2c.24-2.08,1.2-10.32,5.52-10.32,1.84,0,3.68,1.36,3.68,3,0,1.76-3.12,5.6-4.8,7.36h10.64a3.8,3.8,0,0,1,3.44-2.4c2.16,0,5.44,1.92,5.44,4.24a13.66,13.66,0,0,1-.72,2.16c0,4.16.24,22.48.24,26.16,0,7.68,0,16.32-10.16,16.32-2.32,0-5.2-.4-9.36-4.72,0-.08-.24-.32-.24-.4,0-.4.56-.4.8-.4s3.6.32,4.24.32c6.48,0,7.12-3,7.12-9s0-11.28.08-17.68c-1.68,2.32-3.12,2.56-5.28,2.56-11.44,0-13.76-1.76-14.24-3.92-.16-.48-.08-6.4-.08-9.68Zm-15.52,0c-.88,0-.88.72-1,7-.08,3-.08,6.48,0,8.24,6.08-3.2,10.64-11.28,10.32-15.2Zm13.2,30.48c0,2.48-1.76,3.76-4.32,3.76-2.4,0-2.4-1.6-2.4-2.48,0-1.28.16-9,.16-9.68,0-1.44,0-1.6-.32-2a1.62,1.62,0,0,1-.56-1c0-1.84,3.2-4.24,5.12-4.24a2.48,2.48,0,0,1,2.64,1.68h12.24a3.25,3.25,0,0,1,2.72-1.84c1.68,0,5,1.44,5,3.2,0,.24-.08.32-.48,1a1.75,1.75,0,0,0-.16,1c0,1,.4,8.08.4,9.68,0,2.56-2.32,3.44-4.64,3.44s-2.64-1-2.64-2.56ZM363.68,50h-12c-.56,0-.8.48-.8,1v6.4h12.8ZM377,30.24H364c0,.32-.16,1.68-.16,1.92,0,.88-.08,4.72-.08,5.52.08,1,1.28,1.44,3.44,1.44A22.93,22.93,0,0,0,377,37.28Z"/><path d="M425,40.16A5.1,5.1,0,0,1,429,38c2,0,4.08,1.6,4.08,3.52,0,.08-.16,1-.16,1.12a10.28,10.28,0,0,0-.24,3.2c0,2.56.24,15,.24,17.84,0,2,0,2.56-1.2,3.44a6.4,6.4,0,0,1-3.84,1.2c-2.8,0-2.8-1.36-2.88-3h-13v2.08c0,2.08-2.72,3.28-5.28,3.28-2.32,0-2.32-1.12-2.32-4.24,0-2.8.32-16.56.32-19.68,0-1,.08-2.32-.4-2.72-.56-.56-.8-.8-.8-1.2,0-1.92,3.6-4.8,5.76-4.8a2.84,2.84,0,0,1,2.88,2.16Zm0,21.36V43.84H412.32a.65.65,0,0,0-.56.72c-.08,2.4.08,14.24.08,17ZM448.24,7a5.37,5.37,0,0,1,4.56-3.12c1.84,0,4.72,1.68,4.72,3.6a2,2,0,0,1-.24,1,6,6,0,0,0-.48,2.4c0,2.56.48,15.2.48,18,0,1.2,0,2.08-2.08,3.12a9.12,9.12,0,0,1-3.44.88c-.4,0-3,0-3-2.4,0-.24.08-1.2.08-1.44H425.2c-.24,4.4-4.56,4.4-4.8,4.4-3.12,0-3.12-2.4-3.12-4,0-2.4.4-14.32.4-17,0-.72,0-2-.32-2.32-.88-.88-1-1-1-1.6,0-2.08,4-4.16,5.84-4.16a3.08,3.08,0,0,1,3,2.64Zm.56,18.48V10.64H425.92c-.56,0-.8.24-.8.8V25.52Zm12.88,14.64a5.58,5.58,0,0,1,4-2.32c1.76,0,4.56,1.68,4.56,3.84a4.76,4.76,0,0,1-.4,1.76,8.28,8.28,0,0,0-.16,2.56c0,2.48.32,14.72.32,17.52,0,2.16,0,2.72-1.28,3.68a6.88,6.88,0,0,1-4.24,1.36c-2.8,0-2.88-1-2.88-3.28H448.4V67c0,2.4-2.72,3.92-4.56,3.92-3.12,0-3.12-2.24-3.12-3,0-3.28.64-19.6.32-23.28-.72-1-1-1.44-1-1.84,0-1.92,3.2-4.56,5.36-4.56a3.28,3.28,0,0,1,3.2,1.92Zm0,21.36V43.84H449c-.4,0-.8.56-.8.88-.08,2.4.08,14.16.08,16.8Z"/></g></g></svg>