<svg xmlns="http://www.w3.org/2000/svg" viewBox="0 0 467.68 72.24"><g id="レイヤー_2" data-name="レイヤー 2"><g id="レイヤー_1-2" data-name="レイヤー 1"><path d="M32.48,10.08c0,.48-.24,3.92-.24,4.64-.24,4.16-.32,9.28-.32,15,0,2.24.08,15.76.08,19,0,2.64.32,14.48.32,16.8,0,3.76-2.88,4.8-4.08,4.8-1,0-1.68-1.12-1.68-2.72,0-.88.24-5,.24-5.44l.48-13.52C21.2,51.2,6.48,55.76,3.36,55.76A3.15,3.15,0,0,1,0,52.8c0-1.36,1.28-2.72,3.84-2.72a29.44,29.44,0,0,0,5.6-.48c.24-2.08.4-32.56.4-35.28a12.58,12.58,0,0,0-.48-4.24H6.56c-.72,0-3.68,1-4.32,1s-1.36-.32-1.36-1,.48-2.88,2-2.88c.4,0,2.4.4,2.8.4H38.24c.56-.8,1.68-2.48,3-2.48S45,6.72,45,8.32c0,1.36-1.44,1.76-2.48,1.76ZM14.16,36.56,14.08,49A88.78,88.78,0,0,0,27.36,46.8l.16-10.24Zm.16-13.36-.16,10.88H27.6l.08-10.88Zm.32-13.12L14.4,20.8H27.68c0-1,.08-8.48.08-8.64a19.5,19.5,0,0,1-.48-2.08Zm42.8,7.36c.8-1.92,2.08-2.64,3-2.64,1.6,0,3.92,1.44,3.92,3.12a4.68,4.68,0,0,1-1.12,2.16A27.44,27.44,0,0,1,62.56,24a68.64,68.64,0,0,1-7.12,19.28A50.35,50.35,0,0,0,69.92,55.92c.72.4,4.24,2.24,4.24,2.48S68.64,61.2,67,61.2c-2.48,0-9.6-7-14.24-13.92C51,49.36,45.6,55.84,37.2,58.56a16.09,16.09,0,0,1-2.88.64c-.24,0-.56-.16-.56-.32a12.68,12.68,0,0,1,2.4-1.52C42,54.08,46.56,49,50.4,43.52,49,40.16,45.84,32.88,45.28,19.76c-.24,0-3.52.16-3.6.16-.48.08-2.64,1-3,1a1.45,1.45,0,0,1-1.28-1.2c0-.32.48-2.56,1.92-2.56.64,0,3.52.24,4.08.24ZM46.88,19.68A50.59,50.59,0,0,0,52.64,39.2c3.6-7.28,5-16.16,5.36-19.6C56.24,19.6,48.48,19.68,46.88,19.68Z"/><path d="M103.2,36.24c1,0,2.08-2.56,6.32-12.8.4-.88.88-2.32,1.52-2.32.24,0,.4.32.4.48,0,1-5.2,15.28-5.2,18.24,0,.64.88,3.2.88,3.68A1.6,1.6,0,0,1,105.44,45c-1.68,0-6.72-3.84-6.72-14.24A64,64,0,0,1,100.4,17.6c1-4.48,1.36-6.08,1.36-8.24a4.74,4.74,0,0,0-.4-2.16,6,6,0,0,1-.48-1c0-.48,1.44-.8,2.64-.8,2.32,0,3.76,1,3.76,4.08,0,1.84-.24,2.56-2.48,9.2A45.83,45.83,0,0,0,102,33.2C102,36,103,36.24,103.2,36.24Zm18.16-24.08c-1.36-.4-1.52-.4-1.52-.8,0-.56,1.36-1.2,2.88-1.2,7.36,0,8.48,9.76,8.48,20.24,0,18-5.68,31.92-18.72,40.32a5.44,5.44,0,0,1-3.12,1.12c-.48,0-1-.16-1-.56s1-1,1.36-1.36c16.16-12.4,16.16-33.6,16.16-39.52C125.84,25.52,125.84,13.52,121.36,12.16Z"/><path d="M178.4,23l.08,12c1.2-.56,2.56-1.2,3.84-1.92a20.54,20.54,0,0,1,2.8-1.6c.08,0,.24.08.24.4,0,1.6-4.24,4.4-6.88,6.08.08,2.8.32,15,.32,17.52,0,5.84-.72,12.8-8.32,12.8-5.68,0-8.88-3.44-8.88-4.08,0-.4.32-.4.48-.4.8,0,4.08.4,4.72.4,6.88,0,7-5.76,7-12.24L174,40.8c-2.88,1.6-7.52,4.24-9.76,4.24a2.88,2.88,0,0,1-3-2.72c0-2.4,2.64-2.88,5-3.36a66.53,66.53,0,0,0,7.84-2.24L173.92,23h-6.4c-.64,0-3.2.88-3.76.88-.4,0-1.28-.24-1.28-1,0-.64.48-2.8,1.92-2.8.48,0,2.32.48,2.72.48h6.72c-.08-3.36-.08-4.88-.24-10.4-.64-.4-1.28-.72-1.28-1.68,0-2,1.92-4.72,4.4-4.72,2,0,2,1.28,2,2.4,0,2.32-.32,12.32-.32,14.4h3.28c.64-1,1.6-2.16,2.8-2.16a3.24,3.24,0,0,1,3,3.28c0,1.28-1,1.36-2.56,1.36Zm15.92-9.2c-.72,0-3.92.88-4.56.88s-1.52-.24-1.52-1.12.48-2.64,2.24-2.64c.4,0,2.32.32,2.72.32h21.2c.64-.72,1.6-1.92,3-1.92a3.6,3.6,0,0,1,3.6,3.36c0,.64-.32,1-3.44,4.8-1.2,1.52-7.76,9.52-7.76,10.32a.85.85,0,0,0,.8.72h6.72c.48-.56,1.76-2.16,3.44-2.16a3.11,3.11,0,0,1,3.12,3A2.12,2.12,0,0,1,223.2,31a79.78,79.78,0,0,1-10.4,18.16A62.43,62.43,0,0,0,229,61.6c.72.4,5,2.24,5,2.4,0,.64-6.32,3-8.08,3-2.16,0-7.44-2.8-16.24-14.56-3.84,3.76-6,5.52-9.2,7.2-6.32,3.28-12.48,4.64-14.08,4.64-.48,0-1.36-.08-1.36-.64s1.84-1.12,2.72-1.44c1.28-.4,10.48-3.44,19.52-13.36a56.26,56.26,0,0,1-7.12-19.2C196.88,46.32,184.72,56.16,181,56.16c-.32,0-.72,0-.72-.4s3.12-3,3.68-3.52c5.36-5.68,7.76-9.36,10.32-17.2a89.56,89.56,0,0,0,3.6-19.84,1.21,1.21,0,0,0-1.12-1.36Zm8.64-.08a4.44,4.44,0,0,0-.24,1.36c-.64,4.16-1.12,7-1.84,11.28a53.2,53.2,0,0,0,9,19.28A52.25,52.25,0,0,0,215.12,37a32.48,32.48,0,0,0,2.32-6.16c0-.32-.08-.4-.4-.4-.72,0-8.72.56-10.4.56-.8,0-2.08,0-2.08-1.28,0-1.12.56-1.92,2.24-4.24,2.24-3.2,5.6-8.8,7.28-11.68Z"/><path d="M273.36,43a61.16,61.16,0,0,0-1.28,11.36c0,.4.08,2.16.08,2.48,0,2.56-2.16,3.12-4.48,3.12-11.2,0-19.84-14.24-20.32-29.76,0-1.28-.32-11-.56-11.76a16.76,16.76,0,0,1-.64-1.84c0-1,.32-1.28,1.12-1.28,2.08,0,5.76,2.56,5.76,5.28,0,.48-.24,2-.4,3.2a54.48,54.48,0,0,0-.72,8.56c0,16.24,9.52,21.28,12.56,21.28,2.88,0,3.44-1.6,6.56-10.4.48-1.28,2.32-6.56,3-6.56.4,0,.48.32.48.56C274.56,38.24,273.52,42.24,273.36,43Zm31.84,1.6c-1.12,0-1.28-.48-3.76-5.36C299.36,35,295,26.72,282.8,26.72c-.72,0-1,0-1-.48,0-.8,3.36-1.52,6.24-1.52,13.36,0,20.56,11,20.56,16.24A3.73,3.73,0,0,1,305.2,44.64Z"/><path d="M333.92,14.56c-1,0-5.6.08-7,.32a29.05,29.05,0,0,1-3.6.8,1.5,1.5,0,0,1-1.52-1.44c0-1,.8-3,2.64-3,.8,0,4.08.48,4.8.48h24.24c-.16-1.76-.16-2.64-.48-5.92-.8-.32-1.6-.8-1.6-1.6,0-2.24,2.88-4.16,4.88-4.16,1.44,0,2.32,1.2,2.32,3,0,1.36-.8,7.44-.88,8.64,8.56-.08,15.44-.08,25.36-.08.4-.56,2.16-3,3.6-3,1.84,0,4.64,2.16,4.64,4.32,0,1.28-1.12,1.6-2.16,1.68-.64.08-2,.08-3.6.08-3.2,0-7.44-.08-8.64-.08Zm43.36,23.6c-2.8,4.64-4.56,4.64-6.48,4.64-13.44,0-13.44-2-13.44-4.88,0-1.12.08-6.16.08-7.2a9.89,9.89,0,0,0-.16-1.44H351.6a4.09,4.09,0,0,1,.48,1.76,21.77,21.77,0,0,1-8.4,12,19.27,19.27,0,0,1-7.76,3.12c-.16,0-.32,0-.32-.24,0-.4,3.2-2.4,3.76-2.88,5.12-4.32,8.24-9.84,8.24-12.24a3.06,3.06,0,0,0-.4-1.52H334.32c-.16,3.36-.24,5.68-.24,11,0,4.16.24,22.48.24,26.16,0,2.72-.32,3.36-1,4.08A4.73,4.73,0,0,1,330.16,72a1.75,1.75,0,0,1-1.52-1.92c0-1,.32-5.84.4-6.4.32-4.88.88-13.92.88-22.4V33.84a14.22,14.22,0,0,0-.32-3.12,10,10,0,0,1-.72-2c0-1.36,1.6-3.76,3.44-3.76,1,0,1.6.8,2,1.76H347.2c-2.08-1.92-5.92-6.16-5.92-7.92a2.62,2.62,0,0,1,2.8-2.48,2.91,2.91,0,0,1,2.72,1.6,28.55,28.55,0,0,1,1.84,8.8h12.24A34.57,34.57,0,0,1,363,17.36a2.45,2.45,0,0,1,2.32-1.28,2.79,2.79,0,0,1,3,2.56c0,2.08-3.76,6.16-5.92,8.08h13.6c.64-1.2,1.52-2.4,2.72-2.4,1.6,0,4.16,2.16,4.16,3.76,0,.48-.08.64-.72,2,0,1,.24,22.64.24,27,0,7.6,0,15.2-9.28,15.2a9.13,9.13,0,0,1-8.08-4.4c0-.08.16-.16.32-.16a4.27,4.27,0,0,1,1,.24,11.75,11.75,0,0,0,2.8.24c7,0,8.16-4.8,8.16-11.84Zm-28.72,21.6c0,1.52,0,3.76-3.28,3.76-1.12,0-1.28-.72-1.28-1.76,0-1.84.4-9.84.4-11.52a1.61,1.61,0,0,1-.88-1.2c0-1.36,2.24-4.08,3.84-4.08,1,0,1.44,1,1.68,1.76h13.84c.56-1,1.2-1.92,2.16-1.92,1.36,0,3.6,1.44,3.6,2.8a7.4,7.4,0,0,1-.4.8,1.67,1.67,0,0,0-.24,1c0,1.6.48,8.48.48,9.92,0,.72,0,3-3.36,3-1.52,0-1.52-.88-1.52-2.56ZM363.76,50c0-.56-.32-.88-1-.88H349.6c-1,0-1,1.12-1,2,0,.72-.08,4-.08,4.64v1.6h15.28ZM377.2,30.24c0-.64-.88-1-1.36-1H361.52l-.24.4c0,.32-.16,1.52-.16,1.84,0,.88-.08,5.52-.08,5.68.08.64.24,1.92,5,1.92,6.24,0,9.12-1.12,11.2-2Z"/><path d="M409.76,63.52v2.56c0,2.24-2.64,2.8-3.84,2.8s-1.28-.8-1.28-3.12c0-3.6.16-19.44.16-22.64a2.09,2.09,0,0,1-.8-1.44c0-1.68,2.32-4.24,4.24-4.24a2.13,2.13,0,0,1,2,1.92H424.8a4.65,4.65,0,0,1,3.28-1.92,2.77,2.77,0,0,1,2.64,3,7.72,7.72,0,0,1-.24,1.44,34.3,34.3,0,0,0-.08,3.92c0,2.72.24,14.56.24,17,0,1.68,0,3.68-3.76,3.68-1.52,0-1.52-1-1.52-1.68v-1.2Zm15.76-20c0-.88-.08-1.44-1.12-1.44H410.72c-1.12,0-1.12.48-1.12,2.48l.08,16.16h15.84Zm-2.16-16.08v1.84c0,1.36-2.08,2.24-3.2,2.24s-2.16-.4-2.16-1.44c0-1.28.24-7,.24-8.24,0-1.52.16-10.88.08-12,0-.4-1-1.84-1-2.16,0-1.76,3.2-3.44,4.64-3.44.72,0,1.36.64,1.44,2.56h25c1-1.52,2.4-2.8,4.16-2.8a3,3,0,0,1,3.12,2.72c0,.56-.72,2.72-.72,3.2,0,2.8.48,15.2.48,17.76,0,2-1.84,3.36-4,3.36-1.92,0-1.92-.64-1.84-3.6ZM449.6,10.72c0-.64-.24-1.36-1-1.36H423.28V24.72H449.6Zm-3.12,52.8v2.32c0,2-2.24,3.28-3.92,3.28-1.2,0-1.2-.88-1.2-2.72,0-.4.24-17,.24-20.24,0-.64-.08-1.36-.16-3a1.89,1.89,0,0,1-.72-1.44c0-1.68,2.32-4.24,4.08-4.24A2.17,2.17,0,0,1,447,39.36H461.6c1-1.12,2-1.92,3.2-1.92a2.91,2.91,0,0,1,2.88,3c0,.64-.32,3.52-.32,4.08,0,2.88.32,15.44.32,18,0,1.92,0,3.84-3.92,3.84-1.52,0-1.6-1-1.6-1.92v-1Zm15.84-20.4c0-.64-.24-1-1-1H447.44c-1.12,0-1.12.48-1.12,2.48l.08,16.16h15.92Z"/></g></g></svg>