<svg xmlns="http://www.w3.org/2000/svg" viewBox="0 0 719.99 73.28"><defs><style>.cls-1{fill:#221714;}</style></defs><g id="レイヤー_2" data-name="レイヤー 2"><g id="レイヤー_1-2" data-name="レイヤー 1"><path class="cls-1" d="M1.28,27.84c-.24,0-1.28,0-1.28-.48s.32-.56,2.88-2a71.87,71.87,0,0,0,19.2-16c1.36-1.76,2.32-2.88,4.48-2.88a2.75,2.75,0,0,1,2.88,2.8c0,.56-.08,1.36-1.36,2.64A99.45,99.45,0,0,1,20.24,19c-.08,7.28-.16,13.12-.16,17.12,0,4.16.16,18.72.24,21,.08,1.44.48,8.48.48,10.08a5.78,5.78,0,0,1-5.36,6c-1.76,0-1.76-1.92-1.76-2.48,0-1.28.48-7.52.56-9,.88-15.92.88-31.28.88-39.2C9.84,26,4.32,27.84,1.28,27.84ZM40.64,56c.48,2.16,1.12,5.12,16.16,5.12,11,0,16.08-4.4,17.12-5.36s1.36-1.2,1.84-1.2a.62.62,0,0,1,.64.64c0,2.72-2.48,7-3.92,8.8-2.8,3.6-5.76,4.56-11.6,4.56-3.6,0-12.4-.64-18.24-3.2-6.64-3-6.8-7.92-6.8-14.56,0-4.64.24-27.44.24-32.64a8.82,8.82,0,0,0-.16-1.44,2.86,2.86,0,0,1-1.44-2.4c0-2.24,2.4-5.52,5-5.52,2.24,0,2.24,2.8,2.24,4.24a5.67,5.67,0,0,1-.08,1.12c-.4,3.2-.72,20.8-.88,24.72a115.73,115.73,0,0,0,17-13.52c.48-1.44,1.28-3.6,3.92-3.6a3.91,3.91,0,0,1,4,4.16c0,2.88-2.72,4.4-9.44,8.16-9.68,5.36-12.48,6.8-15.68,8C40.4,44.64,40.24,54.08,40.64,56Z"/><path class="cls-1" d="M79.2,56.4c-.16,0-.88-.08-.88-.72a2.66,2.66,0,0,1,.8-1.68,51.4,51.4,0,0,0,8.4-17c1-3.44,1.2-4.24,3-4.24a2.69,2.69,0,0,1,2.72,2.88C93.28,40.48,82.32,56.4,79.2,56.4ZM88.56,15c.48-.08,3-.88,3.2-.88s.32.24.32.32c0,1-3.28,6.48-8.24,6.48-2,0-3.52-1.2-3.52-3,0-1.6,1.2-2.8,3.2-2.8.32,0,2,.24,2.4.24A14,14,0,0,0,88.56,15Zm14.72,11.84c.24-.56,1.28-2.56,2.8-2.56s4.08,2.4,4.08,4c0,1.76-2.4,1.76-3.68,1.76-1.12,0-6.8-.08-8.08-.08l.08,4.48A61.23,61.23,0,0,0,107,41.76c2.32,1.52,2.56,1.68,2.56,2.24,0,1.6-2.64,3-3.92,3-2.08,0-5.44-5.12-7.2-7.92,0,3.44.4,20.48.4,24.32,0,4.4,0,4.88-1,6.08a4.37,4.37,0,0,1-3.52,1.84c-1.36,0-1.76-1-1.76-2.4,0-.56.32-3.6.32-4.24.08-2.4.48-14,.56-16.64L94,30H90.4c-1,0-3.68,0-4.56.08-.48.08-3,.8-3.6.8A1.23,1.23,0,0,1,81,29.6c0-.8.56-3,2.32-3,.32,0,1.84.24,2.24.24l8.4.08c0-3.28,0-18.56-.56-20.8a1.74,1.74,0,0,1-1.2-1.52C92.24,2.72,95.52,0,97.52,0c1.6,0,1.68,1.6,1.68,2.16s-.4,3.76-.4,4.4c-.16,4.4-.32,15.2-.4,20.4Zm-2.48-6.56c-.32,0-.48-.08-.48-.4,0-1,3.36-7.84,4.72-10.08a2.67,2.67,0,0,1,2.48-1.6,2.77,2.77,0,0,1,3,2.48C110.48,14.4,101.2,20.32,100.8,20.32Zm43.76-4.88c.64-1,1.92-3.12,3.84-3.12s4.48,2.16,4.48,4.4c0,1.84-1.76,1.84-3.28,1.84H118.16c0,6.88-.48,17.6-1,22C115,61.84,103.12,67.44,101.92,67.44c-.32,0-.48-.08-.48-.4.08-.16,3.44-4.64,3.92-5.44,6.56-10.48,7.52-21.36,7.52-38.72a15.66,15.66,0,0,0-.16-3.12,3.64,3.64,0,0,1-1-2.16c0-1.68,2.4-4.72,4.48-4.72,1.84,0,2,1.6,2.08,2.56H129c-.08-5.36-.08-5.92-.56-7.92a2.24,2.24,0,0,1-1.2-2c0-2.24,2.64-5,5-5,2.24,0,2.56,2.16,2.56,3.36,0,.24-.16,1.44-.16,1.68-.08.72-.48,8.72-.56,9.92Zm2.08,47.12c1.36-1.76,3-2.88,3.84-2.88,1.84,0,4.64,2.8,4.64,4.56,0,1.92-2.08,1.92-2.72,1.92-2.56.08-15.2,0-18.08,0H129.6c-3.12,0-12.16,0-14.4.32a22.54,22.54,0,0,1-2.48.56A1.83,1.83,0,0,1,111,65.28c0-.64.4-2.88,2.48-2.88.8,0,4.72.4,5.6.4,3,.16,7.84.16,11,.16.08-6.16.08-13.52.08-19.68-1.36.08-7.12.24-7.92.32a20.46,20.46,0,0,1-2.16.4,1.43,1.43,0,0,1-1.44-1.44c0-1,.8-3,2.24-3,.08,0,2.4.4,2.72.48.88.08,5.44.08,6.48.08,0-1.68-.16-8.4-.24-10.4-.08-.56-.08-.72-.32-1-.8-.72-1-.88-1-1.44,0-1.68,3.28-4.32,5-4.32a2.09,2.09,0,0,1,2.24,2.32c0,.32-.24,2.08-.32,2.48-.24,2.08-.4,8.32-.48,12.4l7.68-.16c1-1.52,1.92-2.72,3.44-2.72a4.39,4.39,0,0,1,4.08,4.16c0,1.52-1.28,1.68-2.08,1.76-1.6.08-11.12,0-13.2,0V63Z"/><path class="cls-1" d="M185.84,39.44c1.6-1.68,2.8-1.92,3.52-1.92,1.6,0,3,1.36,3,3.52,0,.16-.24,1.12-.24,1.36a18,18,0,0,0-.08,2.88c0,2.48.24,14.8.24,17.6,0,1.84,0,4.4-4.08,4.4-1.92,0-1.92-.8-1.92-3h-15v2.32c0,2.16-2.24,3.12-4.16,3.12-1.6,0-1.6-1.2-1.6-3.84,0-3.12.16-18.72.16-22.24a2.32,2.32,0,0,1-.8-1.6c0-1.84,2.56-4.56,4.48-4.56a2.4,2.4,0,0,1,2.32,1.92Zm.56,21.44v-17c0-.8,0-1.12-.8-1.12H171.92c-.48,0-.72.08-.8.48s.08,15.84.08,17.6ZM209.52,6.8c1.92-2.8,3.92-2.8,4.4-2.8a3.34,3.34,0,0,1,3.36,3.12c0,.48-.08.56-.48,1.76a3.58,3.58,0,0,0-.24,1.76c0,2.24.48,15.44.48,17.36,0,2.48-2.08,3.76-4.32,3.76s-2.16-.32-2.16-3.6H184.88v1.52c0,1.52-2.24,2.56-3.52,2.56s-2.48-.8-2.48-1.76c0-.8.24-4.56.24-5.44l.08-13.92c0-1.12,0-1.2-.24-1.6-.72-1-.8-1-.8-1.52,0-1.84,3.2-3.76,5-3.76,1,0,1.68.88,1.76,2.56Zm1,18V11.2c0-.48-.08-1.12-.64-1.12H184.8V24.8Zm12.16,14.64c.48-.48,1.84-1.92,3.52-1.92a3.29,3.29,0,0,1,3.12,3.36c0,.56-.32,3.2-.32,3.84,0,2.56.32,15.12.32,18,0,2.16,0,4.56-4.24,4.56-2,0-2-1-2-3h-15v2c0,2.16-2.4,3.68-4.24,3.68-1.52,0-1.52-1.44-1.52-3.52,0-2.88.24-17.2.24-20.4,0-.56-.08-1.84-.16-2.4a2,2,0,0,1-.72-1.6c0-1.84,2.48-4.56,4.4-4.56a2.34,2.34,0,0,1,2.4,1.92Zm.56,21.44v-17c0-.8,0-1.12-.72-1.12H208.72c-.48,0-.72.08-.8.48s.08,15.84.08,17.6Z"/><path class="cls-1" d="M280.4,21.12c3.36,0,3.6,4.88,3.6,6.32,0,11.2-17,31.2-25,31.2-2.48,0-3.2-2.08-3.92-4.08a24.46,24.46,0,0,0-1.84-3.92A10.12,10.12,0,0,1,251.92,46c0-14.32,13.52-31.52,34.32-31.52,13.36,0,24.88,8.88,24.88,24.32,0,21.36-20.24,27.6-27.2,27.6-.24,0-1,0-1-.64,0-.32,1.92-1.12,2.32-1.2,19.2-7.68,19.52-23.12,19.52-26.56,0-12.24-7.44-20.64-20.32-20.64-14.48,0-27,15.2-27,28.88,0,2,.4,6,2.24,6,5.2,0,20.48-17.36,20.48-27.28,0-.48-.4-2.64-.4-3A.71.71,0,0,1,280.4,21.12Z"/><path class="cls-1" d="M380.88,15.28A3.88,3.88,0,0,1,385,19.12c0,.8-1.76,4.24-2,5.12-3,10.64-8.72,30-37.84,40.4a20.06,20.06,0,0,1-6.4,1.44c-.24,0-1.28,0-1.28-.56,0-.24.16-.32,1.44-.8a67.29,67.29,0,0,0,27.6-20.64c6.24-8.16,10-18.8,9.92-22.4-6.48.24-21.12,1.68-27,2.48A23.34,23.34,0,0,0,344,25.6c-3,1.2-3.36,1.36-3.92,1.36-1,0-1.68-.8-1.68-2.64,0-4.32,2.32-4.32,9.84-4.32,10.8,0,22.16-1.12,26.88-1.6C377,16.56,378.4,15.28,380.88,15.28Z"/><path class="cls-1" d="M410.16,29.6c8.72,0,16.4,2.72,16.4,7,0,2.24-1.92,3.2-3.6,3.2-1.2,0-1.44-.24-4-2.48a43.9,43.9,0,0,0-9.12-5.6c-1.68-.72-1.84-.8-1.84-1.12C408,29.6,409.36,29.6,410.16,29.6Zm33.92,17.92c-3.36,3-19.12,16.88-28.16,16.88a4.6,4.6,0,0,1-4.48-4.24c0-1.52.4-2.16,1.36-2.16,4.08,0,7.92,0,20.88-9.36,1.6-1.12,15.6-11.44,25.52-23.36,2.16-2.64,2.4-3,2.72-3,.56,0,.8.56.8,1.12C462.72,26.48,452.56,40.08,444.08,47.52ZM414,15.52c4.4,0,16.8,1,16.8,6.88,0,2.8-2.48,3.28-3.6,3.28s-1.36-.24-3.92-2.48a41.48,41.48,0,0,0-8.48-5.28c-.72-.32-2.56-1.12-2.56-1.44C412.24,15.52,413.36,15.52,414,15.52Zm42.32,2.32c-1.28,0-1.6-.32-4.8-4.24a27.25,27.25,0,0,0-4.88-4.8c-.48-.32-.72-.48-.72-.8s.48-.4.88-.4c4.16,0,11.36,3.68,11.36,8.08C458.16,16.56,457.92,17.84,456.32,17.84Zm8.16-5.28c-1.28,0-1.52-.24-4.08-3.44a30.11,30.11,0,0,0-5.84-5.76.75.75,0,0,1-.48-.64c0-.4.48-.4.88-.4,4.16,0,11.36,3.68,11.36,8.08C466.32,11.52,465.92,12.56,464.48,12.56Z"/><path class="cls-1" d="M508.64,48.64c-12.8,13.84-33.28,18.16-34.8,18.16-1,0-3-.4-3-1.2,0-.32,2.56-1.12,3.52-1.44,15.84-4.72,25.36-14.56,30.48-19.92A53.55,53.55,0,0,0,497,39c-.48-.32-.64-.4-.64-.72a.9.9,0,0,1,1-.8c1.52,0,6.16,1.2,10.64,3.12,8.8-10.88,10.24-16.16,10.24-16.72s-.56-1-1.6-1c-1.68,0-8.64,1.92-10.16,1.92a4.51,4.51,0,0,1-3.12-1.2c-7,9-17.6,16.4-23.12,16.4-.48,0-1.76-.08-1.76-.64,0-.16,3.68-2.32,4.88-3.2,10.88-8.08,17.52-18.56,18.4-21.92.56-2.24,1-3.6,2.8-3.6s4.08,1.52,4.08,3.68A6.29,6.29,0,0,1,507,18c-.32.48-1.84,2.24-2.08,2.64a1.79,1.79,0,0,0,1.84,1.2c2,0,5.52-.72,11-2.64,2.8-1,4.56-1.6,5.6-1.6,2.4,0,4.16,1.36,4.16,3.52,0,1.28-.32,1.68-2,4-1,1.52-3.2,5-4.24,6.88a94,94,0,0,1-8.08,11.6c2.72,1.92,7.28,5.28,7.28,9.12a2.39,2.39,0,0,1-2.56,2.72c-1.68,0-2-.4-4.72-3.84a25.57,25.57,0,0,0-3.6-4Z"/><path class="cls-1" d="M548.89,53.46c0,1.95.35,5.5,1.25,5.5s2.35-3.75,3.05-3.75a.34.34,0,0,1,.35.35,15.15,15.15,0,0,1-.45,1.75,16.16,16.16,0,0,0-.8,4.6c0,.3.05,1.65.05,1.9,0,.75-.65,2-1.6,2-3.5,0-4.1-8.85-4.1-12.25a78.8,78.8,0,0,1,2.05-16.75,22.6,22.6,0,0,0,.55-4,5.44,5.44,0,0,0-.25-1.6,3.75,3.75,0,0,1-.25-.8,1,1,0,0,1,1-.75c1.75,0,3.45,2.15,3.45,4.1,0,1.4-.45,2.7-1.4,5a16.86,16.86,0,0,0-1.1,3A50.82,50.82,0,0,0,548.89,53.46Zm10.85-14.65c-.3-.2-.65-.4-.65-.85s.4-.55.65-.55,1.35.35,1.6.4a7.93,7.93,0,0,0,1.55.1,28.59,28.59,0,0,0,8.7-1.45,3.34,3.34,0,0,1,1.6-.45c.6,0,3.85.3,3.85,2.05,0,1.35-1,1.55-3.75,2-3.4.65-10.5,5.15-10.5,10.7,0,5.4,6,5.55,7.8,5.55a30.81,30.81,0,0,0,4.95-.3c.25-.05,2.3-.4,2.5-.4,1.2,0,3.55,1.2,3.55,2.4,0,2.15-5.15,2.4-7.55,2.4-3.6,0-12.9,0-12.9-8.6,0-4,3.15-9,6.65-11.4C564.69,40.46,562,40.26,559.74,38.81Z"/><path class="cls-1" d="M611.19,61.66c4.7-1.85,14.2-6,14.2-14.85,0-4.7-2.85-9.3-9.45-9.3-2.1,0-7.35,0-18.4,8.15-.5.4-2.65,2.2-3.1,2.5a5,5,0,0,1-2.65,1c-1.6,0-4.25-1.75-4.25-3.1a1.06,1.06,0,0,1,1-.95c.25,0,1.55.2,1.8.2,2,0,5.25-1.9,6.3-2.55,6.45-4.05,13.1-8.25,19.65-8.25,4,0,13,2.25,13,11.9,0,14.4-17.25,17.1-18.85,17.1-.7,0-1.65-.15-1.65-.6C608.69,62.66,608.94,62.56,611.19,61.66Z"/><path class="cls-1" d="M656.19,47c0,.1-.45,2.3-.5,2.55a42.49,42.49,0,0,0-1.1,8.15c0,.25,0,1.35,0,1.6,0,1.35-1.1,2.1-3,2.1-6.35,0-12.65-8.1-12.9-18.85,0-.85-.15-7-.3-7.45a5.56,5.56,0,0,1-.4-1c0-.8.35-1,1-1,1.35,0,3.75,1.75,3.75,3.5,0,.15-.25,1.9-.25,2.1a41.13,41.13,0,0,0-.45,5.25c0,10.15,5.85,13.15,7.6,13.15s2.25-1.45,3.85-6.1c.4-1.15,1.6-4.55,2.25-4.55A.53.53,0,0,1,656.19,47Zm8.3-8.1c1.2,0,8.6.6,11.9,6.9a10.69,10.69,0,0,1,1.05,3.4,2.61,2.61,0,0,1-2.3,2.6c-.9,0-1.35-1-1.95-2.4-2.35-5.2-5-8.25-11.1-8.75-1.6-.15-1.8-.15-1.8-.6C660.29,39.46,663,38.91,664.49,38.91Z"/><path class="cls-1" d="M700.19,51c0-4,1.2-7.85,5.4-12.4a26,26,0,0,0,1.75-2c0-.2-.25-.2-.3-.2-1.4,0-16.5,5.2-18.3,5.2a2.8,2.8,0,0,1-3-2.9c0-.6.4-1.45.75-1.45s2.3.55,2.75.55c5.15,0,21.8-4.35,23.5-5.2,2.5-1.3,2.7-1.4,3.5-1.4,1.5,0,3.8,1.35,3.8,3,0,1.3-1.25,1.45-3.25,1.7A15.88,15.88,0,0,0,702.29,51c0,6.9,8.9,9.6,10.1,9.8a4.15,4.15,0,0,1,3.7,4.1c0,1.1-1.15,1.5-2.15,1.5C709.94,66.36,700.19,61.36,700.19,51Z"/></g></g></svg>