<svg xmlns="http://www.w3.org/2000/svg" viewBox="0 0 461.19 489.67"><defs><style>.cls-1{fill:#fd9e9e;}</style></defs><g id="レイヤー_2" data-name="レイヤー 2"><g id="レイヤー_1-2" data-name="レイヤー 1"><path class="cls-1" d="M461.19,244.84c-.93,57.57-31.72,100.19-55.94,137.22-28.85,44.1-60.86,86.44-107,101.41-47.48,15.39-99.6-.86-147.08-16.26-46.18-15-97.74-31.71-126.59-75.8C.33,354.37.92,302.4,0,244.83.92,187.25.34,135.28,24.57,98.25,53.42,54.15,105,37.42,151.16,22.45,198.64,7.06,250.76-9.19,298.23,6.21c46.18,15,78.18,57.3,107,101.4C429.48,144.64,460.27,187.27,461.19,244.84Z"/></g></g></svg>