<svg xmlns="http://www.w3.org/2000/svg" viewBox="0 0 150.96 72.56"><defs><style>.cls-1{fill:#221714;}</style></defs><g id="レイヤー_2" data-name="レイヤー 2"><g id="レイヤー_1-2" data-name="レイヤー 1"><path class="cls-1" d="M38.08,58.64c0,1.2.4,6.48.4,7.52,0,3.44-1.68,6.4-4,6.4-1.68,0-2.72-1.76-2.72-3.76,0-2.4.24-6.88.48-11.36.16-2.72.56-9.84.64-17.52-4.16.08-23,.16-25.52.48-.88.08-4.72,1.6-5.6,1.6C.56,42,0,41,0,39.84c0-1.52,1.2-4,3.12-4,.8,0,4.32.72,5,.72l24.72.32c.08-7,.08-21.76.08-22.64a9.86,9.86,0,0,0-1-4.8c-5.76.08-10.32.16-13.36.16-.88,0-2.24,0-2.88.08s-3.76,1.2-4.4,1.2c-1.12,0-1.84-.4-1.84-1.52,0-.88.48-3.84,2.4-3.84.72,0,3.36.48,4,.56,1.36.16,12.8.32,19.28.32,1.36,0,18.08-.24,20.72-.24.56-.72,1.92-2.48,3.44-2.48A4.27,4.27,0,0,1,63.2,7.6c0,2-2.24,2.08-3.92,2.08s-17.44-.16-20.64-.24a6.43,6.43,0,0,0-1,3v24.4L63,36.56c1.84-3.52,3.68-3.84,4.4-3.84,2.48,0,4.8,3,4.8,5.2,0,1.76-1.92,2.32-5.12,2.32-3.84,0-24.88-.24-29.36-.32Zm-23.84-31c-2.72,0-3.6-1.36-3.6-2.8a2.94,2.94,0,0,1,3-2.88c.16,0,1.6.24,1.76.24a25.44,25.44,0,0,0,3.76.24c1.12,0,6.48-.56,6.64-.56.4,0,.64.16.64.4C26.32,22.8,20,27.68,14.24,27.68Zm39.52-3C50.64,27,44.56,30.88,43,30.88c-.24,0-.48,0-.48-.24s4.72-6.24,6.4-8.32c4-5,4.4-5.6,6.08-5.6a3.11,3.11,0,0,1,3,3.2C58.08,21.6,56.32,22.88,53.76,24.72Z"/><path class="cls-1" d="M91.68,19.28c0,2.08.16,11.36.16,13.28h12.08c1-1.2,1.84-2.4,3.12-2.4a3.86,3.86,0,0,1,3.36,3,3.1,3.1,0,0,1-1,1.92c-.32,4.32-.8,11.76-2.56,17.28-1.6,5.12-4,7.2-7.2,7.2-3.84,0-6.56-3.44-6.56-3.92,0-.16.24-.16.32-.16.56,0,3,.56,3.44.56,3.92,0,7.36-2.16,8.16-21H91.76c-.08,7.36-.16,22.8-9.36,30.4-1,.88-3.76,2.72-5,2.72-.16,0-.32-.08-.32-.24s3.28-3.68,3.84-4.4c6.32-8.56,6.32-23,6.32-31.12a114.91,114.91,0,0,0-.56-13.92c-1-.32-1.12-1-1.12-1.12,0-1.36,2.64-3.92,4.16-3.92s1.76,2.4,1.84,3h23.52L114,6.8a2.24,2.24,0,0,1-1.6-1.92C112.4,3,114.72,0,117.12,0c2.08,0,2.08,2.16,2.08,3s-.16,4.24-.16,5a45.07,45.07,0,0,0,.72,8.48H139c.8-1.2,2.32-3.52,4-3.52a5,5,0,0,1,4.4,4.48c0,2.08-2.24,2.08-4.88,2.08H120a97.64,97.64,0,0,0,6.64,27.44,67.4,67.4,0,0,0,7-16.88,1.49,1.49,0,0,1-.56-1.28c0-2.24,2.72-3.36,4.32-3.36a2,2,0,0,1,2,2.16c0,1-2.08,11-10.72,23.28,4,6.4,10.32,13.28,15.28,13.28,2.24,0,3.92-1.52,5-2.64a18.37,18.37,0,0,1,1.6-1.76c.4,0,.4,1.68.4,1.84,0,10.16-5,10.16-5.76,10.16-4.56,0-13.76-7.52-19.28-17a36.82,36.82,0,0,1-18.56,11.2,13.53,13.53,0,0,1-3.6.56c-.32,0-1.52,0-1.52-.32s.72-.56,1.2-.72c3.2-.72,13.68-5.68,20.4-14.56-2.48-5.2-6.16-12.8-8.24-31.44Zm37-6.64c-.48,0-.72-.24-.72-.8,0-.88,4-9,4.4-9.76A3.61,3.61,0,0,1,135.2,0a3.21,3.21,0,0,1,3.12,3.28C138.32,5.92,130.32,12.64,128.64,12.64Z"/></g></g></svg>