<svg xmlns="http://www.w3.org/2000/svg" viewBox="0 0 142.64 67.76"><defs><style>.cls-1{fill:#221714;}</style></defs><g id="レイヤー_2" data-name="レイヤー 2"><g id="レイヤー_1-2" data-name="レイヤー 1"><path class="cls-1" d="M5,50.32c.08,4.88.16,7-3.28,7-1.44,0-1.44-.88-1.44-1.84,0-3.44.32-8.88.48-12.32.56-15,.56-20.56.56-25.2,0-.08,0-2.24-.24-4.4C.72,13.44,0,13.12,0,12.4c0-1.52,2.56-4.16,4.08-4.16.24,0,1.6.16,1.76,2.08H17c.64-1,1.6-2.08,2.8-2.08a3.12,3.12,0,0,1,3,3,2.46,2.46,0,0,1-.32,1.2,2.4,2.4,0,0,0-.32,1.6c0,2.24-.08,12.32-.08,14.4,0,3.36.4,18.16.4,21.2,0,3.68-3,3.68-3.44,3.68-1.52,0-1.52-.64-1.52-3ZM5.2,31,5.12,48H17.6l.16-17Zm12.56-17a.92.92,0,0,0-1-1H6.16c-1,0-1,2.48-1,3.28v12.4H17.76ZM54.48,8.24c-2.64,0-4.16,0-6.48.16.48.88.56,1,.56,1.36a1.46,1.46,0,0,1-.56,1C46.64,15,43,26.56,30,30.48a15.23,15.23,0,0,1-4.16.8c-.56,0-.88-.32-.88-.48a7.05,7.05,0,0,1,1.84-1A30.66,30.66,0,0,0,39.6,19.2c1.92-2.64,4.4-8,4.4-9.84a1,1,0,0,0-.48-.88l-9.28.24c-.72,0-3.68.8-4.24.8-1.12,0-1.44-.56-1.44-1.36,0-1,.72-2.8,2.08-2.8.56,0,3.12.32,3.68.32H58.56c.56-.56,2.32-2.24,3.36-2.24a3.78,3.78,0,0,1,3.6,3.44A5.78,5.78,0,0,1,64.4,9.6c-.8,10.8-3.6,23-11,23-4.48,0-7.84-4.72-7.84-5s.32-.4.56-.4,1.52.4,1.84.4a12.62,12.62,0,0,0,2.8.32c3.36,0,5.12-1.68,6.56-5.92,1.36-4,2.64-9.92,2.64-12.16a1.36,1.36,0,0,0-1.44-1.52Zm-19,53.92v2.08A3.84,3.84,0,0,1,32,67.76c-1.6,0-1.6-1.76-1.6-2.32,0-2.32.64-12.56.72-14.64.08-2.32.16-5.44.16-7.84a4.37,4.37,0,0,1-.8-2.08c0-1.6,2.24-3.6,3.84-3.6,1.28,0,1.84,1.68,2.08,2.4H55.6c.48-.64,1.6-2.24,3.12-2.24,1.2,0,3.6,1.6,3.6,2.88,0,.32-.16.56-.64,1.52-.08,2.32-.08,6.32-.08,8.32s.64,10.8.64,12.56c0,3.68-3.68,4-4.24,4-1.76,0-1.76-1.28-1.68-4.56Zm21-14.24c0-5.68-.16-5.68-1.2-5.68H36.64c-.8,0-1,.72-1,1.2,0,.16-.16,12.56-.16,13.6v2.64h21Z"/><path class="cls-1" d="M73.92,52.32c0-.08,5.12-6.24,6-7.44a51.17,51.17,0,0,0,7-12.48c1.2-3.6,1.68-4.88,3.68-4.88a2.53,2.53,0,0,1,2.56,2.56c0,5.36-14.64,22.56-18.8,22.56C74.24,52.64,73.92,52.64,73.92,52.32ZM95,13.28c0-.48-.24-3.84-.24-4.24a56.88,56.88,0,0,1-8.32.64C85,9.68,79.12,9.6,79.12,8c0-.48.48-.48,5-.8a70,70,0,0,0,23.76-5.84A2.52,2.52,0,0,1,110.08,0c1.52,0,3.6,1.44,3.6,3s-1.44,2.08-2.8,2.48A84.52,84.52,0,0,1,100,8.4c-.16,2.16-.4,10.48-.4,11.92h6.16c1.36-2.16,2.16-2.56,2.88-2.56,1.6,0,3.28,2.32,3.28,3.84,0,1.36-1.6,1.44-3.52,1.44H99.52c0,1.28-.08,7.52-.08,9,2.08,3.36,7.84,7,9,7.76,2.8,1.76,3.12,2,3.12,2.56,0,1.44-2.08,3-3.36,3-2,0-7.12-6.72-8.64-9.28V46.08c0,2.8.16,16.8,0,17.68a4.38,4.38,0,0,1-4.08,4,1.8,1.8,0,0,1-2-1.92c0-.88.4-5,.48-6,.64-9,.88-24.56,1.12-36.8h-7.2a44.21,44.21,0,0,0-4.72.16c-.56.08-3.28,1-3.92,1a1.36,1.36,0,0,1-1.28-1.52c0-1,.64-2.8,2.24-2.8.4,0,2.24.4,2.64.4H95Zm41.12,5.92a3.73,3.73,0,0,1,3-2.48c1.36,0,3.44.88,3.44,3a4.52,4.52,0,0,1-.48,1.6c-.16.4-.32.8-.32,5,0,3.44.16,11.36.32,16.88.08,1.12.4,6.56.4,7.76,0,2.8-2.72,4-4.16,4-1.76,0-1.68-1.36-1.52-4.72h-15.6c0,1.76.08,5,0,5.2a4.06,4.06,0,0,1-3.44,2.56c-1.76,0-1.76-1.52-1.76-2.48,0-.4.4-8.32.4-9.52.16-3.84.24-10.8.24-14.8V26.64c0-1.36,0-3.68-.08-5.12a1.27,1.27,0,0,1-1.12-1.2c0-1.2,2.48-3.92,3.76-3.92a2.64,2.64,0,0,1,2.32,2.8Zm.8,28.64V31c0-3-.08-6.16-.16-9.28H121.36c0,3.76-.08,22-.08,26.16Z"/></g></g></svg>