<svg xmlns="http://www.w3.org/2000/svg" viewBox="0 0 145.36 68.72"><defs><style>.cls-1{fill:#221714;}</style></defs><g id="レイヤー_2" data-name="レイヤー 2"><g id="レイヤー_1-2" data-name="レイヤー 1"><path class="cls-1" d="M29.2,22.72c.08-1.92.32-10.64.32-12.4A7.8,7.8,0,0,0,29,7.12L27.92,4.56C27.92,3.12,30.48,0,32.8,0c2.48,0,2.48,2.72,2.48,3.84,0,.32-.08,1.68-.08,2-.08,2.48-.64,15.52-.72,16.88H56.72c2.08-3.44,2.24-3.84,3.52-3.84,2,0,5.44,2.32,5.44,4.88,0,1.92-2.16,2.08-2.8,2.16-2.32.24-24.56,0-27.44,0C39.2,39,44.72,48,55,56.64a65.74,65.74,0,0,0,9.28,6.48c.72.4,4.4,2.16,4.4,2.48,0,.8-8.24,3.12-10.08,3.12-3.44,0-10.24-8.4-11-9.28C38.08,47.6,36,36.48,34.24,25.92,33.36,34.64,32,45.28,23.6,55.36S3.6,67.68.88,67.68c-.24,0-.88,0-.88-.48,0-.24.16-.32,1.84-1C26.16,56.32,28.24,33.68,29,25.92c-4,0-17.44,0-20.56.24-.88.08-4.56,1.28-5.28,1.28A1.68,1.68,0,0,1,1.28,25.6c0-1.36,1.2-3.44,3-3.44.72,0,3.76.56,4.4.56Z"/><path class="cls-1" d="M83.52,64.64c-.88,0-4.56,1-5.28,1-1,0-1.28-1-1.28-1.68,0-1,.56-3.12,2.24-3.12.72,0,3.6.48,4.16.48H93.92c-.08-3.2-.4-28.24-.48-28.72-.08-.32-1.36-1.36-1.36-1.6,0-1.44,3.28-4.4,5.2-4.4a1.76,1.76,0,0,1,1.92,2,23.27,23.27,0,0,1-.32,2.48A30.73,30.73,0,0,0,98.64,36c0,4-.24,21.76-.24,25.36,3.68,0,7.44.08,11.12,0,.16-9.12.24-18.56.24-25.84v-6.4c0-8.88-.24-13.36-.4-15.44l-20.08.08a7.67,7.67,0,0,0-3,.72A5.15,5.15,0,0,1,84.4,15c-.64,0-1.2-.56-1.2-1.76,0-1.52.56-3.2,2.08-3.2.72,0,3.84.48,4.48.48h40.8c.72-1.28,2.48-3.84,4.08-3.84,2.08,0,5.6,2.56,5.6,5,0,1.44-1.76,1.92-2.88,1.92H114.88c-.24,5.12-.32,9.44-.32,20.32h11.52c.48-1,2-3.68,3.6-3.68,1.92,0,4.8,2.32,4.8,4.72,0,1.36-1.52,1.76-2.64,1.76H114.56c0,3.92.08,21,.08,24.56h21.2c1-2.16,3-4,4.4-4,2.16,0,5.12,2.8,5.12,5,0,1.6-1.76,2.32-3,2.32Z"/></g></g></svg>